<?xml version="1.0" encoding="UTF-8"?>
<svg version="1.1" xmlns="http://www.w3.org/2000/svg" width="755" height="170">
<path d="M0 0 C0.88405518 0.00563965 1.76811035 0.0112793 2.67895508 0.01708984 C13.03572603 0.21017408 21.10340846 2.50490411 29.125 9.3125 C36.09560403 16.66359552 38.69174156 24.55696419 38.5625 34.5625 C38.55420166 35.39587891 38.54590332 36.22925781 38.53735352 37.08789062 C38.2003401 49.47463265 33.61155177 60.17864161 25.24609375 69.37890625 C14.624758 79.3136102 0.86616208 82.97140737 -13.421875 82.59375 C-23.76282544 81.75150064 -33.88757466 78.91988359 -40.98046875 70.9453125 C-48.42408096 60.84655615 -48.91394148 50.42374114 -47.875 38.3125 C-45.57418238 25.22401652 -38.51541028 15.1189448 -27.875 7.3125 C-18.94029822 1.86011211 -10.35309997 -0.0689091 0 0 Z M-22.875 22.3125 C-23.43058594 22.81523438 -23.98617187 23.31796875 -24.55859375 23.8359375 C-30.46086848 29.87068223 -33.01736414 38.234536 -33.3125 46.5625 C-32.94102028 53.59810066 -31.28950516 58.34027724 -26.0625 63.1875 C-19.87392822 68.49904864 -13.27346311 68.76173566 -5.4140625 68.62109375 C2.36674882 67.94263448 8.62415757 64.83509644 14.30078125 59.50390625 C20.48966405 52.06929543 23.56895727 43.17241508 23.40234375 33.52734375 C22.67001266 27.67900956 20.41297792 22.78896249 16.5625 18.375 C4.33134079 9.59844301 -12.38695844 12.58512959 -22.875 22.3125 Z " fill="#329ECE" transform="translate(130.875,12.6875)"/>
<path d="M0 0 C5.63756289 -0.09970521 11.2746 -0.17185967 16.9128418 -0.21972656 C18.82634434 -0.23970419 20.73978692 -0.26689599 22.65307617 -0.30175781 C34.49585301 -0.51196633 44.54438078 -0.60027569 54.9375 5.8125 C60.66342371 11.88544939 62.34660891 18.37164361 62.2109375 26.5390625 C61.40539003 35.93711636 57.38190367 42.84872283 50.625 49.25 C48.38993691 50.74004206 46.23732113 51.92580099 43.8359375 53.109375 C43.11712402 53.46483398 42.39831055 53.82029297 41.65771484 54.18652344 C41.11066895 54.4549707 40.56362305 54.72341797 40 55 C40.39380859 55.68626465 40.78761719 56.3725293 41.19335938 57.07958984 C42.96667367 60.17554477 44.73340991 63.27520366 46.5 66.375 C47.43005859 67.99535156 47.43005859 67.99535156 48.37890625 69.6484375 C49.25869141 71.1953125 49.25869141 71.1953125 50.15625 72.7734375 C50.70087891 73.72653809 51.24550781 74.67963867 51.80664062 75.66162109 C53 78 53 78 53 80 C47.39 80 41.78 80 36 80 C33.99491947 76.37772653 31.99574934 72.75240928 30 69.125 C29.42765625 68.09246094 28.8553125 67.05992188 28.265625 65.99609375 C27.72421875 65.00996094 27.1828125 64.02382812 26.625 63.0078125 C26.12226562 62.09660645 25.61953125 61.18540039 25.1015625 60.24658203 C24 58 24 58 24 56 C17.73 56 11.46 56 5 56 C4.72285156 57.56492188 4.44570313 59.12984375 4.16015625 60.7421875 C3.79443289 62.78648733 3.42853863 64.83075659 3.0625 66.875 C2.88009766 67.90753906 2.69769531 68.94007812 2.50976562 70.00390625 C2.33251953 70.99003906 2.15527344 71.97617188 1.97265625 72.9921875 C1.81031494 73.90339355 1.64797363 74.81459961 1.48071289 75.75341797 C1 78 1 78 0 80 C-4.95 80 -9.9 80 -15 80 C-14.3779834 70.76814905 -12.71473022 61.87347575 -10.83984375 52.83203125 C-10.52686891 51.30086214 -10.21442387 49.76958466 -9.90248108 48.23820496 C-9.0874037 44.24401438 -8.26522589 40.25131902 -7.44146729 36.25891113 C-6.59919113 32.17024541 -5.76376741 28.08018035 -4.92773438 23.99023438 C-3.29179005 15.9921188 -1.64832806 7.99557256 0 0 Z M13 13 C12.14297549 17.09289985 11.28854292 21.18632951 10.43652344 25.28027344 C10.14622291 26.6733263 9.85521074 28.06623105 9.56347656 29.45898438 C9.14461725 31.45925129 8.72830802 33.46003437 8.3125 35.4609375 C8.06113281 36.66540527 7.80976563 37.86987305 7.55078125 39.11083984 C6.93757844 41.83723794 6.93757844 41.83723794 7 44 C25.3071849 45.1863494 25.3071849 45.1863494 41.62890625 38.47265625 C45.13593842 34.70584392 46.17282144 30.42907041 46.5 25.4375 C46.38198804 22.14440426 45.83347637 20.17638111 43.8125 17.5625 C39.58247665 13.70847872 36.14045105 12.74144747 30.48046875 12.8046875 C29.45888672 12.81113281 28.43730469 12.81757813 27.38476562 12.82421875 C26.32966797 12.84097656 25.27457031 12.85773437 24.1875 12.875 C23.11306641 12.88402344 22.03863281 12.89304687 20.93164062 12.90234375 C18.28753146 12.92584694 15.64388128 12.95870425 13 13 Z " fill="#329ECE" transform="translate(16,14)"/>
<path d="M0 0 C-1.40466029 3.66837248 -3.03004361 7.13363953 -4.8359375 10.62109375 C-5.39933838 11.70986816 -5.96273926 12.79864258 -6.54321289 13.92041016 C-7.14770264 15.0810498 -7.75219238 16.24168945 -8.375 17.4375 C-8.68645966 18.03713562 -8.99791931 18.63677124 -9.31881714 19.25457764 C-13.94587086 28.16022012 -18.68919206 36.99676775 -23.52880859 45.78881836 C-27.28912823 52.64041699 -30.91314105 59.55621577 -34.5 66.5 C-40.07859565 77.2965818 -45.84716525 87.97814887 -51.70019531 98.62792969 C-54.49855461 103.73477772 -57.24959687 108.86720543 -60 114 C-60.9814988 111.0555036 -61.05587154 109.58753363 -60.85400391 106.5637207 C-60.79709381 105.66881424 -60.74018372 104.77390778 -60.68154907 103.85188293 C-60.6139035 102.88626938 -60.54625793 101.92065582 -60.4765625 100.92578125 C-60.41093109 99.92798141 -60.34529968 98.93018158 -60.27767944 97.90214539 C-60.13745885 95.78784786 -59.99436538 93.67373921 -59.84863281 91.55981445 C-59.62710064 88.34300292 -59.41431926 85.1257082 -59.203125 81.90820312 C-59.06562251 79.85152778 -58.92761763 77.79488595 -58.7890625 75.73828125 C-58.72546539 74.78278885 -58.66186829 73.82729645 -58.59634399 72.84284973 C-58.22764348 67.53134794 -57.71435562 62.27640245 -57 57 C-57.66763367 57.08991714 -58.33526733 57.17983429 -59.02313232 57.2724762 C-65.96476173 58.20588173 -72.90772567 59.12881783 -79.8515625 60.0456543 C-82.44371774 60.38931616 -85.03551932 60.73565654 -87.62695312 61.0847168 C-91.34936491 61.58564625 -95.07293736 62.07696627 -98.796875 62.56640625 C-99.95741394 62.72468399 -101.11795288 62.88296173 -102.31365967 63.04603577 C-103.39447815 63.18625656 -104.47529663 63.32647736 -105.58886719 63.47094727 C-106.53928894 63.59752213 -107.48971069 63.72409698 -108.46893311 63.85450745 C-110.91958926 63.99537777 -112.67763843 63.74495631 -115 63 C-114.39341553 62.67427002 -113.78683105 62.34854004 -113.16186523 62.01293945 C-98.99337236 54.3951987 -84.93178296 46.61333509 -70.94482422 38.66796875 C-65.84839495 35.78131606 -60.73671441 32.92197219 -55.625 30.0625 C-54.59262207 29.48483887 -53.56024414 28.90717773 -52.49658203 28.31201172 C-50.39672623 27.13722841 -48.29679089 25.96258725 -46.19677734 24.78808594 C-41.84986873 22.35668539 -37.50372839 19.92391458 -33.15795898 17.49047852 C-31.03670039 16.30288889 -28.91512613 15.1158629 -26.79321289 13.92944336 C-22.16824759 11.34217182 -17.54784884 8.7480912 -12.9453125 6.12109375 C-12.19515869 5.69417236 -11.44500488 5.26725098 -10.67211914 4.82739258 C-9.30983404 4.0509484 -7.94949402 3.27107694 -6.59155273 2.48706055 C-2.22252224 0 -2.22252224 0 0 0 Z " fill="#E04C25" transform="translate(330,0)"/>
<path d="M0 0 C19.47 0 38.94 0 59 0 C57 12 57 12 56 13 C54.64905018 13.09268999 53.29332909 13.11747326 51.93920898 13.11352539 C51.07839218 13.11344986 50.21757538 13.11337433 49.33067322 13.11329651 C48.39526199 13.10813522 47.45985077 13.10297394 46.49609375 13.09765625 C45.54307877 13.0962413 44.59006378 13.09482635 43.60816956 13.09336853 C40.55124835 13.08775152 37.49439923 13.07519616 34.4375 13.0625 C32.37044376 13.05748719 30.30338638 13.05292391 28.23632812 13.04882812 C23.15752412 13.03777656 18.0787743 13.02050055 13 13 C12.87625 14.27875 12.7525 15.5575 12.625 16.875 C12.12436199 22.04825939 11.03753604 26.8123198 10 32 C28.315 32.495 28.315 32.495 47 33 C46 43 46 43 45 45 C32.46 45 19.92 45 7 45 C5.68 51.93 4.36 58.86 3 66 C17.52 66 32.04 66 47 66 C46.47942079 70.68521286 45.92450033 75.37749836 45 80 C25.2 80 5.4 80 -15 80 C-14.39049048 73.90490476 -13.79636213 68.36035288 -12.60131836 62.43896484 C-12.39627434 61.41264954 -12.39627434 61.41264954 -12.18708801 60.36560059 C-11.74256848 58.14643408 -11.29129184 55.92870386 -10.83984375 53.7109375 C-10.52696698 52.15589754 -10.21451995 50.60077106 -9.90248108 49.04556274 C-9.08641472 44.98417573 -8.26457655 40.92397833 -7.44146729 36.86401367 C-6.4516593 31.97551061 -5.46913857 27.08553821 -4.48537445 22.19581604 C-2.99578258 14.7960797 -1.49703524 7.39825158 0 0 Z " fill="#339ECE" transform="translate(329,14)"/>
<path d="M0 0 C3.21119801 2.47815575 6.15748282 5.1083529 9 8 C7.52202738 11.67056937 5.52384523 13.41085783 2.375 15.75 C1.55773437 16.36359375 0.74046875 16.9771875 -0.1015625 17.609375 C-0.72804688 18.06828125 -1.35453125 18.5271875 -2 19 C-2.44730469 18.59007813 -2.89460938 18.18015625 -3.35546875 17.7578125 C-9.49558616 12.28538376 -14.73301157 10.11499675 -23 10 C-33.59985767 10.94991612 -41.33563533 14.06541466 -48.234375 22.30859375 C-52.7961645 29.26229501 -55.49841148 38.68228728 -54 47 C-52.13951653 53.35490982 -49.52153122 57.35578939 -44 61 C-35.87655517 64.23793646 -26.63177342 64.37045794 -18.4375 61.25 C-14.87883148 59.60843956 -11.88211827 57.68997705 -9 55 C-5.78956118 56.38188453 -3.95063635 57.92421903 -1.75 60.625 C-0.96882813 61.57246094 -0.96882813 61.57246094 -0.171875 62.5390625 C0.21484375 63.02117187 0.6015625 63.50328125 1 64 C-1.27429324 69.81350238 -6.69441174 72.24747677 -12 75 C-25.15477187 80.1257013 -39.23006335 79.11735631 -52.20703125 74.15625 C-60.20498695 70.60839967 -65.77131814 64.53724428 -69.11328125 56.4765625 C-72.3065898 43.95654219 -70.93430633 30.44901525 -65 19 C-62.94702899 15.67139653 -60.69691695 12.82695697 -58 10 C-57.41605469 9.37609375 -56.83210937 8.7521875 -56.23046875 8.109375 C-43.08160646 -4.62426006 -16.25857717 -10.01374296 0 0 Z " fill="#329ECF" transform="translate(247,17)"/>
<path d="M0 0 C22.44 0 44.88 0 68 0 C67.34 4.29 66.68 8.58 66 13 C57.09 13 48.18 13 39 13 C38.67 16.3 38.34 19.6 38 23 C37.66786943 25.02132288 37.30379906 27.03795049 36.89257812 29.04467773 C36.67565308 30.11535995 36.45872803 31.18604218 36.23522949 32.28916931 C36.00291626 33.40932938 35.77060303 34.52948944 35.53125 35.68359375 C35.29088013 36.86091568 35.05051025 38.03823761 34.80285645 39.25123596 C34.29751137 41.72160113 33.789784 44.19148006 33.27978516 46.66088867 C32.49756796 50.44927872 31.72278193 54.23913123 30.94921875 58.02929688 C30.45615898 60.43498397 29.96268415 62.84058603 29.46875 65.24609375 C29.23643677 66.38042343 29.00412354 67.51475311 28.76477051 68.68345642 C28.54784546 69.73207352 28.33092041 70.78069061 28.10742188 71.86108398 C27.91724487 72.7835643 27.72706787 73.70604462 27.53112793 74.65647888 C27 77 27 77 26 80 C21.05 80 16.1 80 11 80 C11.64824234 72.12433937 12.94993435 64.51734152 14.50390625 56.7734375 C14.7466478 55.54460846 14.98938934 54.31577942 15.23948669 53.04971313 C15.87891898 49.81708985 16.52236533 46.58530154 17.16784668 43.35388184 C17.82822548 40.04259177 18.48325752 36.73024438 19.13867188 33.41796875 C20.42007404 26.94415496 21.71023937 20.47217605 23 14 C14.75 13.67 6.5 13.34 -2 13 C-1 3 -1 3 0 0 Z " fill="#329DCF" transform="translate(393,14)"/>
<path d="M0 0 C3.63 -0.0825 7.26 -0.165 11 -0.25 C12.12792969 -0.28641602 13.25585938 -0.32283203 14.41796875 -0.36035156 C20.81439038 -0.43027013 25.73755308 0.16740088 31 4 C33.74459089 6.96010149 34.88764621 10.2974079 35.15234375 14.30859375 C34.81500937 19.43780632 33.44584918 23.06188665 30 27 C27.86328125 27.65625 27.86328125 27.65625 26 28 C26.6496875 28.91523437 27.299375 29.83046875 27.96875 30.7734375 C28.81274508 31.97378605 29.65648173 33.17431634 30.5 34.375 C30.92925781 34.97828125 31.35851562 35.5815625 31.80078125 36.203125 C35 40.7734375 35 40.7734375 35 43 C31.76171875 43.37109375 31.76171875 43.37109375 28 43 C25.76953125 40.41015625 25.76953125 40.41015625 23.8125 37.0625 C21.55961545 33.55342194 19.88930877 31.27965011 15.7578125 29.98046875 C12.08660179 29.66170298 12.08660179 29.66170298 7 30 C7 34.29 7 38.58 7 43 C4.69 43 2.38 43 0 43 C0 28.81 0 14.62 0 0 Z M7 6 C7 11.94 7 17.88 7 24 C9.371875 24.0825 11.74375 24.165 14.1875 24.25 C15.29387817 24.30462402 15.29387817 24.30462402 16.42260742 24.36035156 C19.96408565 24.41965518 21.89492143 24.06467453 24.92578125 22.19921875 C27.77896183 19.17409508 28 17.11366469 28 13 C26.81388219 10.1907736 25.86522231 8.58835117 23.33984375 6.87109375 C20.08254428 5.65844303 17.2126311 5.8108772 13.75 5.875 C11.5225 5.91625 9.295 5.9575 7 6 Z " fill="#D8603C" transform="translate(720,59)"/>
<path d="M0 0 C3.63 -0.0825 7.26 -0.165 11 -0.25 C12.12792969 -0.28641602 13.25585938 -0.32283203 14.41796875 -0.36035156 C21.10219821 -0.43341613 25.31936154 0.41915722 31 4 C34.22530295 7.7455131 35.15270392 12.11347464 35 17 C34.12484916 21.05028486 32.93122329 24.0969956 29.9375 27 C28 28 28 28 26 28 C26.6496875 28.91523437 27.299375 29.83046875 27.96875 30.7734375 C28.81274508 31.97378605 29.65648173 33.17431634 30.5 34.375 C30.92925781 34.97828125 31.35851562 35.5815625 31.80078125 36.203125 C35 40.7734375 35 40.7734375 35 43 C31.9375 43.5625 31.9375 43.5625 28 43 C25.21929235 40.29715217 23.11827119 37.2360924 21 34 C20.34 33.01 19.68 32.02 19 31 C16.11404054 30.41518879 16.11404054 30.41518879 12.875 30.3125 C10.93625 30.209375 8.9975 30.10625 7 30 C7 34.29 7 38.58 7 43 C4.69 43 2.38 43 0 43 C0 28.81 0 14.62 0 0 Z M7 6 C7 11.94 7 17.88 7 24 C9.371875 24.0825 11.74375 24.165 14.1875 24.25 C15.29387817 24.30462402 15.29387817 24.30462402 16.42260742 24.36035156 C19.96408565 24.41965518 21.89492143 24.06467453 24.92578125 22.19921875 C27.77896183 19.17409508 28 17.11366469 28 13 C26.81388219 10.1907736 25.86522231 8.58835117 23.33984375 6.87109375 C20.08254428 5.65844303 17.2126311 5.8108772 13.75 5.875 C11.5225 5.91625 9.295 5.9575 7 6 Z " fill="#D8603C" transform="translate(510,59)"/>
<path d="M0 0 C2.31 0 4.62 0 7 0 C7.33 6.93 7.66 13.86 8 21 C13.74698174 15.32396865 19.42523188 9.7150696 24.66015625 3.55859375 C27.69278223 0.03084516 27.69278223 0.03084516 29.9453125 -0.1953125 C31.96354167 -0.13020833 33.98177083 -0.06510417 36 0 C34.12324201 4.87957078 30.03805306 8.05808152 26.34375 11.578125 C23.64895725 14.19365914 21.36305798 16.45604924 20 20 C21.1449484 21.43820494 22.29103301 22.87550532 23.4375 24.3125 C24.15808594 25.21613281 24.87867188 26.11976562 25.62109375 27.05078125 C28.80086902 30.99286718 32.05291551 34.87373737 35.3125 38.75 C37 41 37 41 37 43 C30.12673339 43.81256623 30.12673339 43.81256623 27.24707031 41.73583984 C25.58520127 39.95863443 24.09547808 38.12585747 22.625 36.1875 C22.10550781 35.54490234 21.58601562 34.90230469 21.05078125 34.24023438 C18.90063422 31.5594955 16.90767757 28.86151636 15 26 C12.09810611 27.30084898 9.9611519 28.47229311 8 31 C7.42052719 33.96243726 7.42052719 33.96243726 7.3125 37.1875 C7.24675781 38.27417969 7.18101562 39.36085937 7.11328125 40.48046875 C7.07589844 41.31191406 7.03851562 42.14335938 7 43 C4.69 43 2.38 43 0 43 C0 28.81 0 14.62 0 0 Z " fill="#D8603C" transform="translate(638,59)"/>
<path d="M0 0 C9.9 0 19.8 0 30 0 C30 1.98 30 3.96 30 6 C22.41 6 14.82 6 7 6 C7 9.96 7 13.92 7 18 C13.93 18 20.86 18 28 18 C28 19.98 28 21.96 28 24 C21.07 24 14.14 24 7 24 C7 28.29 7 32.58 7 37 C14.92 37 22.84 37 31 37 C31 38.98 31 40.96 31 43 C20.77 43 10.54 43 0 43 C0 28.81 0 14.62 0 0 Z " fill="#D7603C" transform="translate(680,59)"/>
<path d="M0 0 C9.9 0 19.8 0 30 0 C30 1.98 30 3.96 30 6 C22.41 6 14.82 6 7 6 C7 9.96 7 13.92 7 18 C13.93 18 20.86 18 28 18 C28 19.98 28 21.96 28 24 C21.07 24 14.14 24 7 24 C7 28.29 7 32.58 7 37 C14.92 37 22.84 37 31 37 C31 38.98 31 40.96 31 43 C20.77 43 10.54 43 0 43 C0 28.81 0 14.62 0 0 Z " fill="#D7603D" transform="translate(590,11)"/>
<path d="M0 0 C1.134375 0.020625 2.26875 0.04125 3.4375 0.0625 C5.50167698 4.45443938 7.56461479 8.84695797 9.62646484 13.23999023 C10.32632959 14.73070537 11.02651779 16.2212687 11.72705078 17.71166992 C22.4375 40.50002229 22.4375 40.50002229 22.4375 43.0625 C20.1275 43.0625 17.8175 43.0625 15.4375 43.0625 C13.7875 39.7625 12.1375 36.4625 10.4375 33.0625 C3.1775 32.7325 -4.0825 32.4025 -11.5625 32.0625 C-12.5525 35.0325 -13.5425 38.0025 -14.5625 41.0625 C-14.8925 41.7225 -15.2225 42.3825 -15.5625 43.0625 C-17.8725 43.0625 -20.1825 43.0625 -22.5625 43.0625 C-21.90060628 38.12771461 -19.861695 33.98137799 -17.78125 29.515625 C-17.40770386 28.70381775 -17.03415771 27.8920105 -16.64929199 27.05560303 C-15.86165382 25.34661328 -15.07143763 23.63880962 -14.27880859 21.93212891 C-13.06147932 19.31030171 -11.85236379 16.68480745 -10.64453125 14.05859375 C-9.8780806 12.39821749 -9.11116958 10.73805364 -8.34375 9.078125 C-7.98019409 8.28964172 -7.61663818 7.50115845 -7.24206543 6.68878174 C-4.16455037 0.07306229 -4.16455037 0.07306229 0 0 Z M-0.5625 8.0625 C-3.84467236 14.27657336 -6.50241112 20.34010471 -8.5625 27.0625 C-2.9525 27.0625 2.6575 27.0625 8.4375 27.0625 C5.7975 20.7925 3.1575 14.5225 0.4375 8.0625 C0.1075 8.0625 -0.2225 8.0625 -0.5625 8.0625 Z " fill="#D8603D" transform="translate(527.5625,10.9375)"/>
<path d="M0 0 C1.134375 0.020625 2.26875 0.04125 3.4375 0.0625 C5.9871392 5.54139051 8.53218333 11.02238267 11.07299805 16.50537109 C11.93794902 18.37021382 12.80415144 20.23447663 13.67163086 22.09814453 C14.91850188 24.77745409 16.16085346 27.45881879 17.40234375 30.140625 C17.79091049 30.97305725 18.17947723 31.8054895 18.57981873 32.66314697 C18.94011673 33.44365417 19.30041473 34.22416138 19.67163086 35.02832031 C19.98917831 35.71226868 20.30672577 36.39621704 20.63389587 37.10089111 C21.44022034 39.06914038 21.97526225 40.98893782 22.4375 43.0625 C20.1275 43.0625 17.8175 43.0625 15.4375 43.0625 C13.7875 39.7625 12.1375 36.4625 10.4375 33.0625 C3.1775 32.7325 -4.0825 32.4025 -11.5625 32.0625 C-12.0575 34.5375 -12.0575 34.5375 -12.5625 37.0625 C-13.51644836 39.08487052 -14.50785351 41.0907696 -15.5625 43.0625 C-17.8725 43.0625 -20.1825 43.0625 -22.5625 43.0625 C-20.10814613 34.81886869 -16.56340108 27.13932389 -12.98242188 19.33935547 C-11.92828655 17.04242416 -10.88161836 14.74219704 -9.8359375 12.44140625 C-9.16970042 10.9815747 -8.50304908 9.52193213 -7.8359375 8.0625 C-7.36563614 7.02984009 -7.36563614 7.02984009 -6.88583374 5.97631836 C-4.17005278 0.07315882 -4.17005278 0.07315882 0 0 Z M-0.5625 8.0625 C-1.71276086 10.47714681 -2.85782205 12.89403318 -4 15.3125 C-4.48823242 16.33537109 -4.48823242 16.33537109 -4.98632812 17.37890625 C-5.29892578 18.04277344 -5.61152344 18.70664063 -5.93359375 19.390625 C-6.22161865 19.9980957 -6.50964355 20.60556641 -6.80639648 21.23144531 C-7.74470168 23.37735009 -7.74470168 23.37735009 -8.5625 27.0625 C-2.9525 27.0625 2.6575 27.0625 8.4375 27.0625 C5.7975 20.7925 3.1575 14.5225 0.4375 8.0625 C0.1075 8.0625 -0.2225 8.0625 -0.5625 8.0625 Z " fill="#D8603D" transform="translate(568.5625,58.9375)"/>
<path d="M0 0 C1.91015625 0.8203125 1.91015625 0.8203125 4.53515625 2.3203125 C4.20515625 4.3003125 3.87515625 6.2803125 3.53515625 8.3203125 C1.14951548 7.74446818 -1.13167159 7.09803655 -3.46484375 6.3203125 C-5.29540768 6.20176694 -7.13048681 6.14514017 -8.96484375 6.1328125 C-9.92390625 6.11863281 -10.88296875 6.10445312 -11.87109375 6.08984375 C-14.70230514 6.13276139 -14.70230514 6.13276139 -17.46484375 8.3203125 C-18.46015169 10.21800009 -18.46015169 10.21800009 -18.46484375 12.3203125 C-15.61315344 16.53101147 -10.06817489 17.08744424 -5.4453125 18.33789062 C-1.01120376 19.61362582 2.16828592 20.99824842 5.53515625 24.3203125 C7.161741 29.20006675 7.20722697 32.86415928 5.03515625 37.5703125 C1.2592851 41.72377077 -2.40717649 42.97086481 -7.92578125 43.6015625 C-15.03450412 43.86403842 -20.49604269 42.29951321 -26.46484375 38.3203125 C-26.08984375 35.8828125 -26.08984375 35.8828125 -25.46484375 33.3203125 C-24.47484375 32.8253125 -24.47484375 32.8253125 -23.46484375 32.3203125 C-21.58203125 33.09765625 -21.58203125 33.09765625 -19.33984375 34.2578125 C-14.66882524 36.42059921 -11.58608278 36.91779039 -6.46484375 36.3203125 C-3.44503274 35.32835277 -3.44503274 35.32835277 -1.46484375 33.3203125 C-1.29800649 30.74460256 -1.29800649 30.74460256 -1.46484375 28.3203125 C-2.14289063 28.07796875 -2.8209375 27.835625 -3.51953125 27.5859375 C-6.50618463 26.51041135 -9.48552546 25.41598119 -12.46484375 24.3203125 C-13.87636719 23.81757812 -13.87636719 23.81757812 -15.31640625 23.3046875 C-16.19039063 22.97984375 -17.064375 22.655 -17.96484375 22.3203125 C-18.75890625 22.0315625 -19.55296875 21.7428125 -20.37109375 21.4453125 C-22.92161307 20.07488421 -24.0209883 18.82208719 -25.46484375 16.3203125 C-26.22515812 12.15349157 -25.8778376 8.37574122 -24.33984375 4.4453125 C-18.40520482 -2.28061162 -8.1503983 -2.24749494 0 0 Z " fill="#D8603D" transform="translate(497.46484375,10.6796875)"/>
<path d="M0 0 C0.86625 0.495 1.7325 0.99 2.625 1.5 C2.295 3.48 1.965 5.46 1.625 7.5 C0.696875 7.17 -0.23125 6.84 -1.1875 6.5 C-6.13026511 5.08489342 -11.27817038 4.94811399 -16.375 5.5 C-17.365 6.16 -18.355 6.82 -19.375 7.5 C-19.6252157 10.58365871 -19.6252157 10.58365871 -19.375 13.5 C-15.70613442 14.91110215 -12.08088578 16.2893147 -8.3125 17.4140625 C-0.13276197 19.88001294 -0.13276197 19.88001294 3.375 22.75 C5.04432273 26.42251001 5.36222261 29.58350487 4.625 33.5 C2.80864983 37.51110663 0.98742291 39.63958315 -3 41.375 C-10.94282153 43.85528628 -17.92220124 42.89952224 -25.375 39.5 C-26.365 38.84 -27.355 38.18 -28.375 37.5 C-28 35.0625 -28 35.0625 -27.375 32.5 C-26.385 32.005 -26.385 32.005 -25.375 31.5 C-23.4921875 32.27734375 -23.4921875 32.27734375 -21.25 33.4375 C-15.13658279 36.28780706 -9.9377615 36.14069037 -3.375 34.5 C-3.375 32.19 -3.375 29.88 -3.375 27.5 C-4.05304687 27.25765625 -4.73109375 27.0153125 -5.4296875 26.765625 C-8.41634088 25.69009885 -11.39568171 24.59566869 -14.375 23.5 C-15.78652344 22.99726562 -15.78652344 22.99726562 -17.2265625 22.484375 C-18.10054687 22.15953125 -18.97453125 21.8346875 -19.875 21.5 C-20.6690625 21.21125 -21.463125 20.9225 -22.28125 20.625 C-24.8291007 19.25600559 -25.92432875 17.99334121 -27.375 15.5 C-28.1896635 11.76612561 -28.21262187 8.07220296 -26.390625 4.65234375 C-20.16719183 -3.16536397 -8.90617866 -3.85873449 0 0 Z " fill="#D8603D" transform="translate(653.375,11.5)"/>
<path d="M0 0 C1.71875 1.60546875 1.71875 1.60546875 3 3 C2.34 4.32 1.68 5.64 1 7 C-3 7 -3 7 -6.3125 5.5 C-10.30997147 3.87390991 -12.7314326 3.5343381 -17 4 C-20.25058324 5.41623241 -20.25058324 5.41623241 -23 7 C-23.66 7 -24.32 7 -25 7 C-27.97792378 12.75731931 -28.56661438 17.57150228 -28 24 C-26.27287818 28.18145284 -23.67892389 30.42475328 -20 33 C-15.82630222 34.39123259 -12.0231361 34.93230339 -7.90625 33.03515625 C-6.54985688 32.28357275 -5.21057782 31.49987131 -3.89453125 30.6796875 C-2 30 -2 30 0.23828125 30.8828125 C0.81964844 31.25148437 1.40101563 31.62015625 2 32 C2 33.32 2 34.64 2 36 C-4.6643085 41.30115449 -10.73644294 41.59681245 -19 41 C-25.1983674 39.92389455 -28.56916514 36.8598274 -32.5546875 32.1328125 C-36.64222901 26.10092692 -36.72743141 20.08094625 -36 13 C-34.26253935 6.74722246 -30.31460232 2.55867644 -25 -1 C-17.0691255 -4.96543725 -7.73409215 -3.72893729 0 0 Z " fill="#D8603D" transform="translate(628,62)"/>
<path d="M0 0 C4 1 4 1 5.64746094 3.13305664 C6.17114258 4.04949951 6.69482422 4.96594238 7.234375 5.91015625 C8.09482422 7.39418945 8.09482422 7.39418945 8.97265625 8.90820312 C9.55917969 9.94912109 10.14570313 10.99003906 10.75 12.0625 C11.35199219 13.10728516 11.95398438 14.15207031 12.57421875 15.22851562 C14.06100665 17.8126946 15.53558411 20.40309827 17 23 C21.24600008 18.08564805 24.19444762 12.56017937 27.2890625 6.88671875 C27.70929687 6.14550781 28.12953125 5.40429688 28.5625 4.640625 C28.93503906 3.96547852 29.30757812 3.29033203 29.69140625 2.59472656 C31 1 31 1 35 0 C35 11.55 35 23.1 35 35 C33.68 35 32.36 35 31 35 C30.505 23.615 30.505 23.615 30 12 C26.50258245 18.24602602 26.50258245 18.24602602 23.0300293 24.50585938 C22.59086182 25.27736328 22.15169434 26.04886719 21.69921875 26.84375 C21.25408936 27.63974609 20.80895996 28.43574219 20.3503418 29.25585938 C19.904729 29.83142578 19.45911621 30.40699219 19 31 C18.01 31 17.02 31 16 31 C14.6496582 29.25585938 14.6496582 29.25585938 13.30078125 26.84375 C12.86161377 26.07224609 12.42244629 25.30074219 11.9699707 24.50585938 C11.42300537 23.51392578 10.87604004 22.52199219 10.3125 21.5 C8.559375 18.365 6.80625 15.23 5 12 C4.67 19.59 4.34 27.18 4 35 C2.68 35 1.36 35 0 35 C0 23.45 0 11.9 0 0 Z " fill="#FFFFFF" transform="translate(0,126)"/>
<path d="M0 0 C11.88 0 23.76 0 36 0 C36 1.98 36 3.96 36 6 C31.05 6 26.1 6 21 6 C21 18.21 21 30.42 21 43 C18.69 43 16.38 43 14 43 C14 30.79 14 18.58 14 6 C9.38 6 4.76 6 0 6 C0 4.02 0 2.04 0 0 Z " fill="#D7603D" transform="translate(469,59)"/>
<path d="M0 0 C0.33 -0.66 0.66 -1.32 1 -2 C2.65 -2 4.3 -2 6 -2 C6.05859888 1.83326795 6.09379643 5.66641888 6.125 9.5 C6.14175781 10.57765625 6.15851563 11.6553125 6.17578125 12.765625 C6.2655011 27.4796798 6.2655011 27.4796798 1.77734375 32.47265625 C-3.22149296 35.2216649 -8.45803794 34.60419887 -14 34 C-16.406806 33.24517733 -17.90710094 32.43513078 -20 31 C-19.34 29.68 -18.68 28.36 -18 27 C-17.03900391 27.35964844 -17.03900391 27.35964844 -16.05859375 27.7265625 C-10.14992406 29.80661063 -10.14992406 29.80661063 -4 29.625 C-0.63813109 28.21904073 -0.63813109 28.21904073 0.4375 24.375 C0.623125 23.26125 0.80875 22.1475 1 21 C-0.2065625 21.7734375 -0.2065625 21.7734375 -1.4375 22.5625 C-5.98772825 24.39855702 -9.31256529 24.39785999 -14 23 C-17.00434566 21.20365166 -19.40783628 19.18432744 -21 16 C-21.41469181 11.49421399 -21.48490344 7.34061539 -19.9375 3.0625 C-14.62021709 -2.59783342 -6.88865953 -3.44432976 0 0 Z M-16 6 C-17.42662219 8.85324437 -17.31033868 10.83454549 -17 14 C-15.46062034 16.88633687 -14.26762128 18.51183095 -11.1640625 19.70703125 C-8.18421898 20.31784209 -5.97765976 20.41457724 -3.1484375 19.21484375 C-0.78043121 17.5594839 0.78132856 15.85113652 1.5078125 13.0234375 C1.707627 9.46673942 1.29701922 7.38612498 -0.875 4.5625 C-6.52560956 0.40764003 -11.02246263 1.16467799 -16 6 Z " fill="#FFFFFF" transform="translate(151,136)"/>
<path d="M0 0 C0.99 0.66 1.98 1.32 3 2 C3.33 1.01 3.66 0.02 4 -1 C5.32 -1 6.64 -1 8 -1 C8.08760181 3.18736668 8.14059435 7.37449531 8.1875 11.5625 C8.21263672 12.74392578 8.23777344 13.92535156 8.26367188 15.14257812 C8.37498807 28.38920491 8.37498807 28.38920491 3.2109375 33.9140625 C-1.78899687 36.36986065 -8.93353237 35.95449976 -14.18359375 34.3203125 C-15.8125 33.5 -15.8125 33.5 -18 32 C-17.34 30.68 -16.68 29.36 -16 28 C-15.03900391 28.35964844 -15.03900391 28.35964844 -14.05859375 28.7265625 C-8.17819685 30.7421978 -4.78928306 31.39122561 1 29 C1.33 27.02 1.66 25.04 2 23 C1.0409375 23.5259375 1.0409375 23.5259375 0.0625 24.0625 C-4.18014052 25.36126751 -7.7304496 25.18556936 -12 24 C-15.00746606 22.21177693 -17.40913688 20.18172624 -19 17 C-19.51037087 12.94619711 -19.89274541 8.8225342 -18.05859375 5.078125 C-13.02003437 -1.30299722 -7.47447621 -1.73564616 0 0 Z M-13 6 C-15.34168764 9.51253146 -15.49623677 10.86469356 -15 15 C-13.45017237 17.9059268 -12.30843616 19.58709187 -9.09375 20.6015625 C-6.11903623 21.07884866 -3.63638618 21.13759701 -0.6875 20.5 C2.13706407 17.98927638 2.99446122 15.60810973 4 12 C2.97356645 8.3169149 2.20225117 5.9217259 -0.875 3.5625 C-5.89072886 2.23480707 -8.79929487 2.93462058 -13 6 Z " fill="#FFFFFF" transform="translate(604,135)"/>
<path d="M0 0 C2.31 0 4.62 0 7 0 C7 12.21 7 24.42 7 37 C14.26 37 21.52 37 29 37 C29.33 38.65 29.66 40.3 30 42 C29 43 29 43 26.22436523 43.11352539 C25.01466064 43.10828857 23.80495605 43.10305176 22.55859375 43.09765625 C21.38353271 43.09515869 20.20847168 43.09266113 18.99780273 43.09008789 C17.49290283 43.08098389 15.98800293 43.07187988 14.4375 43.0625 C9.673125 43.041875 4.90875 43.02125 0 43 C0 28.81 0 14.62 0 0 Z " fill="#D75F3D" transform="translate(555,11)"/>
<path d="M0 0 C1.32 0 2.64 0 4 0 C4.33 0.99 4.66 1.98 5 3 C5.9590625 2.2265625 5.9590625 2.2265625 6.9375 1.4375 C11.2018765 -0.56414611 14.51514273 -0.30841179 19 1 C22.51039048 3.02887433 24.6902463 5.07073891 26 9 C26.3997385 13.53549454 26.51480011 17.65579971 24.875 21.9375 C21.5259464 25.62145896 18.34841842 26.85806122 13.4375 27.375 C10 27 10 27 5 24 C4.67 27.96 4.34 31.92 4 36 C2.68 36 1.36 36 0 36 C0 24.12 0 12.24 0 0 Z M6 7 C3.67597049 10.20937409 3.52429309 13.11506021 4 17 C5.79993774 19.69990662 7.083773 21.5418865 10 23 C13.87214182 23.43023798 15.52496371 23.31669086 18.8125 21.125 C21.60921179 18.40819426 21.94303123 17.60386898 22.3125 13.6875 C21.94344069 9.3326001 21.27921697 7.85880454 18 5 C12.96626213 3.53563989 10.08083426 3.61873733 6 7 Z " fill="#FFFFFF" transform="translate(699,134)"/>
<path d="M0 0 C0.99 0.495 1.98 0.99 3 1.5 C2.67 2.82 2.34 4.14 2 5.5 C1.154375 5.17 0.30875 4.84 -0.5625 4.5 C-5.30733248 3.1196851 -9.29698083 2.93232694 -14 4.5 C-14.33 6.48 -14.66 8.46 -15 10.5 C-10.31477996 13.03255137 -5.58062797 14.67856237 -0.48828125 16.2421875 C2.63677918 17.82188838 3.56462125 19.34505676 5 22.5 C4.92946278 25.956324 4.4160576 27.8759136 2.5 30.75 C-1.77005314 33.73903719 -6.28690246 34.78199124 -11.48046875 34.2421875 C-15.26506475 33.46427707 -17.74367629 32.67088248 -21 30.5 C-20.67 29.18 -20.34 27.86 -20 26.5 C-19.35933594 26.72816406 -18.71867188 26.95632812 -18.05859375 27.19140625 C-11.90997389 29.23483729 -7.06586831 30.53293416 -1 27.5 C-0.58219121 25.12694422 -0.58219121 25.12694422 -1 22.5 C-3.99542794 19.90396245 -7.3177933 19.09685769 -11.0625 18.0625 C-15.01548833 16.92719234 -17.609681 16.03351504 -20 12.5 C-21.31349232 9.17248613 -21.09791048 7.78797199 -19.9375 4.375 C-15.22273552 -2.62110213 -7.28974738 -3.0926201 0 0 Z " fill="#FFFFFF" transform="translate(223,126.5)"/>
<path d="M0 0 C2.5625 3 2.5625 3 3.5625 12 C-3.3675 12 -10.2975 12 -17.4375 12 C-14.30574314 17.77260299 -14.30574314 17.77260299 -11.4375 19 C-6.88202917 19.25785684 -3.5594364 18.99851462 0.5625 17 C1.2225 17.99 1.8825 18.98 2.5625 20 C-1.65608808 23.34577675 -4.91201952 24.35545195 -10.375 24.28515625 C-14.54133663 23.70912865 -17.33119349 21.21984155 -20.07421875 18.1953125 C-22.60306152 14.12307859 -22.15190533 9.61358956 -21.4375 5 C-19.78236755 1.54669897 -17.37389426 -0.41791708 -14.125 -2.4375 C-8.563691 -3.60149491 -4.79008047 -2.78695591 0 0 Z M-16.4375 5 C-16.7675 6.32 -17.0975 7.64 -17.4375 9 C-11.8275 9 -6.2175 9 -0.4375 9 C-1.7176185 3.27736478 -1.7176185 3.27736478 -4.25 1.625 C-9.70705588 0.06584118 -12.38982194 0.95232194 -16.4375 5 Z " fill="#FFFFFF" transform="translate(292.4375,137)"/>
<path d="M0 0 C2.5625 3 2.5625 3 3.5625 12 C-3.3675 12 -10.2975 12 -17.4375 12 C-14.30574314 17.77260299 -14.30574314 17.77260299 -11.4375 19 C-6.88202917 19.25785684 -3.5594364 18.99851462 0.5625 17 C1.2225 17.99 1.8825 18.98 2.5625 20 C-1.65608808 23.34577675 -4.91201952 24.35545195 -10.375 24.28515625 C-14.54133663 23.70912865 -17.33119349 21.21984155 -20.07421875 18.1953125 C-22.60306152 14.12307859 -22.15190533 9.61358956 -21.4375 5 C-19.78236755 1.54669897 -17.37389426 -0.41791708 -14.125 -2.4375 C-8.563691 -3.60149491 -4.79008047 -2.78695591 0 0 Z M-15.4375 3 C-16.0975 4.98 -16.7575 6.96 -17.4375 9 C-11.8275 9 -6.2175 9 -0.4375 9 C-2.34834527 3.80337504 -2.34834527 3.80337504 -6.4375 1 C-9.9683766 0.55864043 -12.57150969 0.82580045 -15.4375 3 Z " fill="#FFFFFF" transform="translate(183.4375,137)"/>
<path d="M0 0 C2.96260319 1.81189251 5.42159878 3.84319756 7 7 C7 9.31 7 11.62 7 14 C0.07 14 -6.86 14 -14 14 C-10.86824314 19.77260299 -10.86824314 19.77260299 -8 21 C-3.44452917 21.25785684 -0.1219364 20.99851462 4 19 C4.66 19.99 5.32 20.98 6 22 C1.78296464 25.34454529 -1.47476873 26.36158428 -6.9375 26.28125 C-11.3464176 25.68003396 -14.07887409 23.0746469 -16.875 19.8125 C-18.47283313 15.81791717 -18.57130943 12.24621873 -18 8 C-16.37522535 4.26301831 -14.44378693 2.15236683 -11 0 C-7.13681848 -1.28772717 -3.86897014 -1.08769161 0 0 Z M-13 7 C-13.33 8.32 -13.66 9.64 -14 11 C-8.39 11 -2.78 11 3 11 C1.7198815 5.27736478 1.7198815 5.27736478 -0.8125 3.625 C-6.26955588 2.06584118 -8.95232194 2.95232194 -13 7 Z " fill="#FFFFFF" transform="translate(636,135)"/>
<path d="M0 0 C2.45243461 1.90063682 3.62927427 3.25854855 5 6 C5.08372659 7.52148326 5.10730027 9.04655778 5.09765625 10.5703125 C5.09443359 11.46621094 5.09121094 12.36210937 5.08789062 13.28515625 C5.07951172 14.22230469 5.07113281 15.15945312 5.0625 16.125 C5.05798828 17.06988281 5.05347656 18.01476562 5.04882812 18.98828125 C5.03702357 21.32558387 5.02055759 23.66276061 5 26 C3.68 26 2.36 26 1 26 C0.67 25.34 0.34 24.68 0 24 C-0.495 24.33 -0.99 24.66 -1.5 25 C-5.01890765 26.40756306 -8.29661053 26.57200867 -12 26 C-15 24.5 -15 24.5 -17 22 C-17.68470208 18.98852271 -17.45351444 17.1746011 -17 14 C-14.57064243 11.3367043 -13.16994188 11.01441815 -9.546875 10.70703125 C-8.29390625 10.74183594 -7.0409375 10.77664062 -5.75 10.8125 C-4.48671875 10.83957031 -3.2234375 10.86664063 -1.921875 10.89453125 C-0.95765625 10.92933594 0.0065625 10.96414062 1 11 C-0.6327851 7.25332798 -0.6327851 7.25332798 -3 4 C-5.0409505 4.06478516 -5.0409505 4.06478516 -7.375 4.375 C-8.16648437 4.46523437 -8.95796875 4.55546875 -9.7734375 4.6484375 C-12.16418493 4.96339554 -12.16418493 4.96339554 -15 6 C-15.66 5.01 -16.32 4.02 -17 3 C-11.62669509 -1.41378618 -6.64759722 -1.61301991 0 0 Z M-13 16 C-12.71016731 19.30683466 -12.71016731 19.30683466 -11 22 C-8.07064097 22.28813367 -5.84852901 22.50333231 -3 22 C-0.40005897 19.834795 -0.40005897 19.834795 1 17 C1 16.01 1 15.02 1 14 C-0.95803507 13.94610913 -2.91648909 13.90725783 -4.875 13.875 C-5.96554688 13.85179687 -7.05609375 13.82859375 -8.1796875 13.8046875 C-11.1371051 13.69939466 -11.1371051 13.69939466 -13 16 Z " fill="#FFFFFF" transform="translate(119,135)"/>
<path d="M0 0 C2.62254962 2.84109542 2.62108626 5.61445657 2.59765625 9.29296875 C2.59443359 10.18564453 2.59121094 11.07832031 2.58789062 11.99804688 C2.57951172 12.92681641 2.57113281 13.85558594 2.5625 14.8125 C2.55798828 15.75287109 2.55347656 16.69324219 2.54882812 17.66210938 C2.53704626 19.98313712 2.52059558 22.30403644 2.5 24.625 C1.18 24.625 -0.14 24.625 -1.5 24.625 C-1.83 23.965 -2.16 23.305 -2.5 22.625 C-3.015625 22.955 -3.53125 23.285 -4.0625 23.625 C-7.39310774 24.99140318 -9.92646082 24.93846835 -13.5 24.625 C-15.81279611 23.46860194 -17.67409828 22.45090172 -19.5 20.625 C-20.08265526 14.4488542 -20.08265526 14.4488542 -17.93359375 11.41015625 C-14.59739521 8.96289665 -12.33881375 9.22356245 -8.25 9.375 C-6.98671875 9.41109375 -5.7234375 9.4471875 -4.421875 9.484375 C-2.97554687 9.55398437 -2.97554687 9.55398437 -1.5 9.625 C-3.1327851 5.87832798 -3.1327851 5.87832798 -5.5 2.625 C-7.5409505 2.68978516 -7.5409505 2.68978516 -9.875 3 C-10.66648438 3.09023437 -11.45796875 3.18046875 -12.2734375 3.2734375 C-14.66418493 3.58839554 -14.66418493 3.58839554 -17.5 4.625 C-18.16 3.635 -18.82 2.645 -19.5 1.625 C-13.72797556 -3.11630579 -6.62945697 -3.64620134 0 0 Z M-15.5 14.625 C-15.21016731 17.93183466 -15.21016731 17.93183466 -13.5 20.625 C-10.57064097 20.91313367 -8.34852901 21.12833231 -5.5 20.625 C-2.90005897 18.459795 -2.90005897 18.459795 -1.5 15.625 C-1.5 14.635 -1.5 13.645 -1.5 12.625 C-3.45803507 12.57110913 -5.41648909 12.53225783 -7.375 12.5 C-8.46554688 12.47679687 -9.55609375 12.45359375 -10.6796875 12.4296875 C-13.6371051 12.32439466 -13.6371051 12.32439466 -15.5 14.625 Z " fill="#FFFFFF" transform="translate(251.5,136.375)"/>
<path d="M0 0 C2.62254962 2.84109542 2.62108626 5.61445657 2.59765625 9.29296875 C2.59443359 10.18564453 2.59121094 11.07832031 2.58789062 11.99804688 C2.57951172 12.92681641 2.57113281 13.85558594 2.5625 14.8125 C2.55798828 15.75287109 2.55347656 16.69324219 2.54882812 17.66210938 C2.53704626 19.98313712 2.52059558 22.30403644 2.5 24.625 C1.18 24.625 -0.14 24.625 -1.5 24.625 C-1.83 23.965 -2.16 23.305 -2.5 22.625 C-3.015625 22.955 -3.53125 23.285 -4.0625 23.625 C-7.39310774 24.99140318 -9.92646082 24.93846835 -13.5 24.625 C-15.81279611 23.46860194 -17.67409828 22.45090172 -19.5 20.625 C-20.08265526 14.4488542 -20.08265526 14.4488542 -17.93359375 11.41015625 C-14.59739521 8.96289665 -12.33881375 9.22356245 -8.25 9.375 C-6.98671875 9.41109375 -5.7234375 9.4471875 -4.421875 9.484375 C-2.97554688 9.55398437 -2.97554688 9.55398437 -1.5 9.625 C-3.1327851 5.87832798 -3.1327851 5.87832798 -5.5 2.625 C-7.5409505 2.68978516 -7.5409505 2.68978516 -9.875 3 C-10.66648437 3.09023437 -11.45796875 3.18046875 -12.2734375 3.2734375 C-14.66418493 3.58839554 -14.66418493 3.58839554 -17.5 4.625 C-18.16 3.635 -18.82 2.645 -19.5 1.625 C-13.72797556 -3.11630579 -6.62945697 -3.64620134 0 0 Z M-15.5 14.625 C-15.21016731 17.93183466 -15.21016731 17.93183466 -13.5 20.625 C-7.87518913 21.20944555 -7.87518913 21.20944555 -3 18.875 C-1.13019987 16.52099371 -1.13019987 16.52099371 -1.5 12.625 C-3.45803507 12.57110913 -5.41648909 12.53225783 -7.375 12.5 C-8.46554687 12.47679687 -9.55609375 12.45359375 -10.6796875 12.4296875 C-13.6371051 12.32439466 -13.6371051 12.32439466 -15.5 14.625 Z " fill="#FFFFFF" transform="translate(354.5,136.375)"/>
<path d="M0 0 C2.99452434 2.24589325 3.81623122 3.44869367 5 7 C5.0806622 8.48123547 5.10761193 9.96582204 5.09765625 11.44921875 C5.09443359 12.29677734 5.09121094 13.14433594 5.08789062 14.01757812 C5.07951172 14.89865234 5.07113281 15.77972656 5.0625 16.6875 C5.05798828 17.58017578 5.05347656 18.47285156 5.04882812 19.39257812 C5.03704983 21.59511987 5.02060164 23.79752599 5 26 C3.68 26 2.36 26 1 26 C0.67 25.34 0.34 24.68 0 24 C-0.515625 24.33 -1.03125 24.66 -1.5625 25 C-4.89310774 26.36640318 -7.42646082 26.31346835 -11 26 C-13.31279611 24.84360194 -15.17409828 23.82590172 -17 22 C-17.46740995 16.20411664 -17.46740995 16.20411664 -17 14 C-14.5921564 11.31594491 -13.16482281 11.01398384 -9.546875 10.70703125 C-8.29390625 10.74183594 -7.0409375 10.77664062 -5.75 10.8125 C-4.48671875 10.83957031 -3.2234375 10.86664063 -1.921875 10.89453125 C-0.95765625 10.92933594 0.0065625 10.96414062 1 11 C-0.6327851 7.25332798 -0.6327851 7.25332798 -3 4 C-7.54950416 3.73752861 -10.88439805 4.00455663 -15 6 C-15.66 5.01 -16.32 4.02 -17 3 C-11.62020189 -1.41911988 -6.65407084 -1.60235897 0 0 Z M-13 16 C-12.71016731 19.30683466 -12.71016731 19.30683466 -11 22 C-8.07064097 22.28813367 -5.84852901 22.50333231 -3 22 C-0.40005897 19.834795 -0.40005897 19.834795 1 17 C1 16.01 1 15.02 1 14 C-0.95803507 13.94610913 -2.91648909 13.90725783 -4.875 13.875 C-5.96554688 13.85179687 -7.05609375 13.82859375 -8.1796875 13.8046875 C-11.1371051 13.69939466 -11.1371051 13.69939466 -13 16 Z " fill="#FFFFFF" transform="translate(60,135)"/>
<path d="M0 0 C3.01177693 1.77713546 5.4108136 3.8216272 7 7 C7.60110663 11.58819366 8.04707002 16.09473018 5.765625 20.24609375 C3.29081174 23.19259171 1.70068835 24.76643722 -2 26 C-8.47391355 26.41767184 -11.72435709 25.80769392 -16.75 21.5 C-19.52355565 18.17173322 -19.27207077 14.32444909 -19.21875 10.21875 C-18.81606154 6.13433844 -17.00707473 3.88119039 -14 1.25 C-9.38842446 -1.63223471 -5.10866504 -1.29674803 0 0 Z M-14 7 C-14.98006353 10.05415148 -15.30751206 12.80529137 -15 16 C-13.23496686 18.92143417 -12.04152365 20.47923817 -9 22 C-5.12785818 22.43023798 -3.47503629 22.31669086 -0.1875 20.125 C2.60921179 17.40819426 2.94303123 16.60386898 3.3125 12.6875 C2.95124058 8.42463889 1.98007946 6.98007946 -1 4 C-6.12834078 1.43582961 -10.40691029 2.79095205 -14 7 Z " fill="#FFFFFF" transform="translate(439,135)"/>
<path d="M0 0 C7.92 0 15.84 0 24 0 C24 1.32 24 2.64 24 4 C17.4 4 10.8 4 4 4 C4 8.29 4 12.58 4 17 C9.94 17 15.88 17 22 17 C22 18.32 22 19.64 22 21 C16.06 21 10.12 21 4 21 C4 25.62 4 30.24 4 35 C2.68 35 1.36 35 0 35 C0 23.45 0 11.9 0 0 Z " fill="#FFFFFF" transform="translate(515,126)"/>
<path d="M0 0 C1.32 0 2.64 0 4 0 C4.02578125 1.25296875 4.0515625 2.5059375 4.078125 3.796875 C4.13441169 5.44795123 4.1917589 7.09899155 4.25 8.75 C4.26417969 9.575 4.27835937 10.4 4.29296875 11.25 C4.44913119 15.12282841 4.54612997 17.35620581 6.8203125 20.58203125 C9.07318795 22.33697522 9.07318795 22.33697522 12.625 21.9375 C16.25516924 21.3249155 16.25516924 21.3249155 18 18 C18.36351504 15.97457852 18.36351504 15.97457852 18.4140625 13.76953125 C18.45273437 12.96708984 18.49140625 12.16464844 18.53125 11.33789062 C18.57765625 10.08782227 18.57765625 10.08782227 18.625 8.8125 C18.66367187 7.96751953 18.70234375 7.12253906 18.7421875 6.25195312 C18.83636279 4.16832476 18.91926675 2.08419247 19 0 C20.65 0 22.3 0 24 0 C24 8.58 24 17.16 24 26 C22.68 26 21.36 26 20 26 C19.67 25.34 19.34 24.68 19 24 C18.175 24.515625 17.35 25.03125 16.5 25.5625 C12.39534709 27.24833959 9.17236647 27.67216229 5 26 C2.2734375 24.11328125 2.2734375 24.11328125 0 21 C-0.60570964 17.37467703 -0.47237797 13.84993532 -0.3125 10.1875 C-0.28994141 9.20845703 -0.26738281 8.22941406 -0.24414062 7.22070312 C-0.18539727 4.81222545 -0.10332129 2.40690922 0 0 Z " fill="#FFFFFF" transform="translate(452,134)"/>
<path d="M0 0 C1.32 0 2.64 0 4 0 C4.33 0.66 4.66 1.32 5 2 C5.639375 1.649375 6.27875 1.29875 6.9375 0.9375 C11.14779203 -0.35136491 14.75307724 -0.11928245 19 1 C21.45243461 2.90063682 22.62927427 4.25854855 24 7 C24.08372659 8.52148326 24.10730027 10.04655778 24.09765625 11.5703125 C24.09443359 12.46621094 24.09121094 13.36210937 24.08789062 14.28515625 C24.07951172 15.22230469 24.07113281 16.15945312 24.0625 17.125 C24.05798828 18.06988281 24.05347656 19.01476562 24.04882812 19.98828125 C24.03702357 22.32558387 24.02055759 24.66276061 24 27 C22.68 27 21.36 27 20 27 C19.95101562 25.81921875 19.90203125 24.6384375 19.8515625 23.421875 C19.77651121 21.86456063 19.70096439 20.30727009 19.625 18.75 C19.5940625 17.97269531 19.563125 17.19539063 19.53125 16.39453125 C19.37313792 10.85925108 19.37313792 10.85925108 17 6 C13.08355188 5.05715138 9.83576122 4.61912596 6 6 C5.24722485 8.73249341 4.83358297 11.28100683 4.68359375 14.109375 C4.64169922 14.86347656 4.59980469 15.61757812 4.55664062 16.39453125 C4.49766602 17.56048828 4.49766602 17.56048828 4.4375 18.75 C4.39431641 19.54277344 4.35113281 20.33554688 4.30664062 21.15234375 C4.20097009 23.10137815 4.10002034 25.05066748 4 27 C2.68 27 1.36 27 0 27 C0 18.09 0 9.18 0 0 Z " fill="#FFFFFF" transform="translate(556,134)"/>
<path d="M0 0 C1.32 0 2.64 0 4 0 C4.33 0.66 4.66 1.32 5 2 C5.639375 1.649375 6.27875 1.29875 6.9375 0.9375 C11.15182635 -0.3525999 14.7485268 -0.11253504 19 1 C21.99452434 3.24589325 22.81623122 4.44869367 24 8 C24.0806622 9.48123547 24.10761193 10.96582204 24.09765625 12.44921875 C24.09443359 13.29677734 24.09121094 14.14433594 24.08789062 15.01757812 C24.07951172 15.89865234 24.07113281 16.77972656 24.0625 17.6875 C24.05798828 18.58017578 24.05347656 19.47285156 24.04882812 20.39257812 C24.03704983 22.59511987 24.02060164 24.79752599 24 27 C22.68 27 21.36 27 20 27 C19.95101562 25.90300781 19.90203125 24.80601562 19.8515625 23.67578125 C19.77649409 22.22133075 19.70094803 20.76690484 19.625 19.3125 C19.5940625 18.59126953 19.563125 17.87003906 19.53125 17.12695312 C19.30664413 13.02789606 18.82259091 9.75631541 17 6 C11.44506076 4.97296252 11.44506076 4.97296252 6 6 C5.24722485 8.73249341 4.83358297 11.28100683 4.68359375 14.109375 C4.64169922 14.86347656 4.59980469 15.61757812 4.55664062 16.39453125 C4.49766602 17.56048828 4.49766602 17.56048828 4.4375 18.75 C4.39431641 19.54277344 4.35113281 20.33554688 4.30664062 21.15234375 C4.20097009 23.10137815 4.10002034 25.05066748 4 27 C2.68 27 1.36 27 0 27 C0 18.09 0 9.18 0 0 Z " fill="#FFFFFF" transform="translate(73,134)"/>
<path d="M0 0 C2.16796875 -0.00390625 2.16796875 -0.00390625 5 1 C7.11557967 3.47978073 8.68810974 6.24448371 10.3125 9.0625 C10.76689453 9.82111328 11.22128906 10.57972656 11.68945312 11.36132812 C12.80764604 13.23282995 13.91015891 15.11189393 15 17 C18.58218504 12.70451334 21.33497364 8.16343321 24.12109375 3.328125 C26 1 26 1 28.72265625 0.171875 C29.47417969 0.11515625 30.22570312 0.0584375 31 0 C29.90658249 3.19902724 28.47625585 5.9255136 26.65234375 8.75 C20.95357896 17.61717792 17.35944755 24.16712772 18 35 C16.35 35 14.7 35 13 35 C13.06703125 34.29359375 13.1340625 33.5871875 13.203125 32.859375 C13.37782826 21.2707256 7.31964818 13.20913945 1.08569336 3.85668945 C0 2 0 2 0 0 Z " fill="#FFFFFF" transform="translate(391,126)"/>
<path d="M0 0 C0.87785156 0.09023437 1.75570313 0.18046875 2.66015625 0.2734375 C4.9375 0.625 4.9375 0.625 6.9375 1.625 C6.6075 2.945 6.2775 4.265 5.9375 5.625 C5.421875 5.46 4.90625 5.295 4.375 5.125 C0.55099155 4.34058801 -3.50541427 3.84645713 -7.0625 5.625 C-7.07123547 7.5911537 -7.07123547 7.5911537 -6.0625 9.625 C-3.09112981 10.92446915 -3.09112981 10.92446915 0.4375 11.75 C2.61832401 12.32365153 4.78970713 12.93793723 6.9375 13.625 C8.46241998 16.67483996 8.17312548 19.2673369 7.9375 22.625 C6.10634793 25.24093153 5.02781634 25.59489455 1.9375 26.625 C-3.84736795 27.1979774 -7.99822769 26.74147527 -13.0625 23.625 C-12.4025 22.305 -11.7425 20.985 -11.0625 19.625 C-10.4025 19.955 -9.7425 20.285 -9.0625 20.625 C-5.20188967 21.91187011 -2.12099717 21.76257618 1.9375 21.625 C2.2675 20.305 2.5975 18.985 2.9375 17.625 C2.02226562 17.35945313 1.10703125 17.09390625 0.1640625 16.8203125 C-1.02445312 16.46710938 -2.21296875 16.11390625 -3.4375 15.75 C-5.21253906 15.22792969 -5.21253906 15.22792969 -7.0234375 14.6953125 C-10.0625 13.625 -10.0625 13.625 -12.0625 11.625 C-12.34158135 8.69464581 -12.54617046 6.46874924 -12.0625 3.625 C-8.55492196 -0.12447998 -4.9112945 -0.53525154 0 0 Z " fill="#FFFFFF" transform="translate(312.0625,134.375)"/>
<path d="M0 0 C0.87785156 0.09023437 1.75570312 0.18046875 2.66015625 0.2734375 C4.9375 0.625 4.9375 0.625 6.9375 1.625 C6.6075 2.945 6.2775 4.265 5.9375 5.625 C5.421875 5.46 4.90625 5.295 4.375 5.125 C0.55099155 4.34058801 -3.50541427 3.84645713 -7.0625 5.625 C-7.07123547 7.5911537 -7.07123547 7.5911537 -6.0625 9.625 C-3.09112981 10.92446915 -3.09112981 10.92446915 0.4375 11.75 C2.61832401 12.32365153 4.78970713 12.93793723 6.9375 13.625 C8.46241998 16.67483996 8.17312548 19.2673369 7.9375 22.625 C6.10634793 25.24093153 5.02781634 25.59489455 1.9375 26.625 C-3.84736795 27.1979774 -7.99822769 26.74147527 -13.0625 23.625 C-12.4025 22.305 -11.7425 20.985 -11.0625 19.625 C-10.4025 19.955 -9.7425 20.285 -9.0625 20.625 C-5.20188967 21.91187011 -2.12099717 21.76257618 1.9375 21.625 C2.2675 20.305 2.5975 18.985 2.9375 17.625 C1.69033203 17.24408203 1.69033203 17.24408203 0.41796875 16.85546875 C-0.66871094 16.51128906 -1.75539063 16.16710937 -2.875 15.8125 C-4.49341797 15.30783203 -4.49341797 15.30783203 -6.14453125 14.79296875 C-8.90814072 13.68678504 -10.3168069 12.99244681 -12.0625 10.625 C-12.5 7.6875 -12.5 7.6875 -12.0625 4.625 C-8.53392691 0.12302744 -5.51692027 -0.60125493 0 0 Z " fill="#FFFFFF" transform="translate(740.0625,134.375)"/>
<path d="M0 0 C1.65 0 3.3 0 5 0 C5 1.98 5 3.96 5 6 C7.31 6 9.62 6 12 6 C12 6.99 12 7.98 12 9 C9.69 9 7.38 9 5 9 C5.33 14.94 5.66 20.88 6 27 C9.13349732 28.04449911 9.98968256 27.93423645 13 27 C13.33 28.32 13.66 29.64 14 31 C10.82459056 32.58770472 7.45809441 32.41100302 4 32 C1.82523599 30.45661909 1.18167363 29.36334727 0 27 C-0.08308638 25.62451844 -0.10736016 24.24514204 -0.09765625 22.8671875 C-0.09282227 21.65869141 -0.09282227 21.65869141 -0.08789062 20.42578125 C-0.07951172 19.58402344 -0.07113281 18.74226563 -0.0625 17.875 C-0.05798828 17.02550781 -0.05347656 16.17601562 -0.04882812 15.30078125 C-0.03702874 13.20049091 -0.01909306 11.1002367 0 9 C-1.32 9 -2.64 9 -4 9 C-4 8.01 -4 7.02 -4 6 C-2.68 6 -1.36 6 0 6 C0 4.02 0 2.04 0 0 Z " fill="#FFFFFF" transform="translate(668,128)"/>
<path d="M0 0 C1.32 0 2.64 0 4 0 C4 1.98 4 3.96 4 6 C6.64 6 9.28 6 12 6 C12 6.99 12 7.98 12 9 C9.36 9 6.72 9 4 9 C4.08695958 11.60578866 4.19381408 14.2081279 4.3125 16.8125 C4.33505859 17.55048828 4.35761719 18.28847656 4.38085938 19.04882812 C4.57802607 23.28217982 4.57802607 23.28217982 6.375 27.03125 C8.07413059 28.26732603 8.07413059 28.26732603 10.6875 27.6875 C11.450625 27.460625 12.21375 27.23375 13 27 C13.33 28.32 13.66 29.64 14 31 C10.82459056 32.58770472 7.45809441 32.41100302 4 32 C1.82523599 30.45661909 1.18167363 29.36334727 0 27 C-0.08308638 25.62451844 -0.10736016 24.24514204 -0.09765625 22.8671875 C-0.09282227 21.65869141 -0.09282227 21.65869141 -0.08789062 20.42578125 C-0.07951172 19.58402344 -0.07113281 18.74226563 -0.0625 17.875 C-0.05798828 17.02550781 -0.05347656 16.17601562 -0.04882812 15.30078125 C-0.03702874 13.20049091 -0.01909306 11.1002367 0 9 C-1.32 9 -2.64 9 -4 9 C-4 8.01 -4 7.02 -4 6 C-2.68 6 -1.36 6 0 6 C0 4.02 0 2.04 0 0 Z " fill="#FFFFFF" transform="translate(365,128)"/>
<path d="M0 0 C1.32 0 2.64 0 4 0 C4.33 0.66 4.66 1.32 5 2 C6.1446875 1.505 6.1446875 1.505 7.3125 1 C10 0 10 0 13 0 C13 1.32 13 2.64 13 4 C12.05125 4.433125 11.1025 4.86625 10.125 5.3125 C6.79958063 6.79302201 6.79958063 6.79302201 5 10 C4.6373883 11.92744369 4.6373883 11.92744369 4.5859375 14.01171875 C4.54726563 14.76904297 4.50859375 15.52636719 4.46875 16.30664062 C4.4378125 17.09232422 4.406875 17.87800781 4.375 18.6875 C4.33632813 19.48478516 4.29765625 20.28207031 4.2578125 21.10351562 C4.16367506 23.06863475 4.08075368 25.0342854 4 27 C2.68 27 1.36 27 0 27 C0 18.09 0 9.18 0 0 Z " fill="#FFFFFF" transform="translate(649,134)"/>
<path d="M0 0 C1.32 0 2.64 0 4 0 C4.33 0.66 4.66 1.32 5 2 C6.1446875 1.505 6.1446875 1.505 7.3125 1 C10 0 10 0 13 0 C13 1.32 13 2.64 13 4 C12.05125 4.433125 11.1025 4.86625 10.125 5.3125 C6.79958063 6.79302201 6.79958063 6.79302201 5 10 C4.6373883 11.92744369 4.6373883 11.92744369 4.5859375 14.01171875 C4.54726563 14.76904297 4.50859375 15.52636719 4.46875 16.30664062 C4.4378125 17.09232422 4.406875 17.87800781 4.375 18.6875 C4.33632813 19.48478516 4.29765625 20.28207031 4.2578125 21.10351562 C4.16367506 23.06863475 4.08075368 25.0342854 4 27 C2.68 27 1.36 27 0 27 C0 18.09 0 9.18 0 0 Z " fill="#FFFFFF" transform="translate(483,134)"/>
<path d="M0 0 C1.32 0 2.64 0 4 0 C4 12.21 4 24.42 4 37 C2.68 37 1.36 37 0 37 C0 24.79 0 12.58 0 0 Z " fill="#FFFFFF" transform="translate(262,123)"/>
<path d="M0 0 C1.65 0 3.3 0 5 0 C5 8.58 5 17.16 5 26 C3.35 26 1.7 26 0 26 C0 17.42 0 8.84 0 0 Z " fill="#FFFFFF" transform="translate(686,134)"/>
<path d="M0 0 C1.65 0 3.3 0 5 0 C5 8.58 5 17.16 5 26 C3.35 26 1.7 26 0 26 C0 17.42 0 8.84 0 0 Z " fill="#FFFFFF" transform="translate(543,134)"/>
<path d="M0 0 C2.0625 0.4375 2.0625 0.4375 4 1 C4 2.32 4 3.64 4 5 C2.68 5.33 1.36 5.66 0 6 C-0.38218767 4.34385343 -0.71395102 2.67542976 -1 1 C-0.67 0.67 -0.34 0.34 0 0 Z " fill="#FFFFFF" transform="translate(687,123)"/>
<path d="M0 0 C2.0625 0.4375 2.0625 0.4375 4 1 C4 2.32 4 3.64 4 5 C2.68 5.33 1.36 5.66 0 6 C-0.38218767 4.34385343 -0.71395102 2.67542976 -1 1 C-0.67 0.67 -0.34 0.34 0 0 Z " fill="#FFFFFF" transform="translate(544,123)"/>
</svg>
