<?xml version="1.0" encoding="UTF-8"?>
<svg version="1.1" xmlns="http://www.w3.org/2000/svg" width="300" height="300">
<path d="M0 0 C2.4375 0.8125 2.4375 0.8125 5.4375 2.8125 C6.39453125 5.0546875 6.39453125 5.0546875 7.25 7.6875 C9.0878842 12.60489246 10.98928954 13.99832603 15.4375 16.8125 C19.68347897 22.51567886 21.7874581 29.29244299 23.93359375 35.9921875 C25.86526584 39.61469984 27.7901255 40.05386433 31.4375 41.8125 C33.50104123 43.82920034 35.14606846 46.08788609 36.8125 48.4375 C37.28510254 49.09556641 37.75770508 49.75363281 38.24462891 50.43164062 C46.34093072 62.08154767 51.4946979 75.25347446 55.4375 88.8125 C55.73398438 89.81925781 56.03046875 90.82601562 56.3359375 91.86328125 C61.90526944 113.12048384 61.11049542 136.32608084 62.05342102 158.15779114 C62.34569702 164.87351842 62.66855982 171.58727414 63.0078125 178.30078125 C63.10160636 180.17740666 63.19535689 182.05403424 63.2890625 183.93066406 C63.42285948 186.60767111 63.55778878 189.28458632 63.69726562 191.96130371 C64.30155445 203.58991759 64.54757427 215.16821488 64.4375 226.8125 C65.6440625 226.998125 65.6440625 226.998125 66.875 227.1875 C67.720625 227.39375 68.56625 227.6 69.4375 227.8125 C71.03238768 231.00227536 70.60051154 234.45755829 70.60546875 237.9609375 C70.60879715 238.76987457 70.61212555 239.57881165 70.61555481 240.41226196 C70.62062186 242.12542146 70.6229632 243.83859083 70.62280273 245.55175781 C70.62498548 248.17008808 70.64313294 250.78799453 70.66210938 253.40625 C70.6650441 255.07031106 70.66702837 256.73437412 70.66796875 258.3984375 C70.67515427 259.18084808 70.68233978 259.96325867 70.68974304 260.76937866 C70.67371147 264.59412822 70.60366044 267.57264943 68.4375 270.8125 C67.7775 270.8125 67.1175 270.8125 66.4375 270.8125 C66.6025 271.555 66.7675 272.2975 66.9375 273.0625 C67.63804587 278.31659401 67.51457499 283.52001749 67.4375 288.8125 C57.41832917 289.96226404 47.38449367 290.15085217 37.3125 290.375 C35.95742844 290.40626984 35.95742844 290.40626984 34.57498169 290.43817139 C10.05737416 290.99680383 -14.42055542 290.95576415 -38.9375 290.375 C-39.79248077 290.3554425 -40.64746155 290.33588501 -41.52835083 290.31573486 C-50.57338522 290.10296712 -59.56432301 289.83473505 -68.5625 288.8125 C-68.52769531 287.62011719 -68.49289063 286.42773438 -68.45703125 285.19921875 C-68.42889247 283.63282658 -68.4015924 282.06641919 -68.375 280.5 C-68.34986328 279.71431641 -68.32472656 278.92863281 -68.29882812 278.11914062 C-68.28916016 277.36181641 -68.27949219 276.60449219 -68.26953125 275.82421875 C-68.2538208 275.12772217 -68.23811035 274.43122559 -68.22192383 273.71362305 C-68.38462413 271.69670581 -68.38462413 271.69670581 -70.06051636 270.44247437 C-72.71437747 267.56246591 -71.96598888 263.56468845 -71.92578125 259.83984375 C-71.92627975 258.96099014 -71.92677826 258.08213654 -71.92729187 257.176651 C-71.92495218 255.31981137 -71.9152298 253.46296853 -71.89868164 251.60620117 C-71.87506105 248.75736283 -71.87812481 245.90945842 -71.88476562 243.06054688 C-71.87918984 241.2578069 -71.87208059 239.45507087 -71.86328125 237.65234375 C-71.86419266 236.79712631 -71.86510406 235.94190887 -71.86604309 235.06077576 C-71.7935314 229.0435314 -71.7935314 229.0435314 -69.5625 226.8125 C-68.2425 226.8125 -66.9225 226.8125 -65.5625 226.8125 C-65.57297363 226.13300293 -65.58344727 225.45350586 -65.59423828 224.75341797 C-65.81608083 207.7950998 -65.32548116 190.98501808 -64.34204102 174.05859375 C-63.75700165 163.93255588 -63.36761034 153.82758236 -63.125 143.6875 C-61.90454137 98.39004633 -61.90454137 98.39004633 -53.65234375 79.36328125 C-52.39768768 76.42675646 -51.33637584 73.44017158 -50.25 70.4375 C-46.71707084 61.21927252 -41.71296006 52.54450693 -35.5625 44.8125 C-34.9025 44.8125 -34.2425 44.8125 -33.5625 44.8125 C-33.2325 43.8225 -32.9025 42.8325 -32.5625 41.8125 C-31.61375 41.6475 -30.665 41.4825 -29.6875 41.3125 C-26.41788615 40.176644 -26.41788615 40.176644 -25.67578125 37.59375 C-25.2104494 35.67862699 -24.76357477 33.75895598 -24.33203125 31.8359375 C-22.53254002 24.7658552 -19.24321568 18.44676805 -13.5625 13.8125 C-12.5725 13.4825 -11.5825 13.1525 -10.5625 12.8125 C-9.40144632 10.34912374 -8.59129023 7.8373922 -7.72265625 5.2578125 C-5.99939441 1.62561751 -4.11646172 -0.30120452 0 0 Z " fill="#1ED900" transform="translate(150.5625,4.1875)"/>
<path d="M0 0 C2.4375 0.8125 2.4375 0.8125 5.4375 2.8125 C6.39453125 5.0546875 6.39453125 5.0546875 7.25 7.6875 C9.0878842 12.60489246 10.98928954 13.99832603 15.4375 16.8125 C19.62427379 22.50747761 24.4375 31.64892923 24.4375 38.8125 C19.39228591 38.40458907 14.45277185 37.87778319 9.5 36.8125 C4.17945652 35.67902969 -1.14284277 35.20403417 -6.5625 34.8125 C-6.53929687 35.41191406 -6.51609375 36.01132812 -6.4921875 36.62890625 C-6.37471681 42.52761291 -6.66088639 48.25585531 -7.25308228 54.12071228 C-8.77060216 69.31697157 -9.00166545 84.48930513 -9.1875 99.75 C-9.2258054 102.39128713 -9.2648637 105.03256345 -9.3046875 107.67382812 C-9.3992722 114.05328739 -9.48468774 120.43281521 -9.5625 126.8125 C-8.75506348 126.80726318 -7.94762695 126.80202637 -7.11572266 126.79663086 C-3.47298962 126.77590071 0.16973102 126.76285251 3.8125 126.75 C5.08351562 126.74162109 6.35453125 126.73324219 7.6640625 126.72460938 C8.87578125 126.72138672 10.0875 126.71816406 11.3359375 126.71484375 C12.45661621 126.70960693 13.57729492 126.70437012 14.73193359 126.69897461 C17.4375 126.8125 17.4375 126.8125 19.4375 127.8125 C19.46437279 129.62492052 19.48383715 131.43745233 19.5 133.25 C19.51160156 134.25933594 19.52320313 135.26867187 19.53515625 136.30859375 C19.4375 138.8125 19.4375 138.8125 18.4375 139.8125 C15.63756403 139.91353255 12.86281356 139.95220088 10.0625 139.9453125 C9.22283691 139.94626923 8.38317383 139.94722595 7.51806641 139.94821167 C5.73925705 139.94889348 3.96044523 139.94703917 2.18164062 139.94287109 C-0.55083776 139.93752283 -3.28315176 139.94281605 -6.015625 139.94921875 C-7.7395837 139.94855797 -9.46354229 139.94727681 -11.1875 139.9453125 C-12.01040527 139.94733673 -12.83331055 139.94936096 -13.68115234 139.95144653 C-19.44754946 139.92745054 -19.44754946 139.92745054 -20.5625 138.8125 C-20.70507189 135.47631769 -20.60478157 132.15274394 -20.5625 128.8125 C-26.8325 128.8125 -33.1025 128.8125 -39.5625 128.8125 C-40.39579021 98.39740742 -36.18310308 68.04537416 -24.5625 39.8125 C-25.2225 39.8125 -25.8825 39.8125 -26.5625 39.8125 C-24.29790357 30.12812827 -21.53092091 20.3130539 -13.5625 13.8125 C-12.5725 13.4825 -11.5825 13.1525 -10.5625 12.8125 C-9.40144632 10.34912374 -8.59129023 7.8373922 -7.72265625 5.2578125 C-5.99939441 1.62561751 -4.11646172 -0.30120452 0 0 Z " fill="#38FD2B" transform="translate(150.5625,4.1875)"/>
<path d="M0 0 C6.50253626 -0.14105123 12.55928438 0.00740866 18.9375 1.3125 C20.80728516 1.67794922 20.80728516 1.67794922 22.71484375 2.05078125 C25.95726215 2.98765125 27.67539261 3.59047545 30 6 C36.38071698 19.2757007 40.06437214 35.46381433 42 50 C42.17273438 51.09054688 42.34546875 52.18109375 42.5234375 53.3046875 C44.49061175 66.78980953 44.64723832 80.39429759 45 94 C41.87501937 94.02895976 38.7500731 94.04678483 35.625 94.0625 C34.29082031 94.07506836 34.29082031 94.07506836 32.9296875 94.08789062 C32.07890625 94.09111328 31.228125 94.09433594 30.3515625 94.09765625 C29.17327881 94.10551147 29.17327881 94.10551147 27.97119141 94.11352539 C26 94 26 94 24 93 C21.9692523 92.84588894 19.93393579 92.75017547 17.8984375 92.68359375 C16.68671875 92.64169922 15.475 92.59980469 14.2265625 92.55664062 C12.95554688 92.51732422 11.68453125 92.47800781 10.375 92.4375 C8.456875 92.37272461 8.456875 92.37272461 6.5 92.30664062 C3.33344652 92.20030114 0.16681247 92.09827167 -3 92 C-3.64339237 30.53925077 -3.64339237 30.53925077 0 0 Z " fill="#38FE2B" transform="translate(144,39)"/>
<path d="M0 0 C4.51896744 -0.39873242 7.13679041 0.67155561 11 3 C13.04632466 5.0358732 14.70737755 7.27370694 16.375 9.625 C16.84760254 10.28306641 17.32020508 10.94113281 17.80712891 11.61914062 C25.90343072 23.26904767 31.0571979 36.44097446 35 50 C35.44472656 51.51013672 35.44472656 51.51013672 35.8984375 53.05078125 C41.91323976 76.00826908 40.86799101 101.32767369 41.86853027 124.90893555 C42.0052564 128.12358651 42.143539 131.33816746 42.28222656 134.55273438 C42.86374702 148.03478488 43.43629053 161.51719338 44 175 C40.17920726 175.58516646 36.46607187 176.12764397 32.59765625 176.09765625 C31.85322266 176.09443359 31.10878906 176.09121094 30.34179688 176.08789062 C29.58962891 176.07951172 28.83746094 176.07113281 28.0625 176.0625 C27.28326172 176.05798828 26.50402344 176.05347656 25.70117188 176.04882812 C23.80074732 176.03716908 21.90036294 176.01923877 20 176 C19.2114369 166.06604002 18.71910328 156.14768236 18.4375 146.1875 C18.41632111 145.47064026 18.39514221 144.75378052 18.37332153 144.01519775 C17.89826579 127.67624774 17.90460502 111.34434005 18 95 C11.73 95 5.46 95 -1 95 C-1 93.35 -1 91.7 -1 90 C5.27 90 11.54 90 18 90 C17.54667613 42.10650434 17.54667613 42.10650434 0 0 Z " fill="#1DDC00" transform="translate(171,43)"/>
<path d="M0 0 C-0.61185736 3.76697726 -1.73747758 7.23179573 -3.01831055 10.82080078 C-11.88612686 35.85132318 -14.24678143 62.6113771 -15 89 C-8.73 89 -2.46 89 4 89 C4 90.65 4 92.3 4 94 C-2.27 94 -8.54 94 -15 94 C-14.979375 96.29710937 -14.95875 98.59421875 -14.9375 100.9609375 C-14.89509535 114.79247394 -15.46363152 128.6185549 -15.92712402 142.44036865 C-16.04992542 146.12163375 -16.16933298 149.80300894 -16.2890625 153.484375 C-16.52280029 160.65635994 -16.76049428 167.82820493 -17 175 C-22.28 175 -27.56 175 -33 175 C-33 174.34 -33 173.68 -33 173 C-35.64 173 -38.28 173 -41 173 C-41.12738556 162.76386255 -40.80074651 152.61810243 -40.20291138 142.40130615 C-39.45198077 129.55894014 -38.87267775 116.73544654 -38.5625 103.875 C-37.34086312 58.57482969 -37.34086312 58.57482969 -29.08984375 39.55078125 C-27.83518768 36.61425646 -26.77387584 33.62767158 -25.6875 30.625 C-22.15457084 21.40677252 -17.15046006 12.73200693 -11 5 C-10.34 5 -9.68 5 -9 5 C-8.67 4.01 -8.34 3.02 -8 2 C-5.01540871 0.04457812 -3.73585209 0 0 0 Z " fill="#1DDC01" transform="translate(126,44)"/>
<path d="M0 0 C6.27 0 12.54 0 19 0 C19.33 1.65 19.66 3.3 20 5 C23.3 5.33 26.6 5.66 30 6 C30 31.08 30 56.16 30 82 C19.44 82 8.88 82 -2 82 C-2.08585932 66.6311823 -1.97560696 51.29946074 -1.5625 35.9375 C-1.54285187 35.17724518 -1.52320374 34.41699036 -1.50296021 33.63369751 C-1.20828148 22.40696821 -0.66145388 11.21136528 0 0 Z " fill="#38FD2B" transform="translate(111,138)"/>
<path d="M0 0 C6.27 0 12.54 0 19 0 C19.2632196 8.47658131 19.52443778 16.95321746 19.78230286 25.42996311 C19.90216505 29.36765373 20.02284422 33.3053155 20.14550781 37.24291992 C20.26424262 41.05543555 20.38067827 44.86801557 20.49563599 48.6806469 C20.53949041 50.12243002 20.58412095 51.56418979 20.62960815 53.00592232 C20.69404385 55.05279774 20.7555064 57.0997452 20.81640625 59.14672852 C20.86970093 60.88213646 20.86970093 60.88213646 20.92407227 62.65260315 C21.03669072 69.10080172 21 75.55081805 21 82 C10.44 82 -0.12 82 -11 82 C-11 56.92 -11 31.84 -11 6 C-7.7 5.67 -4.4 5.34 -1 5 C-0.67 3.35 -0.34 1.7 0 0 Z " fill="#38FE2B" transform="translate(170,138)"/>
<path d="M0 0 C10.56 0 21.12 0 32 0 C32.63110678 9.46660167 33.17305679 18.80993022 33.31640625 28.27734375 C33.33718735 29.45470596 33.35796844 30.63206818 33.37937927 31.84510803 C33.44386254 35.54252274 33.50328002 39.23999765 33.5625 42.9375 C33.60578193 45.47070892 33.64939898 48.00391214 33.69335938 50.53710938 C33.79943721 56.69134583 33.90137568 62.84563982 34 69 C29.3188055 69.16725324 24.63744899 69.32784864 19.95581055 69.48217773 C18.36199744 69.53566794 16.76824515 69.59100255 15.17456055 69.64819336 C12.88864258 69.72990942 10.60259054 69.80506897 8.31640625 69.87890625 C7.59973282 69.90594131 6.88305939 69.93297638 6.14466858 69.96083069 C4.43052233 70.01297644 2.71489824 70.01185628 1 70 C0 69 0 69 -0.12025452 66.26023865 C-0.11803391 65.03668167 -0.11581329 63.81312469 -0.11352539 62.55249023 C-0.11367142 61.87934784 -0.11381744 61.20620544 -0.1139679 60.51266479 C-0.11326878 58.27794216 -0.10547652 56.0433019 -0.09765625 53.80859375 C-0.09579206 52.26302638 -0.09436816 50.71745843 -0.09336853 49.17189026 C-0.0895434 45.09642923 -0.07971317 41.02100363 -0.06866455 36.94555664 C-0.05665566 32.05972272 -0.05204817 27.17387698 -0.04621124 22.28803253 C-0.0365014 14.85866369 -0.01734484 7.42937263 0 0 Z " fill="#38FD2B" transform="translate(159,225)"/>
<path d="M0 0 C10.56 0 21.12 0 32 0 C32.33 23.1 32.66 46.2 33 70 C21.78 69.67 10.56 69.34 -1 69 C-1.04958223 53.17707004 -0.87742914 37.38032707 -0.5 21.5625 C-0.45158337 19.45117735 -0.40340543 17.33984922 -0.35546875 15.22851562 C-0.24014452 10.15226105 -0.11999353 5.07615471 0 0 Z " fill="#39FD2C" transform="translate(108,225)"/>
<path d="M0 0 C4.51896744 -0.39873242 7.13679041 0.67155561 11 3 C13.04632466 5.0358732 14.70737755 7.27370694 16.375 9.625 C16.84760254 10.28306641 17.32020508 10.94113281 17.80712891 11.61914062 C25.90343072 23.26904767 31.0571979 36.44097446 35 50 C35.44472656 51.51013672 35.44472656 51.51013672 35.8984375 53.05078125 C39.35444455 66.24177844 40.1803963 80.40089442 40 94 C31.29786393 95.16281933 22.63211849 95.11579895 13.875 95.0625 C12.42708489 95.05747252 10.97916808 95.05291183 9.53125 95.04882812 C6.02079741 95.03792705 2.51040993 95.02073202 -1 95 C-1 93.35 -1 91.7 -1 90 C5.27 90 11.54 90 18 90 C17.54667613 42.10650434 17.54667613 42.10650434 0 0 Z " fill="#1FD900" transform="translate(171,43)"/>
<path d="M0 0 C-0.61185736 3.76697726 -1.73747758 7.23179573 -3.01831055 10.82080078 C-11.88612686 35.85132318 -14.24678143 62.6113771 -15 89 C-8.73 89 -2.46 89 4 89 C4 90.65 4 92.3 4 94 C-0.69563418 94.02488717 -5.39122919 94.04294796 -10.08691406 94.05493164 C-11.68132192 94.05993231 -13.27572525 94.06673501 -14.87011719 94.07543945 C-17.17383954 94.0876933 -19.47750078 94.0932711 -21.78125 94.09765625 C-22.83487732 94.10539818 -22.83487732 94.10539818 -23.90979004 94.11329651 C-28.68720941 94.11382708 -33.26878694 93.67025518 -38 93 C-35.58286075 53.52497188 -35.58286075 53.52497188 -29.0546875 39.3046875 C-27.75645416 36.46780723 -26.74414053 33.56011259 -25.6875 30.625 C-22.15457084 21.40677252 -17.15046006 12.73200693 -11 5 C-10.34 5 -9.68 5 -9 5 C-8.67 4.01 -8.34 3.02 -8 2 C-5.01540871 0.04457812 -3.73585209 0 0 0 Z " fill="#1FDB00" transform="translate(126,44)"/>
<path d="M0 0 C1.81242052 -0.02687279 3.62495233 -0.04633715 5.4375 -0.0625 C6.44683594 -0.07410156 7.45617187 -0.08570313 8.49609375 -0.09765625 C11 0 11 0 12 1 C12.2185647 2.74035934 12.37238899 4.48889948 12.5 6.23828125 C12.5820166 7.35340088 12.6640332 8.46852051 12.74853516 9.61743164 C12.83151855 10.8368042 12.91450195 12.05617676 13 13.3125 C13.08685059 14.57634521 13.17370117 15.84019043 13.26318359 17.14233398 C14.91337791 42.09803996 15.13171857 67.00274324 15 92 C9.06 92 3.12 92 -3 92 C-3.62700965 30.40192926 -3.62700965 30.40192926 0 0 Z " fill="#1CDC01" transform="translate(144,39)"/>
<path d="M0 0 C5.94 0 11.88 0 18 0 C18 25.08 18 50.16 18 76 C12.06 76 6.12 76 0 76 C0 50.92 0 25.84 0 0 Z " fill="#1DDB00" transform="translate(141,144)"/>
<path d="M0 0 C6.27 0 12.54 0 19 0 C19.33 23.1 19.66 46.2 20 70 C13.73 70 7.46 70 1 70 C0 69 0 69 -0.12025452 66.26023865 C-0.11803391 65.03668167 -0.11581329 63.81312469 -0.11352539 62.55249023 C-0.11367142 61.87934784 -0.11381744 61.20620544 -0.1139679 60.51266479 C-0.11326878 58.27794216 -0.10547652 56.0433019 -0.09765625 53.80859375 C-0.09579206 52.26302638 -0.09436816 50.71745843 -0.09336853 49.17189026 C-0.0895434 45.09642923 -0.07971317 41.02100363 -0.06866455 36.94555664 C-0.05845032 32.78988118 -0.05387089 28.63420001 -0.04882812 24.47851562 C-0.03809089 16.31899232 -0.02049414 8.15950464 0 0 Z " fill="#1CDC00" transform="translate(140,225)"/>
<path d="M0 0 C2.4375 0.8125 2.4375 0.8125 5.4375 2.8125 C6.39453125 5.0546875 6.39453125 5.0546875 7.25 7.6875 C9.0878842 12.60489246 10.98928954 13.99832603 15.4375 16.8125 C19.62427379 22.50747761 24.4375 31.64892923 24.4375 38.8125 C19.37829979 38.40345828 14.45537997 37.87152259 9.5 36.75 C-0.10494746 34.78128406 -8.72086147 36.02357106 -18.1796875 38.15625 C-21.09618335 38.72203672 -23.60868635 38.94727477 -26.5625 38.8125 C-20.59320482 19.76155792 -20.59320482 19.76155792 -13.5625 13.8125 C-12.5725 13.4825 -11.5825 13.1525 -10.5625 12.8125 C-9.40144632 10.34912374 -8.59129023 7.8373922 -7.72265625 5.2578125 C-5.99939441 1.62561751 -4.11646172 -0.30120452 0 0 Z " fill="#555655" transform="translate(150.5625,4.1875)"/>
<path d="M0 0 C1.18537354 0.0707373 2.37074707 0.14147461 3.59204102 0.21435547 C21.87307999 1.20163934 40.14922501 1.15348825 58.45092773 1.13037109 C63.0167762 1.12467865 67.58256626 1.12804891 72.1484127 1.13382339 C91.12407151 1.15404602 110.04799922 1.06727321 129 0 C129 1.65 129 3.3 129 5 C115.36881814 6.86056369 101.97250971 7.2966331 88.2265625 7.265625 C86.08385169 7.26697662 83.94114118 7.26892127 81.7984314 7.27142334 C77.34264154 7.27434742 72.88693268 7.27016289 68.43115234 7.26074219 C62.74930241 7.24930743 57.06764067 7.2559499 51.3857975 7.26788712 C46.97434085 7.27514399 42.56292822 7.27280097 38.15147018 7.26763153 C36.05690869 7.26630778 33.96234306 7.2678975 31.86778641 7.27259064 C10.99022754 7.30914665 10.99022754 7.30914665 1 5 C0.67 3.35 0.34 1.7 0 0 Z " fill="#25B11C" transform="translate(86,218)"/>
<path d="M0 0 C0.79789444 0.00202423 1.59578888 0.00404846 2.41786194 0.00613403 C3.23295731 0.00517731 4.04805267 0.00422058 4.8878479 0.00323486 C6.61538266 0.002553 8.34291996 0.0044077 10.07044983 0.00857544 C12.71951547 0.01391679 15.36841103 0.00863422 18.01747131 0.00222778 C19.6926019 0.0028887 21.36773238 0.00417014 23.04286194 0.00613403 C23.83873215 0.0041098 24.63460236 0.00208557 25.45458984 0 C31.06685731 0.02399109 31.06685731 0.02399109 33.29676819 1.13894653 C33.32364098 2.95136705 33.34310534 4.76389887 33.35926819 6.57644653 C33.37086975 7.58578247 33.38247131 8.59511841 33.39442444 9.63504028 C33.29676819 12.13894653 33.29676819 12.13894653 32.29676819 13.13894653 C29.49683221 13.23997908 26.72208175 13.27864741 23.92176819 13.27175903 C23.0821051 13.27271576 22.24244202 13.27367249 21.37733459 13.2746582 C19.59852524 13.27534001 17.81971341 13.2734857 16.04090881 13.26931763 C13.30843043 13.26396936 10.57611643 13.26926259 7.84364319 13.27566528 C6.11968449 13.2750045 4.39572589 13.27372334 2.67176819 13.27175903 C1.84886292 13.27378326 1.02595764 13.2758075 0.17811584 13.27789307 C-5.58828127 13.25389708 -5.58828127 13.25389708 -6.70323181 12.13894653 C-6.80174352 10.3077877 -6.8329581 8.4727472 -6.82823181 6.63894653 C-6.83080994 5.63863403 -6.83338806 4.63832153 -6.83604431 3.60769653 C-6.58502708 -1.05827076 -4.0764656 0.01750072 0 0 Z " fill="#686A68" transform="translate(136.70323181152344,130.86105346679688)"/>
<path d="M0 0 C1.32 0 2.64 0 4 0 C4.20638953 30.33290997 4.20638953 30.33290997 3 43 C1.68 43 0.36 43 -1 43 C-3.11834035 40.88165965 -2.16419113 36.15396626 -2.16796875 33.22265625 C-2.17129715 32.34097275 -2.17462555 31.45928925 -2.17805481 30.55088806 C-2.18312783 28.68212406 -2.18546302 26.81335096 -2.18530273 24.94458008 C-2.18748808 22.07813656 -2.20563655 19.2120784 -2.22460938 16.34570312 C-2.22754339 14.53385549 -2.22952813 12.72200602 -2.23046875 10.91015625 C-2.23765427 10.0486647 -2.24483978 9.18717316 -2.25224304 8.29957581 C-2.2288216 2.2288216 -2.2288216 2.2288216 0 0 Z " fill="#111B0F" transform="translate(81,231)"/>
<path d="M0 0 C2.4375 0.375 2.4375 0.375 5 1 C6.59488768 4.18977536 6.16301154 7.64505829 6.16796875 11.1484375 C6.17129715 11.95737457 6.17462555 12.76631165 6.17805481 13.59976196 C6.18312186 15.31292146 6.1854632 17.02609083 6.18530273 18.73925781 C6.18748548 21.35758808 6.20563294 23.97549453 6.22460938 26.59375 C6.2275441 28.25781106 6.22952837 29.92187412 6.23046875 31.5859375 C6.23765427 32.36834808 6.24483978 33.15075867 6.25224304 33.95687866 C6.23621147 37.78162822 6.16616044 40.76014943 4 44 C3.01 44 2.02 44 1 44 C-0.15820248 29.3363293 -0.10562899 14.70193082 0 0 Z " fill="#121711" transform="translate(215,231)"/>
<path d="M0 0 C20.295 0.495 20.295 0.495 41 1 C41 2.65 41 4.3 41 6 C36.30436582 6.02488717 31.60877081 6.04294796 26.91308594 6.05493164 C25.31867808 6.05993231 23.72427475 6.06673501 22.12988281 6.07543945 C19.82616046 6.0876933 17.52249922 6.0932711 15.21875 6.09765625 C14.16512268 6.10539818 14.16512268 6.10539818 13.09020996 6.11329651 C8.31279059 6.11382708 3.73121306 5.67025518 -1 5 C-0.67 3.35 -0.34 1.7 0 0 Z " fill="#149E00" transform="translate(89,132)"/>
<path d="M0 0 C0 1.65 0 3.3 0 5 C-8.70213607 6.16281933 -17.36788151 6.11579895 -26.125 6.0625 C-27.57291511 6.05747252 -29.02083192 6.05291183 -30.46875 6.04882812 C-33.97920259 6.03792705 -37.48959007 6.02073202 -41 6 C-41 4.35 -41 2.7 -41 1 C-36.60431345 0.82931136 -32.20843299 0.66420951 -27.8125 0.5 C-26.58595703 0.45230469 -25.35941406 0.40460938 -24.09570312 0.35546875 C-16.05942249 0.05861406 -8.04154898 -0.0608504 0 0 Z " fill="#149C00" transform="translate(211,132)"/>
<path d="M0 0 C7.59 0 15.18 0 23 0 C23 0.99 23 1.98 23 3 C23.66 3.33 24.32 3.66 25 4 C25 4.66 25 5.32 25 6 C23.72382813 6.06058594 22.44765625 6.12117187 21.1328125 6.18359375 C19.46352984 6.26799568 17.79425963 6.35264386 16.125 6.4375 C15.28324219 6.47681641 14.44148438 6.51613281 13.57421875 6.55664062 C12.76855469 6.59853516 11.96289062 6.64042969 11.1328125 6.68359375 C10.38918457 6.72025146 9.64555664 6.75690918 8.87939453 6.79467773 C6.91135688 6.89955865 6.91135688 6.89955865 5 8 C5 8.99 5 9.98 5 11 C4.34 11 3.68 11 3 11 C3 10.01 3 9.02 3 8 C-1.455 8.495 -1.455 8.495 -6 9 C-6 6.69 -6 4.38 -6 2 C-3.03 2.495 -3.03 2.495 0 3 C0 2.01 0 1.02 0 0 Z " fill="#7C7C7C" transform="translate(137,132)"/>
<path d="M0 0 C2.375 0.9375 2.375 0.9375 5.375 2.9375 C6.67646676 6.20455647 7.45854054 9.53350772 8.375 12.9375 C2.435 12.9375 -3.505 12.9375 -9.625 12.9375 C-6.35281065 -0.1512574 -6.35281065 -0.1512574 0 0 Z " fill="#020202" transform="translate(150.625,4.0625)"/>
<path d="M0 0 C0.79789444 0.00202423 1.59578888 0.00404846 2.41786194 0.00613403 C3.23295731 0.00517731 4.04805267 0.00422058 4.8878479 0.00323486 C6.61538266 0.002553 8.34291996 0.0044077 10.07044983 0.00857544 C12.71951547 0.01391679 15.36841103 0.00863422 18.01747131 0.00222778 C19.6926019 0.0028887 21.36773238 0.00417014 23.04286194 0.00613403 C23.83873215 0.0041098 24.63460236 0.00208557 25.45458984 0 C31.06685731 0.02399109 31.06685731 0.02399109 33.29676819 1.13894653 C33.32364098 2.95136705 33.34310534 4.76389887 33.35926819 6.57644653 C33.37086975 7.58578247 33.38247131 8.59511841 33.39442444 9.63504028 C33.29676819 12.13894653 33.29676819 12.13894653 32.29676819 13.13894653 C30.29718455 13.17975436 28.29631565 13.1814901 26.29676819 13.13894653 C26.62676819 11.81894653 26.95676819 10.49894653 27.29676819 9.13894653 C28.61676819 9.46894653 29.93676819 9.79894653 31.29676819 10.13894653 C31.29676819 7.82894653 31.29676819 5.51894653 31.29676819 3.13894653 C28.65676819 3.46894653 26.01676819 3.79894653 23.29676819 4.13894653 C23.29676819 3.14894653 23.29676819 2.15894653 23.29676819 1.13894653 C21.560401 1.26463013 21.560401 1.26463013 19.78895569 1.39285278 C18.24991753 1.49608095 16.71085359 1.59892522 15.17176819 1.70144653 C14.41122131 1.75752075 13.65067444 1.81359497 12.86708069 1.87136841 C8.4968369 2.15392727 4.6160615 2.07042352 0.29676819 1.13894653 C0.29676819 2.12894653 0.29676819 3.11894653 0.29676819 4.13894653 C-2.67323181 3.64394653 -2.67323181 3.64394653 -5.70323181 3.13894653 C-5.70323181 5.44894653 -5.70323181 7.75894653 -5.70323181 10.13894653 C-1.24823181 9.64394653 -1.24823181 9.64394653 3.29676819 9.13894653 C3.29676819 10.12894653 3.29676819 11.11894653 3.29676819 12.13894653 C4.61676819 12.46894653 5.93676819 12.79894653 7.29676819 13.13894653 C5.15100182 13.16580592 3.00514174 13.18527741 0.85926819 13.20144653 C-0.33569275 13.2130481 -1.53065369 13.22464966 -2.76182556 13.23660278 C-5.70323181 13.13894653 -5.70323181 13.13894653 -6.70323181 12.13894653 C-6.80174352 10.3077877 -6.8329581 8.4727472 -6.82823181 6.63894653 C-6.83080994 5.63863403 -6.83338806 4.63832153 -6.83604431 3.60769653 C-6.58502708 -1.05827076 -4.0764656 0.01750072 0 0 Z " fill="#4B8246" transform="translate(136.70323181152344,130.86105346679688)"/>
<path d="M0 0 C0 1.65 0 3.3 0 5 C-2.87456792 5.33747548 -5.74956059 5.67010463 -8.625 6 C-9.43324219 6.09539062 -10.24148437 6.19078125 -11.07421875 6.2890625 C-15.40973739 6.78253617 -19.62737311 7.11320717 -24 7 C-24 5.02 -24 3.04 -24 1 C-21.31264212 0.83071761 -18.62515116 0.6645047 -15.9375 0.5 C-14.80924805 0.42845703 -14.80924805 0.42845703 -13.65820312 0.35546875 C-9.09508249 0.07891598 -4.57143477 -0.0485677 0 0 Z " fill="#169D00" transform="translate(215,218)"/>
<path d="M0 0 C7.26 0.33 14.52 0.66 22 1 C22 2.98 22 4.96 22 7 C14.7725395 7.24091535 8.09705662 6.34495828 1 5 C0.67 3.35 0.34 1.7 0 0 Z " fill="#149C00" transform="translate(86,218)"/>
<path d="M0 0 C6.27 0 12.54 0 19 0 C19 1.65 19 3.3 19 5 C12.73 5 6.46 5 0 5 C0 3.35 0 1.7 0 0 Z " fill="#149C00" transform="translate(140,220)"/>
<path d="M0 0 C6.27 0 12.54 0 19 0 C19 1.65 19 3.3 19 5 C12.73 5 6.46 5 0 5 C0 3.35 0 1.7 0 0 Z " fill="#26B31D" transform="translate(170,133)"/>
<path d="M0 0 C6.27 0 12.54 0 19 0 C19 1.65 19 3.3 19 5 C12.73 5 6.46 5 0 5 C0 3.35 0 1.7 0 0 Z " fill="#26B21E" transform="translate(111,133)"/>
<path d="M0 0 C3.3 0 6.6 0 10 0 C9.53898164 4.70238725 8.96823597 8.23262357 6 12 C5.01 12 4.02 12 3 12 C3 11.34 3 10.68 3 10 C2.34 10 1.68 10 1 10 C-0.1577506 6.52674819 -0.06866652 3.63932552 0 0 Z " fill="#1C2C10" transform="translate(102,77)"/>
<path d="M0 0 C6.27 0 12.54 0 19 0 C19 0.99 19 1.98 19 3 C18.01 3 17.02 3 16 3 C16 3.66 16 4.32 16 5 C10.39 5 4.78 5 -1 5 C-0.67 3.35 -0.34 1.7 0 0 Z " fill="#717171" transform="translate(139,132)"/>
<path d="M0 0 C2.97 0 5.94 0 9 0 C9.28571429 7.42857143 9.28571429 7.42857143 7 11 C5.1875 10.8125 5.1875 10.8125 3 10 C0.37665094 6.62712264 -0.36372697 4.24348127 0 0 Z " fill="#141E13" transform="translate(188,78)"/>
<path d="M0 0 C3 1 3 1 4.25 3.1875 C5.12860506 6.48226898 4.76557916 8.70800962 4 12 C1.69 12 -0.62 12 -3 12 C-3.08131463 10.56344146 -3.13933559 9.1255517 -3.1875 7.6875 C-3.22230469 6.88699219 -3.25710937 6.08648437 -3.29296875 5.26171875 C-2.93801608 2.52148416 -2.10633718 1.70828921 0 0 Z " fill="#182E16" transform="translate(165,279)"/>
<path d="M0 0 C3 1 3 1 5 4 C4.96856707 6.73990408 4.44521663 9.28417854 4 12 C2.00045254 12.04254356 -0.00041636 12.04080783 -2 12 C-2.33 11.67 -2.66 11.34 -3 11 C-2.94921875 9.00390625 -2.94921875 9.00390625 -2.6875 6.5625 C-2.60886719 5.75941406 -2.53023437 4.95632813 -2.44921875 4.12890625 C-2 2 -2 2 0 0 Z " fill="#182F17" transform="translate(133,279)"/>
<path d="M0 0 C2.31 0 4.62 0 7 0 C7 0.99 7 1.98 7 3 C4.03 2.505 4.03 2.505 1 2 C1 4.31 1 6.62 1 9 C5.455 8.505 5.455 8.505 10 8 C10 8.99 10 9.98 10 11 C11.32 11.33 12.64 11.66 14 12 C11.85423363 12.02685938 9.70837355 12.04633088 7.5625 12.0625 C6.36753906 12.07410156 5.17257813 12.08570313 3.94140625 12.09765625 C1 12 1 12 0 11 C-0.07226502 9.14712498 -0.0838122 7.29166122 -0.0625 5.4375 C-0.05347656 4.42558594 -0.04445312 3.41367188 -0.03515625 2.37109375 C-0.02355469 1.58863281 -0.01195312 0.80617187 0 0 Z " fill="#556555" transform="translate(130,132)"/>
<path d="M0 0 C3.875 0.875 3.875 0.875 5 2 C5.04092937 4.33297433 5.04241723 6.66705225 5 9 C2.69 9 0.38 9 -2 9 C-2.25 3.375 -2.25 3.375 0 0 Z " fill="#1D260F" transform="translate(97,278)"/>
<path d="M0 0 C2.125 0.375 2.125 0.375 4 1 C4.33 3.64 4.66 6.28 5 9 C2.69 9 0.38 9 -2 9 C-2.125 5.625 -2.125 5.625 -2 2 C-1.34 1.34 -0.68 0.68 0 0 Z " fill="#1E280F" transform="translate(200,278)"/>
<path d="M0 0 C0.33 0 0.66 0 1 0 C1.33 5.61 1.66 11.22 2 17 C0.68 16.67 -0.64 16.34 -2 16 C-1.67 15.67 -1.34 15.34 -1 15 C-0.76346477 12.47403741 -0.57826308 9.96892793 -0.4375 7.4375 C-0.39431641 6.72658203 -0.35113281 6.01566406 -0.30664062 5.28320312 C-0.20028223 3.52238088 -0.09961154 1.7612168 0 0 Z " fill="#2BD30A" transform="translate(213,201)"/>
<path d="M0 0 C1.98 0 3.96 0 6 0 C6 1.65 6 3.3 6 5 C4.02 5 2.04 5 0 5 C0 3.35 0 1.7 0 0 Z " fill="#858E84" transform="translate(153,139)"/>
<path d="M0 0 C1.98 0 3.96 0 6 0 C5.67 2.31 5.34 4.62 5 7 C4.34 6.67 3.68 6.34 3 6 C3 5.01 3 4.02 3 3 C2.01 3 1.02 3 0 3 C0 2.01 0 1.02 0 0 Z " fill="#8EA900" transform="translate(198,287)"/>
<path d="M0 0 C1 4 1 4 0 6 C-0.66 6 -1.32 6 -2 6 C-2.33 6.99 -2.66 7.98 -3 9 C-3.99 8.67 -4.98 8.34 -6 8 C-4.02 5.36 -2.04 2.72 0 0 Z " fill="#2BD804" transform="translate(114,51)"/>
<path d="M0 0 C2.31 0 4.62 0 7 0 C7 0.99 7 1.98 7 3 C4.69 3 2.38 3 0 3 C0 2.01 0 1.02 0 0 Z " fill="#C68202" transform="translate(162,288)"/>
<path d="M0 0 C2.97 0 5.94 0 9 0 C8.67 0.66 8.34 1.32 8 2 C5.35139573 2.59355614 2.70802678 2.74209269 0 3 C0 2.01 0 1.02 0 0 Z " fill="#575757" transform="translate(160,132)"/>
<path d="M0 0 C2.31 0 4.62 0 7 0 C7 0.99 7 1.98 7 3 C5.02 3 3.04 3 1 3 C0.67 2.01 0.34 1.02 0 0 Z " fill="#C57E02" transform="translate(130,288)"/>
<path d="M0 0 C1.32 0.66 2.64 1.32 4 2 C4 2.66 4 3.32 4 4 C1.69 4.33 -0.62 4.66 -3 5 C-1.125 1.125 -1.125 1.125 0 0 Z " fill="#949694" transform="translate(147,139)"/>
<path d="M0 0 C2.64 0 5.28 0 8 0 C6.515 1.98 6.515 1.98 5 4 C1.125 2.25 1.125 2.25 0 0 Z " fill="#939393" transform="translate(148,132)"/>
<path d="M0 0 C0.66 0 1.32 0 2 0 C2 0.99 2 1.98 2 3 C2.99 3 3.98 3 5 3 C5 3.99 5 4.98 5 6 C3.68 6 2.36 6 1 6 C0.67 4.02 0.34 2.04 0 0 Z " fill="#51F53C" transform="translate(112,243)"/>
<path d="M0 0 C2.31 0.33 4.62 0.66 7 1 C6.67 1.66 6.34 2.32 6 3 C4.68 2.67 3.36 2.34 2 2 C1.67 2.99 1.34 3.98 1 5 C0.67 3.35 0.34 1.7 0 0 Z " fill="#4AFD30" transform="translate(110,241)"/>
<path d="M0 0 C1.32 0.66 2.64 1.32 4 2 C3.67 2.99 3.34 3.98 3 5 C0.36 5 -2.28 5 -5 5 C-5 4.67 -5 4.34 -5 4 C-3.02 4 -1.04 4 1 4 C0.67 2.68 0.34 1.36 0 0 Z " fill="#576856" transform="translate(150,139)"/>
<path d="M0 0 C0.66 0.33 1.32 0.66 2 1 C2.59355614 3.64860427 2.74209269 6.29197322 3 9 C0.525 8.01 0.525 8.01 -2 7 C-1.67 6.34 -1.34 5.68 -1 5 C-0.34 5 0.32 5 1 5 C0.67 3.35 0.34 1.7 0 0 Z " fill="#2CDB05" transform="translate(204,92)"/>
<path d="M0 0 C0.66 0 1.32 0 2 0 C2 0.99 2 1.98 2 3 C1.01 3 0.02 3 -1 3 C-1 3.66 -1 4.32 -1 5 C-2.65 5 -4.3 5 -6 5 C-4.73775586 2.47551173 -3.49988984 2.17182336 -1 1 C-0.67 0.67 -0.34 0.34 0 0 Z " fill="#616161" transform="translate(156,132)"/>
</svg>
