<?xml version="1.0" encoding="UTF-8"?>
<svg version="1.1" xmlns="http://www.w3.org/2000/svg" width="300" height="300">
<path d="M0 0 C2.4375 0.8125 2.4375 0.8125 5.4375 2.8125 C6.39453125 5.0546875 6.39453125 5.0546875 7.25 7.6875 C9.0878842 12.60489246 10.98928954 13.99832603 15.4375 16.8125 C19.68347897 22.51567886 21.7874581 29.29244299 23.93359375 35.9921875 C25.86526584 39.61469984 27.7901255 40.05386433 31.4375 41.8125 C33.50104123 43.82920034 35.14606846 46.08788609 36.8125 48.4375 C37.28510254 49.09556641 37.75770508 49.75363281 38.24462891 50.43164062 C46.34093072 62.08154767 51.4946979 75.25347446 55.4375 88.8125 C55.73398438 89.81925781 56.03046875 90.82601562 56.3359375 91.86328125 C61.90526944 113.12048384 61.11049542 136.32608084 62.05342102 158.15779114 C62.34569702 164.87351842 62.66855982 171.58727414 63.0078125 178.30078125 C63.10160636 180.17740666 63.19535689 182.05403424 63.2890625 183.93066406 C63.42285948 186.60767111 63.55778878 189.28458632 63.69726562 191.96130371 C64.30155445 203.58991759 64.54757427 215.16821488 64.4375 226.8125 C65.6440625 226.998125 65.6440625 226.998125 66.875 227.1875 C67.720625 227.39375 68.56625 227.6 69.4375 227.8125 C71.03238768 231.00227536 70.60051154 234.45755829 70.60546875 237.9609375 C70.60879715 238.76987457 70.61212555 239.57881165 70.61555481 240.41226196 C70.62062186 242.12542146 70.6229632 243.83859083 70.62280273 245.55175781 C70.62498548 248.17008808 70.64313294 250.78799453 70.66210938 253.40625 C70.6650441 255.07031106 70.66702837 256.73437412 70.66796875 258.3984375 C70.67515427 259.18084808 70.68233978 259.96325867 70.68974304 260.76937866 C70.67371147 264.59412822 70.60366044 267.57264943 68.4375 270.8125 C67.7775 270.8125 67.1175 270.8125 66.4375 270.8125 C66.6025 271.555 66.7675 272.2975 66.9375 273.0625 C67.63804587 278.31659401 67.51457499 283.52001749 67.4375 288.8125 C57.41832917 289.96226404 47.38449367 290.15085217 37.3125 290.375 C35.95742844 290.40626984 35.95742844 290.40626984 34.57498169 290.43817139 C10.05737416 290.99680383 -14.42055542 290.95576415 -38.9375 290.375 C-39.79248077 290.3554425 -40.64746155 290.33588501 -41.52835083 290.31573486 C-50.57338522 290.10296712 -59.56432301 289.83473505 -68.5625 288.8125 C-68.52769531 287.62011719 -68.49289063 286.42773438 -68.45703125 285.19921875 C-68.42889247 283.63282658 -68.4015924 282.06641919 -68.375 280.5 C-68.34986328 279.71431641 -68.32472656 278.92863281 -68.29882812 278.11914062 C-68.28916016 277.36181641 -68.27949219 276.60449219 -68.26953125 275.82421875 C-68.2538208 275.12772217 -68.23811035 274.43122559 -68.22192383 273.71362305 C-68.38462413 271.69670581 -68.38462413 271.69670581 -70.06051636 270.44247437 C-72.71437747 267.56246591 -71.96598888 263.56468845 -71.92578125 259.83984375 C-71.92627975 258.96099014 -71.92677826 258.08213654 -71.92729187 257.176651 C-71.92495218 255.31981137 -71.9152298 253.46296853 -71.89868164 251.60620117 C-71.87506105 248.75736283 -71.87812481 245.90945842 -71.88476562 243.06054688 C-71.87918984 241.2578069 -71.87208059 239.45507087 -71.86328125 237.65234375 C-71.86419266 236.79712631 -71.86510406 235.94190887 -71.86604309 235.06077576 C-71.7935314 229.0435314 -71.7935314 229.0435314 -69.5625 226.8125 C-68.2425 226.8125 -66.9225 226.8125 -65.5625 226.8125 C-65.57297363 226.13300293 -65.58344727 225.45350586 -65.59423828 224.75341797 C-65.81608083 207.7950998 -65.32548116 190.98501808 -64.34204102 174.05859375 C-63.75700165 163.93255588 -63.36761034 153.82758236 -63.125 143.6875 C-61.90454137 98.39004633 -61.90454137 98.39004633 -53.65234375 79.36328125 C-52.39768768 76.42675646 -51.33637584 73.44017158 -50.25 70.4375 C-46.71707084 61.21927252 -41.71296006 52.54450693 -35.5625 44.8125 C-34.9025 44.8125 -34.2425 44.8125 -33.5625 44.8125 C-33.2325 43.8225 -32.9025 42.8325 -32.5625 41.8125 C-31.61375 41.6475 -30.665 41.4825 -29.6875 41.3125 C-26.41788615 40.176644 -26.41788615 40.176644 -25.67578125 37.59375 C-25.2104494 35.67862699 -24.76357477 33.75895598 -24.33203125 31.8359375 C-22.53254002 24.7658552 -19.24321568 18.44676805 -13.5625 13.8125 C-12.5725 13.4825 -11.5825 13.1525 -10.5625 12.8125 C-9.40144632 10.34912374 -8.59129023 7.8373922 -7.72265625 5.2578125 C-5.99939441 1.62561751 -4.11646172 -0.30120452 0 0 Z " fill="#EB9100" transform="translate(150.5625,4.1875)"/>
<path d="M0 0 C6.6 0 13.2 0 20 0 C20 1.65 20 3.3 20 5 C39.8 5.495 39.8 5.495 60 6 C60 4.02 60 2.04 60 0 C66.27 0 72.54 0 79 0 C79.06058594 2.23136719 79.12117188 4.46273437 79.18359375 6.76171875 C79.24574369 8.96950483 79.30898019 11.17725738 79.37231445 13.38500977 C79.41511166 14.89669693 79.45681376 16.40841558 79.49731445 17.92016602 C79.69031627 25.09935698 79.89294819 32.25013348 80.53125 39.40625 C81.23897682 47.86659218 81.10728354 56.32982179 81.0625 64.8125 C81.05747056 66.48762886 81.05291023 68.16275919 81.04882812 69.83789062 C81.0388081 73.89199468 81.0192138 77.94588809 81 82 C70.44 82 59.88 82 49 82 C49 83.65 49 85.3 49 87 C59.89 87 70.78 87 82 87 C82.65101638 110.00645369 83.18016777 132.98287404 83 156 C55.85599629 157.27465285 28.7834388 157.20925596 1.625 156.5625 C0.77128815 156.5429425 -0.08242371 156.52338501 -0.96200562 156.50323486 C-10.00833891 156.29047257 -19.00052794 156.02238218 -28 155 C-27.96519531 153.80761719 -27.93039063 152.61523438 -27.89453125 151.38671875 C-27.86639247 149.82032658 -27.8390924 148.25391919 -27.8125 146.6875 C-27.78736328 145.90181641 -27.76222656 145.11613281 -27.73632812 144.30664062 C-27.72666016 143.54931641 -27.71699219 142.79199219 -27.70703125 142.01171875 C-27.6913208 141.31522217 -27.67561035 140.61872559 -27.65942383 139.90112305 C-27.82212413 137.88420581 -27.82212413 137.88420581 -29.49801636 136.62997437 C-32.15187747 133.74996591 -31.40348888 129.75218845 -31.36328125 126.02734375 C-31.36377975 125.14849014 -31.36427826 124.26963654 -31.36479187 123.364151 C-31.36245218 121.50731137 -31.3527298 119.65046853 -31.33618164 117.79370117 C-31.31256105 114.94486283 -31.31562481 112.09695842 -31.32226562 109.24804688 C-31.31668984 107.4453069 -31.30958059 105.64257087 -31.30078125 103.83984375 C-31.30169266 102.98462631 -31.30260406 102.12940887 -31.30354309 101.24827576 C-31.2310314 95.2310314 -31.2310314 95.2310314 -29 93 C-27.68 93 -26.36 93 -25 93 C-25 88.38 -25 83.76 -25 79 C-19 79 -19 79 -17 80 C-14.45384991 80.23172827 -11.92603775 80.41894529 -9.375 80.5625 C-8.31539062 80.62727539 -8.31539062 80.62727539 -7.234375 80.69335938 C-5.48981463 80.79944751 -3.74493303 80.90022889 -2 81 C-2.01160156 80.37738281 -2.02320312 79.75476563 -2.03515625 79.11328125 C-2.0987973 72.5946199 -1.87842518 66.13258033 -1.53125 59.625 C-0.9114218 47.31729611 -0.66632477 35.00761246 -0.4375 22.6875 C-0.3941479 20.47069787 -0.35052941 18.25390094 -0.30664062 16.03710938 C-0.20088503 10.69146357 -0.10054044 5.34575639 0 0 Z " fill="#EA9001" transform="translate(110,138)"/>
<path d="M0 0 C4.02155113 5.17457766 5.43228985 12.22641803 7.125 18.4375 C7.37636719 19.32759766 7.62773437 20.21769531 7.88671875 21.13476562 C11.56973854 34.33386009 13.72499555 47.56245672 15.125 61.1875 C15.21265625 61.98704102 15.3003125 62.78658203 15.390625 63.61035156 C16.25255842 72.49035106 16 80.9360651 16 90 C-9.74 90 -35.48 90 -62 90 C-62 63.69770408 -62 63.69770408 -60.48828125 55.8203125 C-59.98480293 52.91222171 -59.85389845 50.13513758 -59.75 47.1875 C-58.73521793 32.53547124 -54.80479924 13.62859878 -47 1 C-34.77713325 -7.01237341 -12.82433076 -6.4501972 0 0 Z " fill="#FEC342" transform="translate(173,43)"/>
<path d="M0 0 C-0.66 0 -1.32 0 -2 0 C-2.23783203 0.804375 -2.23783203 0.804375 -2.48046875 1.625 C-3.8884333 6.35451626 -5.33881225 11.06594229 -6.84765625 15.7644043 C-11.28919566 29.70904281 -13.62563528 43.12747748 -14.75048828 57.7109375 C-15 60 -15 60 -15.50708008 62.43041992 C-16.04353355 65.22693937 -16.20991298 67.89338971 -16.31640625 70.73828125 C-16.35830078 71.80498047 -16.40019531 72.87167969 -16.44335938 73.97070312 C-16.48267578 75.07349609 -16.52199219 76.17628906 -16.5625 77.3125 C-16.60568359 78.43462891 -16.64886719 79.55675781 -16.69335938 80.71289062 C-16.79914711 83.47512585 -16.90004983 86.23754739 -17 89 C-10.4 89 -3.8 89 3 89 C3 92.3 3 95.6 3 99 C2.67 99 2.34 99 2 99 C2 97.35 2 95.7 2 94 C-4.6 94 -11.2 94 -18 94 C-17.97679688 97.08214844 -17.95359375 100.16429687 -17.9296875 103.33984375 C-17.79087536 127.31233542 -18.06481748 151.09843719 -20 175 C-22.39721237 175.02711907 -24.79411393 175.04689607 -27.19140625 175.0625 C-27.86546509 175.07087891 -28.53952393 175.07925781 -29.23400879 175.08789062 C-34.1941785 175.1120792 -38.30665052 174.53252228 -43 173 C-43.12738556 162.76386255 -42.80074651 152.61810243 -42.20291138 142.40130615 C-41.45198077 129.55894014 -40.87267775 116.73544654 -40.5625 103.875 C-39.34086312 58.57482969 -39.34086312 58.57482969 -31.08984375 39.55078125 C-29.83518768 36.61425646 -28.77387584 33.62767158 -27.6875 30.625 C-24.15457084 21.40677252 -19.15046006 12.73200693 -13 5 C-12.34 5 -11.68 5 -11 5 C-10.67 4.01 -10.34 3.02 -10 2 C-4.03924775 -1.70891251 -4.03924775 -1.70891251 0 0 Z " fill="#EE9300" transform="translate(128,44)"/>
<path d="M0 0 C2.4375 0.8125 2.4375 0.8125 5.4375 2.8125 C6.39453125 5.0546875 6.39453125 5.0546875 7.25 7.6875 C9.0878842 12.60489246 10.98928954 13.99832603 15.4375 16.8125 C19.68347897 22.51567886 21.7874581 29.29244299 23.93359375 35.9921875 C25.86526584 39.61469984 27.7901255 40.05386433 31.4375 41.8125 C33.50104123 43.82920034 35.14606846 46.08788609 36.8125 48.4375 C37.52140381 49.42459961 37.52140381 49.42459961 38.24462891 50.43164062 C46.34093072 62.08154767 51.4946979 75.25347446 55.4375 88.8125 C55.73398438 89.81925781 56.03046875 90.82601562 56.3359375 91.86328125 C59.79194455 105.05427844 60.6178963 119.21339442 60.4375 132.8125 C51.73536393 133.97531933 43.06961849 133.92829895 34.3125 133.875 C32.86458489 133.86997252 31.41666808 133.86541183 29.96875 133.86132812 C26.45829741 133.85042705 22.94790993 133.83323202 19.4375 133.8125 C19.4375 135.7925 19.4375 137.7725 19.4375 139.8125 C14.04403012 139.83714849 8.65059275 139.85533531 3.25708008 139.86743164 C1.42081125 139.87247231 -0.41545354 139.87930477 -2.25170898 139.88793945 C-4.88526401 139.90001672 -7.51876616 139.90573081 -10.15234375 139.91015625 C-11.39140724 139.91789818 -11.39140724 139.91789818 -12.65550232 139.92579651 C-14.62486368 139.92599205 -16.59411614 139.87454152 -18.5625 139.8125 C-19.5625 138.8125 -19.5625 138.8125 -19.66015625 136.30859375 C-19.64855469 135.29925781 -19.63695312 134.28992188 -19.625 133.25 C-19.61597656 132.23808594 -19.60695312 131.22617188 -19.59765625 130.18359375 C-19.58605469 129.40113281 -19.57445312 128.61867187 -19.5625 127.8125 C21.67730265 127.60611047 21.67730265 127.60611047 38.4375 128.8125 C37.16286275 101.340713 35.26023093 72.77907111 25.4375 46.8125 C25.05851562 45.62140625 24.67953125 44.4303125 24.2890625 43.203125 C22.73221449 39.57473471 22.73221449 39.57473471 19.2421875 38.25390625 C17.94110806 37.92398189 16.62973922 37.63295079 15.3125 37.375 C14.61036377 37.22087646 13.90822754 37.06675293 13.18481445 36.90795898 C2.38571067 34.75627134 -8.76917997 34.54600776 -19.265625 38.15625 C-21.79231631 38.8781618 -23.94789821 38.92375965 -26.5625 38.8125 C-20.59320482 19.76155792 -20.59320482 19.76155792 -13.5625 13.8125 C-12.5725 13.4825 -11.5825 13.1525 -10.5625 12.8125 C-9.40144632 10.34912374 -8.59129023 7.8373922 -7.72265625 5.2578125 C-5.99939441 1.62561751 -4.11646172 -0.30120452 0 0 Z " fill="#ED9000" transform="translate(150.5625,4.1875)"/>
<path d="M0 0 C6.6 0 13.2 0 20 0 C20 1.65 20 3.3 20 5 C25.445 5.495 25.445 5.495 31 6 C31 31.08 31 56.16 31 82 C20.11 82 9.22 82 -2 82 C-2 74.359376 -1.96999456 66.87075149 -1.53515625 59.26953125 C-0.8994805 47.08065995 -0.66413415 34.88966749 -0.4375 22.6875 C-0.3941479 20.47069787 -0.35052941 18.25390094 -0.30664062 16.03710938 C-0.20088503 10.69146357 -0.10054044 5.34575639 0 0 Z " fill="#FEC442" transform="translate(110,138)"/>
<path d="M0 0 C6.27 0 12.54 0 19 0 C19.06058594 2.23136719 19.12117188 4.46273437 19.18359375 6.76171875 C19.24574369 8.96950483 19.30898019 11.17725738 19.37231445 13.38500977 C19.41511166 14.89669693 19.45681376 16.40841558 19.49731445 17.92016602 C19.69031627 25.09935698 19.89294819 32.25013348 20.53125 39.40625 C21.23897682 47.86659218 21.10728354 56.32982179 21.0625 64.8125 C21.05747056 66.48762886 21.05291023 68.16275919 21.04882812 69.83789062 C21.0388081 73.89199468 21.0192138 77.94588809 21 82 C10.44 82 -0.12 82 -11 82 C-11 56.92 -11 31.84 -11 6 C-7.37 6 -3.74 6 0 6 C0 4.02 0 2.04 0 0 Z " fill="#FFC443" transform="translate(170,138)"/>
<path d="M0 0 C4.24591853 -0.27690773 8.03398169 0.03392241 12.1875 1 C13.41533203 1.2784375 13.41533203 1.2784375 14.66796875 1.5625 C20.90159164 5.40500121 22.31948663 14.81250783 24.125 21.4375 C24.37636719 22.32759766 24.62773437 23.21769531 24.88671875 24.13476562 C31.15758484 46.60810508 33.51182053 69.71216604 33 93 C29.68751813 93.02888146 26.37506833 93.04675799 23.0625 93.0625 C22.11697266 93.07087891 21.17144531 93.07925781 20.19726562 93.08789062 C18.84858398 93.09272461 18.84858398 93.09272461 17.47265625 93.09765625 C16.22367554 93.10551147 16.22367554 93.10551147 14.94946289 93.11352539 C13 93 13 93 12 92 C10.48530552 91.76807135 8.96245438 91.58784762 7.4375 91.4375 C6.19806641 91.31181641 6.19806641 91.31181641 4.93359375 91.18359375 C4.29550781 91.12300781 3.65742188 91.06242187 3 91 C2.98018066 89.74904541 2.96036133 88.49809082 2.93994141 87.20922852 C2.58098217 65.22022584 2.20587554 43.26115637 0.66064453 21.31860352 C0.1603265 14.1945098 -0.12355119 7.14217384 0 0 Z " fill="#FEC442" transform="translate(156,40)"/>
<path d="M0 0 C10.89 0 21.78 0 33 0 C33.65114053 23.01084139 34.11990519 45.97820412 34 69 C22.78 69.33 11.56 69.66 0 70 C0 46.9 0 23.8 0 0 Z " fill="#FEC342" transform="translate(159,225)"/>
<path d="M0 0 C2.33342115 -0.02792658 4.6664844 -0.04726249 7 -0.0625 C8.9490625 -0.07990234 8.9490625 -0.07990234 10.9375 -0.09765625 C17.96655312 0.03793505 24.98333029 0.56145814 32 1 C32 23.77 32 46.54 32 70 C21.11 69.67 10.22 69.34 -1 69 C-1.19148936 18.59574468 -1.19148936 18.59574468 0 0 Z " fill="#FEC443" transform="translate(108,225)"/>
<path d="M0 0 C0.7609066 4.84912899 1.19308625 9.58307684 1.38891602 14.49584961 C1.43302612 15.56539886 1.43302612 15.56539886 1.47802734 16.65655518 C1.57336301 18.98836223 1.66367502 21.32033409 1.75390625 23.65234375 C1.81942632 25.2790297 1.88526262 26.90570295 1.95140076 28.53236389 C2.12387015 32.79501406 2.2920661 37.05782234 2.45935059 41.32067871 C2.63111 45.67808286 2.80694097 50.03532254 2.98242188 54.39257812 C3.32558319 62.92823032 3.66422675 71.464054 4 80 C-1.97428519 81.34805163 -7.49748483 82.24514736 -13.625 82.125 C-14.83414063 82.10695313 -16.04328125 82.08890625 -17.2890625 82.0703125 C-18.18367187 82.04710937 -19.07828125 82.02390625 -20 82 C-20.03758423 80.51173706 -20.03758423 80.51173706 -20.07592773 78.9934082 C-20.17137866 75.249013 -20.27124044 71.50474533 -20.37231445 67.76049805 C-20.4151509 66.15180481 -20.45685199 64.54308087 -20.49731445 62.93432617 C-20.77940603 51.67408786 -20.77940603 51.67408786 -21.53125 40.4375 C-22.19911464 32.52352223 -22.10848844 24.62267466 -22.0625 16.6875 C-22.05746888 15.15690253 -22.05290886 13.62630343 -22.04882812 12.09570312 C-22.03796424 8.39710089 -22.02079101 4.69856136 -22 1 C-20.12002804 0.83196946 -18.23975886 0.66726281 -16.359375 0.50390625 C-15.31233398 0.41181885 -14.26529297 0.31973145 -13.18652344 0.22485352 C-8.78576059 -0.08568147 -4.40868519 -0.08778355 0 0 Z " fill="#EE9300" transform="translate(211,137)"/>
<path d="M0 0 C-0.66 0 -1.32 0 -2 0 C-2.23783203 0.804375 -2.23783203 0.804375 -2.48046875 1.625 C-3.8884333 6.35451626 -5.33881225 11.06594229 -6.84765625 15.7644043 C-11.28919566 29.70904281 -13.62563528 43.12747748 -14.75048828 57.7109375 C-15 60 -15 60 -15.50708008 62.43041992 C-16.04353355 65.22693937 -16.20991298 67.89338971 -16.31640625 70.73828125 C-16.35830078 71.80498047 -16.40019531 72.87167969 -16.44335938 73.97070312 C-16.48267578 75.07349609 -16.52199219 76.17628906 -16.5625 77.3125 C-16.60568359 78.43462891 -16.64886719 79.55675781 -16.69335938 80.71289062 C-16.79914711 83.47512585 -16.90004983 86.23754739 -17 89 C-10.4 89 -3.8 89 3 89 C3 92.3 3 95.6 3 99 C2.67 99 2.34 99 2 99 C2 97.35 2 95.7 2 94 C1.01193359 94.00523682 0.02386719 94.01047363 -0.99414062 94.01586914 C-4.6917224 94.03409321 -8.38930028 94.0454951 -12.08691406 94.05493164 C-13.68132192 94.05993231 -15.27572525 94.06673501 -16.87011719 94.07543945 C-19.17383954 94.0876933 -21.47750078 94.0932711 -23.78125 94.09765625 C-24.83487732 94.10539818 -24.83487732 94.10539818 -25.90979004 94.11329651 C-30.68720941 94.11382708 -35.26878694 93.67025518 -40 93 C-37.58286075 53.52497188 -37.58286075 53.52497188 -31.0546875 39.3046875 C-29.75645416 36.46780723 -28.74414053 33.56011259 -27.6875 30.625 C-24.15457084 21.40677252 -19.15046006 12.73200693 -13 5 C-12.34 5 -11.68 5 -11 5 C-10.67 4.01 -10.34 3.02 -10 2 C-4.03924775 -1.70891251 -4.03924775 -1.70891251 0 0 Z " fill="#ED9000" transform="translate(128,44)"/>
<path d="M0 0 C5.61 0 11.22 0 17 0 C16.979375 1.68480469 16.95875 3.36960938 16.9375 5.10546875 C16.9375 10.90330537 17.27983744 16.62697998 17.71142578 22.40649414 C19.42414636 45.58908001 19.19450908 68.76813494 19 92 C21.97 92 24.94 92 28 92 C28 92.33 28 92.66 28 93 C15.79 93 3.58 93 -9 93 C-9 92.67 -9 92.34 -9 92 C-5.7 92 -2.4 92 1 92 C0.97643433 90.9028064 0.97643433 90.9028064 0.95239258 89.78344727 C0.41902811 60.12883299 2.25833932 30.59283107 4 1 C2.68 0.67 1.36 0.34 0 0 Z " fill="#ED9400" transform="translate(140,39)"/>
<path d="M0 0 C5.94 0 11.88 0 18 0 C18 25.08 18 50.16 18 76 C12.06 76 6.12 76 0 76 C0 50.92 0 25.84 0 0 Z " fill="#ED9300" transform="translate(141,144)"/>
<path d="M0 0 C11.55 0 23.1 0 35 0 C35 23.1 35 46.2 35 70 C28.73 70 22.46 70 16 70 C16 47.23 16 24.46 16 1 C10.72 1 5.44 1 0 1 C0 0.67 0 0.34 0 0 Z " fill="#EE9401" transform="translate(124,225)"/>
<path d="M0 0 C2.4375 0.8125 2.4375 0.8125 5.4375 2.8125 C6.39453125 5.0546875 6.39453125 5.0546875 7.25 7.6875 C9.0878842 12.60489246 10.98928954 13.99832603 15.4375 16.8125 C19.62427379 22.50747761 24.4375 31.64892923 24.4375 38.8125 C20.19738604 38.34137623 16.14575096 37.75266018 12 36.75 C1.73119602 34.6582066 -9.33051955 34.73907997 -19.265625 38.15625 C-21.79231631 38.8781618 -23.94789821 38.92375965 -26.5625 38.8125 C-20.59320482 19.76155792 -20.59320482 19.76155792 -13.5625 13.8125 C-12.5725 13.4825 -11.5825 13.1525 -10.5625 12.8125 C-9.40144632 10.34912374 -8.59129023 7.8373922 -7.72265625 5.2578125 C-5.99939441 1.62561751 -4.11646172 -0.30120452 0 0 Z " fill="#5D5C5B" transform="translate(150.5625,4.1875)"/>
<path d="M0 0 C12.54 0 25.08 0 38 0 C38 3.63 38 7.26 38 11 C36.21169552 12.78830448 33.80418848 12.12848711 31.42358398 12.13894653 C30.64442627 12.1369223 29.86526855 12.13489807 29.0625 12.1328125 C27.86959351 12.13424759 27.86959351 12.13424759 26.65258789 12.13571167 C24.9679354 12.13639343 23.28328029 12.13453943 21.59863281 12.13037109 C19.01100803 12.12502275 16.42355684 12.13031619 13.8359375 12.13671875 C12.20312461 12.13605797 10.57031184 12.1347768 8.9375 12.1328125 C8.15834229 12.13483673 7.37918457 12.13686096 6.57641602 12.13894653 C1.11495105 12.11495105 1.11495105 12.11495105 0 11 C0 7.37 0 3.74 0 0 Z " fill="#80807F" transform="translate(131,132)"/>
<path d="M0 0 C0 1.98 0 3.96 0 6 C-8.70213607 7.16281933 -17.36788151 7.11579895 -26.125 7.0625 C-27.57291511 7.05747252 -29.02083192 7.05291183 -30.46875 7.04882812 C-33.97920259 7.03792705 -37.48959007 7.02073202 -41 7 C-41 8.98 -41 10.96 -41 13 C-41.66 12.67 -42.32 12.34 -43 12 C-42.67 8.7 -42.34 5.4 -42 2 C-41.25951416 1.97494385 -40.51902832 1.9498877 -39.75610352 1.92407227 C-36.35810351 1.8070828 -32.96031183 1.68482853 -29.5625 1.5625 C-28.39783203 1.52318359 -27.23316406 1.48386719 -26.03320312 1.44335938 C-17.33584103 1.12486443 -8.69222606 -0.18494098 0 0 Z " fill="#AC6900" transform="translate(211,131)"/>
<path d="M0 0 C1.32 0 2.64 0 4 0 C3.67 14.19 3.34 28.38 3 43 C1.68 43 0.36 43 -1 43 C-3.11834035 40.88165965 -2.16419113 36.15396626 -2.16796875 33.22265625 C-2.17129715 32.34097275 -2.17462555 31.45928925 -2.17805481 30.55088806 C-2.18312783 28.68212406 -2.18546302 26.81335096 -2.18530273 24.94458008 C-2.18748808 22.07813656 -2.20563655 19.2120784 -2.22460938 16.34570312 C-2.22754339 14.53385549 -2.22952813 12.72200602 -2.23046875 10.91015625 C-2.23765427 10.0486647 -2.24483978 9.18717316 -2.25224304 8.29957581 C-2.2288216 2.2288216 -2.2288216 2.2288216 0 0 Z " fill="#181410" transform="translate(81,231)"/>
<path d="M0 0 C13.86 0.33 27.72 0.66 42 1 C42 4.3 42 7.6 42 11 C41.67 11 41.34 11 41 11 C41 9.35 41 7.7 41 6 C40.01193359 6.00523682 39.02386719 6.01047363 38.00585938 6.01586914 C34.3082776 6.03409321 30.61069972 6.0454951 26.91308594 6.05493164 C25.31867808 6.05993231 23.72427475 6.06673501 22.12988281 6.07543945 C19.82616046 6.0876933 17.52249922 6.0932711 15.21875 6.09765625 C14.16512268 6.10539818 14.16512268 6.10539818 13.09020996 6.11329651 C8.31279059 6.11382708 3.73121306 5.67025518 -1 5 C-0.67 3.35 -0.34 1.7 0 0 Z " fill="#AB6A00" transform="translate(89,132)"/>
<path d="M0 0 C2.4375 0.375 2.4375 0.375 5 1 C6.59488768 4.18977536 6.16301154 7.64505829 6.16796875 11.1484375 C6.17129715 11.95737457 6.17462555 12.76631165 6.17805481 13.59976196 C6.18312186 15.31292146 6.1854632 17.02609083 6.18530273 18.73925781 C6.18748548 21.35758808 6.20563294 23.97549453 6.22460938 26.59375 C6.2275441 28.25781106 6.22952837 29.92187412 6.23046875 31.5859375 C6.23765427 32.36834808 6.24483978 33.15075867 6.25224304 33.95687866 C6.23621147 37.78162822 6.16616044 40.76014943 4 44 C3.01 44 2.02 44 1 44 C0.09066152 29.3206789 -0.12375296 14.70565891 0 0 Z " fill="#191611" transform="translate(215,231)"/>
<path d="M0 0 C2.375 0.9375 2.375 0.9375 5.375 2.9375 C6.67646676 6.20455647 7.45854054 9.53350772 8.375 12.9375 C2.435 12.9375 -3.505 12.9375 -9.625 12.9375 C-6.35281065 -0.1512574 -6.35281065 -0.1512574 0 0 Z " fill="#020202" transform="translate(150.625,4.0625)"/>
<path d="M0 0 C10.56 0 21.12 0 32 0 C32 1.65 32 3.3 32 5 C21.44 5 10.88 5 0 5 C0 3.35 0 1.7 0 0 Z " fill="#DF9A00" transform="translate(159,220)"/>
<path d="M0 0 C2.97 0 5.94 0 9 0 C9.02687279 1.81242052 9.04633715 3.62495233 9.0625 5.4375 C9.07410156 6.44683594 9.08570313 7.45617187 9.09765625 8.49609375 C9 11 9 11 8 12 C4.17358183 12.31886818 1.4315505 11.71577525 -2 10 C-2.33 9.34 -2.66 8.68 -3 8 C-5.02463255 7.34786708 -5.02463255 7.34786708 -7 7 C-6.67 7.99 -6.34 8.98 -6 10 C-6.99 10.33 -7.98 10.66 -9 11 C-9.66 10.01 -10.32 9.02 -11 8 C-11.598125 8.309375 -12.19625 8.61875 -12.8125 8.9375 C-15 10 -15 10 -18 11 C-18 10.01 -18 9.02 -18 8 C-19.65 7.67 -21.3 7.34 -23 7 C-23 6.67 -23 6.34 -23 6 C-14.75 6 -6.5 6 2 6 C2 5.01 2 4.02 2 3 C1.34 3 0.68 3 0 3 C0 2.01 0 1.02 0 0 Z " fill="#6D6D6D" transform="translate(160,132)"/>
<path d="M0 0 C0.042721 1.66611905 0.04063832 3.33382885 0 5 C-3.18719903 8.18719903 -11.16031257 7.96814979 -15.3984375 8.12890625 C-18.26833817 8.12549782 -21.13159993 8.09010681 -24 8 C-24 6.02 -24 4.04 -24 2 C-20.75033015 1.66339508 -17.50021572 1.33128921 -14.25 1 C-13.32960937 0.90460938 -12.40921875 0.80921875 -11.4609375 0.7109375 C-10.12675781 0.57558594 -10.12675781 0.57558594 -8.765625 0.4375 C-7.94868164 0.35371094 -7.13173828 0.26992187 -6.29003906 0.18359375 C-4.19917501 0.01596798 -2.09757262 0 0 0 Z " fill="#AE6A00" transform="translate(215,217)"/>
<path d="M0 0 C3.64616671 0.13816959 7.29183074 0.28681534 10.9375 0.4375 C11.97841797 0.47681641 13.01933594 0.51613281 14.09179688 0.55664062 C15.08115234 0.59853516 16.07050781 0.64042969 17.08984375 0.68359375 C18.46450806 0.73858032 18.46450806 0.73858032 19.86694336 0.79467773 C22 1 22 1 23 2 C23.04063832 3.66617115 23.042721 5.33388095 23 7 C15.44862068 7.30071865 8.41143564 6.42625566 1 5 C0.67 3.35 0.34 1.7 0 0 Z " fill="#AB6A00" transform="translate(86,218)"/>
<path d="M0 0 C6.27 0 12.54 0 19 0 C19 0.99 19 1.98 19 3 C19.66 3 20.32 3 21 3 C21 3.99 21 4.98 21 6 C13.08 6 5.16 6 -3 6 C-3 5.67 -3 5.34 -3 5 C-1.35 4.67 0.3 4.34 2 4 C1.34 3.67 0.68 3.34 0 3 C0 2.01 0 1.02 0 0 Z " fill="#8A8A8A" transform="translate(141,132)"/>
<path d="M0 0 C6.6 0 13.2 0 20 0 C20 1.65 20 3.3 20 5 C13.73 5 7.46 5 1 5 C1 6.98 1 8.96 1 11 C0.34 10.67 -0.32 10.34 -1 10 C-0.67 6.7 -0.34 3.4 0 0 Z " fill="#E29D01" transform="translate(169,133)"/>
<path d="M0 0 C6.6 0 13.2 0 20 0 C20 3.3 20 6.6 20 10 C19.67 10 19.34 10 19 10 C19 8.35 19 6.7 19 5 C12.73 5 6.46 5 0 5 C0 3.35 0 1.7 0 0 Z " fill="#DD9B05" transform="translate(111,133)"/>
<path d="M0 0 C3.3 0 6.6 0 10 0 C9.53898164 4.70238725 8.96823597 8.23262357 6 12 C5.01 12 4.02 12 3 12 C-0.19703098 8.09251769 -0.28999491 4.92991345 0 0 Z " fill="#311D11" transform="translate(102,77)"/>
<path d="M0 0 C5.94 0 11.88 0 18 0 C18 1.65 18 3.3 18 5 C12.06 5 6.12 5 0 5 C0 3.35 0 1.7 0 0 Z " fill="#A96800" transform="translate(141,220)"/>
<path d="M0 0 C2.97 0 5.94 0 9 0 C9.28571429 8.57142857 9.28571429 8.57142857 7 12 C4.13275314 11.42655063 3.1385485 11.1385485 1 9 C0.42815065 6.0112779 0.26035378 3.03746074 0 0 Z " fill="#2C1A11" transform="translate(188,77)"/>
<path d="M0 0 C1.32 0.66 2.64 1.32 4 2 C4 2.66 4 3.32 4 4 C4.66 3.34 5.32 2.68 6 2 C6 1.34 6 0.68 6 0 C7.98 0 9.96 0 12 0 C12 0.99 12 1.98 12 3 C12.66 3.33 13.32 3.66 14 4 C14.33 2.68 14.66 1.36 15 0 C15.33 1.65 15.66 3.3 16 5 C5.77 5 -4.46 5 -15 5 C-15 4.67 -15 4.34 -15 4 C-14.16855469 3.96261719 -13.33710938 3.92523438 -12.48046875 3.88671875 C-11.39378906 3.82097656 -10.30710938 3.75523437 -9.1875 3.6875 C-8.10855469 3.62949219 -7.02960938 3.57148438 -5.91796875 3.51171875 C-2.82502483 2.96931493 -1.86977097 2.44710376 0 0 Z " fill="#A38233" transform="translate(147,139)"/>
<path d="M0 0 C3 1 3 1 4.1875 2.6875 C5.19313465 5.54969093 5.13689641 7.98827908 5 11 C4.67 10.34 4.34 9.68 4 9 C1.69 9 -0.62 9 -3 9 C-3.26218749 5.85375007 -3.24754367 4.38162983 -1.5 1.6875 C-1.005 1.130625 -0.51 0.57375 0 0 Z " fill="#422D0F" transform="translate(133,279)"/>
<path d="M0 0 C3.875 0.875 3.875 0.875 5 2 C5.04092937 4.33297433 5.04241723 6.66705225 5 9 C2.69 9 0.38 9 -2 9 C-2.25 3.375 -2.25 3.375 0 0 Z " fill="#331B16" transform="translate(97,278)"/>
<path d="M0 0 C2.125 0.375 2.125 0.375 4 1 C4.33 3.64 4.66 6.28 5 9 C2.69 9 0.38 9 -2 9 C-2.125 5.625 -2.125 5.625 -2 2 C-1.34 1.34 -0.68 0.68 0 0 Z " fill="#341D17" transform="translate(200,278)"/>
<path d="M0 0 C3 1 3 1 4 3 C4.039992 4.99960012 4.04346799 7.00047242 4 9 C1.69 9 -0.62 9 -3 9 C-3.36923077 3.46153846 -3.36923077 3.46153846 -1.5 1.125 C-1.005 0.75375 -0.51 0.3825 0 0 Z " fill="#36280F" transform="translate(165,279)"/>
<path d="M0 0 C1.51400391 0.01740234 1.51400391 0.01740234 3.05859375 0.03515625 C4.07050781 0.04417969 5.08242187 0.05320313 6.125 0.0625 C7.29869141 0.07990234 7.29869141 0.07990234 8.49609375 0.09765625 C8.49609375 1.08765625 8.49609375 2.07765625 8.49609375 3.09765625 C7.50609375 3.09765625 6.51609375 3.09765625 5.49609375 3.09765625 C5.49609375 3.75765625 5.49609375 4.41765625 5.49609375 5.09765625 C2.85609375 5.09765625 0.21609375 5.09765625 -2.50390625 5.09765625 C-3.06640625 3.16015625 -3.06640625 3.16015625 -3.50390625 1.09765625 C-2.50390625 0.09765625 -2.50390625 0.09765625 0 0 Z " fill="#666767" transform="translate(149.50390625,131.90234375)"/>
<path d="M0 0 C1.62418745 -0.08090971 3.24951745 -0.13914995 4.875 -0.1875 C5.77992188 -0.22230469 6.68484375 -0.25710937 7.6171875 -0.29296875 C8.79667969 -0.14794922 8.79667969 -0.14794922 10 0 C10.66 0.99 11.32 1.98 12 3 C12.99 3.33 13.98 3.66 15 4 C15 4.33 15 4.66 15 5 C11.7 5 8.4 5 5 5 C4.67 4.01 4.34 3.02 4 2 C2.68 2 1.36 2 0 2 C0 1.34 0 0.68 0 0 Z " fill="#707070" transform="translate(131,132)"/>
<path d="M0 0 C1.98 0 3.96 0 6 0 C6 0.99 6 1.98 6 3 C6.66 3.33 7.32 3.66 8 4 C8.33 2.68 8.66 1.36 9 0 C9.33 1.65 9.66 3.3 10 5 C6.7 4.67 3.4 4.34 0 4 C0 2.68 0 1.36 0 0 Z " fill="#A6A294" transform="translate(153,139)"/>
<path d="M0 0 C1.98 0 3.96 0 6 0 C6 1.98 6 3.96 6 6 C3.03 6 0.06 6 -3 6 C-3 5.67 -3 5.34 -3 5 C-1.35 4.67 0.3 4.34 2 4 C1.34 3.67 0.68 3.34 0 3 C0 2.01 0 1.02 0 0 Z " fill="#969696" transform="translate(141,132)"/>
<path d="M0 0 C1.98 0 3.96 0 6 0 C5.67 2.31 5.34 4.62 5 7 C4.34 6.67 3.68 6.34 3 6 C3 5.01 3 4.02 3 3 C2.01 3 1.02 3 0 3 C0 2.01 0 1.02 0 0 Z " fill="#E62E4A" transform="translate(198,287)"/>
<path d="M0 0 C0 0.99 0 1.98 0 3 C-2.97 3 -5.94 3 -9 3 C-9 2.34 -9 1.68 -9 1 C-5.92677456 0.08941469 -3.19902639 -0.08886184 0 0 Z " fill="#61615F" transform="translate(140,140)"/>
<path d="M0 0 C2.31 0 4.62 0 7 0 C7 0.99 7 1.98 7 3 C4.69 3 2.38 3 0 3 C0 2.01 0 1.02 0 0 Z " fill="#D70684" transform="translate(162,288)"/>
<path d="M0 0 C2.97 0 5.94 0 9 0 C8.67 0.66 8.34 1.32 8 2 C5.35139573 2.59355614 2.70802678 2.74209269 0 3 C0 2.01 0 1.02 0 0 Z " fill="#5F5F5D" transform="translate(160,132)"/>
<path d="M0 0 C2.31 0 4.62 0 7 0 C7 0.99 7 1.98 7 3 C5.02 3 3.04 3 1 3 C0.67 2.01 0.34 1.02 0 0 Z " fill="#D70485" transform="translate(130,288)"/>
<path d="M0 0 C2.64 0 5.28 0 8 0 C6.515 1.98 6.515 1.98 5 4 C1.125 2.25 1.125 2.25 0 0 Z " fill="#A09F9F" transform="translate(148,132)"/>
<path d="M0 0 C1.32 0.66 2.64 1.32 4 2 C4 2.66 4 3.32 4 4 C1.69 4 -0.62 4 -3 4 C-2.01 2.68 -1.02 1.36 0 0 Z " fill="#A3A3A2" transform="translate(147,139)"/>
<path d="M0 0 C2.97 0.495 2.97 0.495 6 1 C5.67 1.99 5.34 2.98 5 4 C3.35 4 1.7 4 0 4 C0 2.68 0 1.36 0 0 Z " fill="#716A51" transform="translate(163,140)"/>
</svg>
