<?xml version="1.0" encoding="UTF-8"?>
<svg version="1.1" xmlns="http://www.w3.org/2000/svg" width="300" height="300">
<path d="M0 0 C2.4375 0.8125 2.4375 0.8125 5.4375 2.8125 C6.39453125 5.0546875 6.39453125 5.0546875 7.25 7.6875 C9.0878842 12.60489246 10.98928954 13.99832603 15.4375 16.8125 C19.68347897 22.51567886 21.7874581 29.29244299 23.93359375 35.9921875 C25.86526584 39.61469984 27.7901255 40.05386433 31.4375 41.8125 C33.50104123 43.82920034 35.14606846 46.08788609 36.8125 48.4375 C37.28510254 49.09556641 37.75770508 49.75363281 38.24462891 50.43164062 C46.34093072 62.08154767 51.4946979 75.25347446 55.4375 88.8125 C55.73398438 89.81925781 56.03046875 90.82601562 56.3359375 91.86328125 C61.90526944 113.12048384 61.11049542 136.32608084 62.05342102 158.15779114 C62.34569702 164.87351842 62.66855982 171.58727414 63.0078125 178.30078125 C63.10160636 180.17740666 63.19535689 182.05403424 63.2890625 183.93066406 C63.42285948 186.60767111 63.55778878 189.28458632 63.69726562 191.96130371 C64.30155445 203.58991759 64.54757427 215.16821488 64.4375 226.8125 C65.6440625 226.998125 65.6440625 226.998125 66.875 227.1875 C67.720625 227.39375 68.56625 227.6 69.4375 227.8125 C71.03238768 231.00227536 70.60051154 234.45755829 70.60546875 237.9609375 C70.60879715 238.76987457 70.61212555 239.57881165 70.61555481 240.41226196 C70.62062186 242.12542146 70.6229632 243.83859083 70.62280273 245.55175781 C70.62498548 248.17008808 70.64313294 250.78799453 70.66210938 253.40625 C70.6650441 255.07031106 70.66702837 256.73437412 70.66796875 258.3984375 C70.67515427 259.18084808 70.68233978 259.96325867 70.68974304 260.76937866 C70.67371147 264.59412822 70.60366044 267.57264943 68.4375 270.8125 C67.7775 270.8125 67.1175 270.8125 66.4375 270.8125 C66.6025 271.555 66.7675 272.2975 66.9375 273.0625 C67.63804587 278.31659401 67.51457499 283.52001749 67.4375 288.8125 C57.41832917 289.96226404 47.38449367 290.15085217 37.3125 290.375 C35.95742844 290.40626984 35.95742844 290.40626984 34.57498169 290.43817139 C10.05737416 290.99680383 -14.42055542 290.95576415 -38.9375 290.375 C-39.79248077 290.3554425 -40.64746155 290.33588501 -41.52835083 290.31573486 C-50.57338522 290.10296712 -59.56432301 289.83473505 -68.5625 288.8125 C-68.52769531 287.62011719 -68.49289063 286.42773438 -68.45703125 285.19921875 C-68.42889247 283.63282658 -68.4015924 282.06641919 -68.375 280.5 C-68.34986328 279.71431641 -68.32472656 278.92863281 -68.29882812 278.11914062 C-68.28916016 277.36181641 -68.27949219 276.60449219 -68.26953125 275.82421875 C-68.2538208 275.12772217 -68.23811035 274.43122559 -68.22192383 273.71362305 C-68.38462413 271.69670581 -68.38462413 271.69670581 -70.06051636 270.44247437 C-72.71437747 267.56246591 -71.96598888 263.56468845 -71.92578125 259.83984375 C-71.92627975 258.96099014 -71.92677826 258.08213654 -71.92729187 257.176651 C-71.92495218 255.31981137 -71.9152298 253.46296853 -71.89868164 251.60620117 C-71.87506105 248.75736283 -71.87812481 245.90945842 -71.88476562 243.06054688 C-71.87918984 241.2578069 -71.87208059 239.45507087 -71.86328125 237.65234375 C-71.86419266 236.79712631 -71.86510406 235.94190887 -71.86604309 235.06077576 C-71.7935314 229.0435314 -71.7935314 229.0435314 -69.5625 226.8125 C-68.2425 226.8125 -66.9225 226.8125 -65.5625 226.8125 C-65.57297363 226.13300293 -65.58344727 225.45350586 -65.59423828 224.75341797 C-65.81608083 207.7950998 -65.32548116 190.98501808 -64.34204102 174.05859375 C-63.75700165 163.93255588 -63.36761034 153.82758236 -63.125 143.6875 C-61.90454137 98.39004633 -61.90454137 98.39004633 -53.65234375 79.36328125 C-52.39768768 76.42675646 -51.33637584 73.44017158 -50.25 70.4375 C-46.71707084 61.21927252 -41.71296006 52.54450693 -35.5625 44.8125 C-34.9025 44.8125 -34.2425 44.8125 -33.5625 44.8125 C-33.2325 43.8225 -32.9025 42.8325 -32.5625 41.8125 C-31.61375 41.6475 -30.665 41.4825 -29.6875 41.3125 C-26.41788615 40.176644 -26.41788615 40.176644 -25.67578125 37.59375 C-25.2104494 35.67862699 -24.76357477 33.75895598 -24.33203125 31.8359375 C-22.53254002 24.7658552 -19.24321568 18.44676805 -13.5625 13.8125 C-12.5725 13.4825 -11.5825 13.1525 -10.5625 12.8125 C-9.40144632 10.34912374 -8.59129023 7.8373922 -7.72265625 5.2578125 C-5.99939441 1.62561751 -4.11646172 -0.30120452 0 0 Z " fill="#E60008" transform="translate(150.5625,4.1875)"/>
<path d="M0 0 C2.4375 0.8125 2.4375 0.8125 5.4375 2.8125 C6.39453125 5.0546875 6.39453125 5.0546875 7.25 7.6875 C9.0878842 12.60489246 10.98928954 13.99832603 15.4375 16.8125 C19.62427379 22.50747761 24.4375 31.64892923 24.4375 38.8125 C23.4475 39.3075 23.4475 39.3075 22.4375 39.8125 C22.74042969 40.40933594 23.04335937 41.00617187 23.35546875 41.62109375 C29.79038619 54.94632278 33.19795372 69.24646224 35.4375 83.8125 C35.63214844 85.06546875 35.82679688 86.3184375 36.02734375 87.609375 C37.87715823 101.27369799 38.06772964 115.0434193 38.4375 128.8125 C32.1675 128.8125 25.8975 128.8125 19.4375 128.8125 C19.4375 130.7925 19.4375 132.7725 19.4375 134.8125 C25.7075 134.8125 31.9775 134.8125 38.4375 134.8125 C40.73719419 190.18864679 40.73719419 190.18864679 40.4375 215.8125 C29.8775 215.8125 19.3175 215.8125 8.4375 215.8125 C8.4375 190.7325 8.4375 165.6525 8.4375 139.8125 C2.4975 139.8125 -3.4425 139.8125 -9.5625 139.8125 C-9.5625 164.8925 -9.5625 189.9725 -9.5625 215.8125 C-20.1225 215.8125 -30.6825 215.8125 -41.5625 215.8125 C-41.64847533 200.42291531 -41.53735893 185.07027242 -41.125 169.6875 C-41.10535187 168.92297516 -41.08570374 168.15845032 -41.06546021 167.37075806 C-40.78168376 156.49985859 -40.24586649 145.66596782 -39.5625 134.8125 C-33.2925 134.8125 -27.0225 134.8125 -20.5625 134.8125 C-20.5625 132.5025 -20.5625 130.1925 -20.5625 127.8125 C-19.5625 126.8125 -19.5625 126.8125 -16.87866211 126.69897461 C-15.71085205 126.70421143 -14.54304199 126.70944824 -13.33984375 126.71484375 C-11.44975586 126.71967773 -11.44975586 126.71967773 -9.52148438 126.72460938 C-8.18098891 126.73296597 -6.84049412 126.74143093 -5.5 126.75 C-4.15560058 126.7550134 -2.8111994 126.75957658 -1.46679688 126.76367188 C1.83467941 126.77550512 5.13606803 126.79199029 8.4375 126.8125 C8.19727887 118.59651351 7.95399906 110.38062527 7.70700932 102.16483974 C7.59236526 98.34829695 7.47870312 94.53173062 7.36743164 90.71508789 C7.25964049 87.01914593 7.14907874 83.32329556 7.03674126 79.62748909 C6.99473526 78.23041672 6.95366188 76.83331593 6.9136219 75.43618584 C6.67141582 67.01052139 6.27029698 58.62501216 5.64353943 50.21986389 C5.33289526 45.08260582 5.35128566 39.95662253 5.4375 34.8125 C2.06140404 35.09226708 -1.31306245 35.3884427 -4.6875 35.6875 C-5.63882813 35.76613281 -6.59015625 35.84476563 -7.5703125 35.92578125 C-12.55645141 36.37591879 -16.82079399 37.13812904 -21.5625 38.8125 C-24.4375 38.9375 -24.4375 38.9375 -26.5625 38.8125 C-20.59320482 19.76155792 -20.59320482 19.76155792 -13.5625 13.8125 C-12.5725 13.4825 -11.5825 13.1525 -10.5625 12.8125 C-9.40144632 10.34912374 -8.59129023 7.8373922 -7.72265625 5.2578125 C-5.99939441 1.62561751 -4.11646172 -0.30120452 0 0 Z " fill="#FC433C" transform="translate(150.5625,4.1875)"/>
<path d="M0 0 C1.07258057 0.00281982 2.14516113 0.00563965 3.25024414 0.00854492 C4.06356201 0.01217041 4.87687988 0.0157959 5.71484375 0.01953125 C8.28434066 30.69640708 8.8932139 61.2575407 8.71484375 92.01953125 C7.87187744 92.0445874 7.02891113 92.06964355 6.16040039 92.09545898 C3.04242701 92.1904128 -0.07537128 92.28965573 -3.19311523 92.3918457 C-4.54429772 92.43524348 -5.89553678 92.47691495 -7.24682617 92.5168457 C-9.18552326 92.57443077 -11.12401901 92.63867423 -13.0625 92.703125 C-14.23031006 92.73978271 -15.39812012 92.77644043 -16.60131836 92.81420898 C-19.2029542 92.72029313 -19.2029542 92.72029313 -20.28515625 94.01953125 C-21.70085748 94.10604736 -23.12075125 94.12658029 -24.5390625 94.1171875 C-25.39306641 94.11396484 -26.24707031 94.11074219 -27.12695312 94.10742188 C-28.02478516 94.09904297 -28.92261719 94.09066406 -29.84765625 94.08203125 C-30.74935547 94.07751953 -31.65105469 94.07300781 -32.58007812 94.06835938 C-34.81516939 94.0565335 -37.05013062 94.04005345 -39.28515625 94.01953125 C-40.58593423 63.9571069 -35.74636559 32.86514982 -24.28515625 5.01953125 C-24.94515625 4.68953125 -25.60515625 4.35953125 -26.28515625 4.01953125 C-17.35234263 1.36473244 -9.31357055 -0.03183038 0 0 Z " fill="#FE433C" transform="translate(150.28515625,38.98046875)"/>
<path d="M0 0 C-0.59351314 3.37115464 -1.46272015 6.33455774 -2.75 9.5 C-11.89978396 34.59560312 -14.17161175 62.49157615 -15 89 C-8.73 89 -2.46 89 4 89 C4 90.98 4 92.96 4 95 C-2.27 95 -8.54 95 -15 95 C-14.979375 97.13339844 -14.95875 99.26679688 -14.9375 101.46484375 C-14.89296974 115.10484439 -15.47147073 128.74116117 -15.92712402 142.3717041 C-16.04979997 146.05958554 -16.16928088 149.7475705 -16.2890625 153.43554688 C-16.52298485 160.62380054 -16.76034485 167.81193493 -17 175 C-19.52090778 175.0272367 -22.04151457 175.04695207 -24.5625 175.0625 C-25.26697266 175.07087891 -25.97144531 175.07925781 -26.69726562 175.08789062 C-31.24024798 175.10882603 -35.51784892 174.74800682 -40 174 C-39.505 176.475 -39.505 176.475 -39 179 C-39.66 179 -40.32 179 -41 179 C-41.32005072 164.17098351 -40.62179481 149.45021212 -39.77954102 134.65234375 C-39.20070611 124.39148217 -38.80944614 114.14913831 -38.5625 103.875 C-37.34136837 58.57599461 -37.34136837 58.57599461 -29.08984375 39.55078125 C-27.83518768 36.61425646 -26.77387584 33.62767158 -25.6875 30.625 C-22.15457084 21.40677252 -17.15046006 12.73200693 -11 5 C-10.34 5 -9.68 5 -9 5 C-8.67 4.01 -8.34 3.02 -8 2 C-5.01540871 0.04457812 -3.73585209 0 0 0 Z " fill="#E90108" transform="translate(126,44)"/>
<path d="M0 0 C7.3760512 1.26446592 10.9401086 3.43084937 15.3125 9.5625 C15.78961426 10.22507812 16.26672852 10.88765625 16.75830078 11.5703125 C24.88614785 23.23212459 30.049442 36.41430246 34 50 C34.44472656 51.51013672 34.44472656 51.51013672 34.8984375 53.05078125 C40.91323976 76.00826908 39.86799101 101.32767369 40.86853027 124.90893555 C41.0052564 128.12358651 41.143539 131.33816746 41.28222656 134.55273438 C41.86374702 148.03478488 42.43629053 161.51719338 43 175 C37.27175976 175.73604941 31.71308566 176.1145323 25.9375 176.0625 C24.62652344 176.05347656 23.31554687 176.04445312 21.96484375 176.03515625 C20.98644531 176.02355469 20.00804687 176.01195312 19 176 C17.74353297 149.32012552 16.64645066 122.71261648 17 96 C10.73 96 4.46 96 -2 96 C-2 94.02 -2 92.04 -2 90 C4.27 90 10.54 90 17 90 C15.09743307 59.33509774 12.70876701 28.40560721 0 0 Z " fill="#E90008" transform="translate(172,43)"/>
<path d="M0 0 C6.27 0 12.54 0 19 0 C19.33 1.32 19.66 2.64 20 4 C23.3 4.33 26.6 4.66 30 5 C30 30.08 30 55.16 30 81 C19.44 81 8.88 81 -2 81 C-2.08597533 65.61041531 -1.97485893 50.25777242 -1.5625 34.875 C-1.54285187 34.11047516 -1.52320374 33.34595032 -1.50296021 32.55825806 C-1.21918376 21.68735859 -0.68336649 10.85346782 0 0 Z " fill="#FE433C" transform="translate(111,139)"/>
<path d="M0 0 C6.27 0 12.54 0 19 0 C21.29969419 55.37614679 21.29969419 55.37614679 21 81 C10.44 81 -0.12 81 -11 81 C-11 55.92 -11 30.84 -11 5 C-6.545 4.505 -6.545 4.505 -2 4 C-1.34 2.68 -0.68 1.36 0 0 Z " fill="#FE433C" transform="translate(170,139)"/>
<path d="M0 0 C10.56 0 21.12 0 32 0 C32.63110678 9.46660167 33.17305679 18.80993022 33.31640625 28.27734375 C33.33718735 29.45470596 33.35796844 30.63206818 33.37937927 31.84510803 C33.44386254 35.54252274 33.50328002 39.23999765 33.5625 42.9375 C33.60578193 45.47070892 33.64939898 48.00391214 33.69335938 50.53710938 C33.80005697 56.69134604 33.89987713 62.84563896 34 69 C22.78 69.33 11.56 69.66 0 70 C0 46.9 0 23.8 0 0 Z " fill="#FE433C" transform="translate(159,225)"/>
<path d="M0 0 C2.33342115 -0.02792658 4.6664844 -0.04726249 7 -0.0625 C8.9490625 -0.07990234 8.9490625 -0.07990234 10.9375 -0.09765625 C17.96655312 0.03793505 24.98333029 0.56145814 32 1 C32 23.77 32 46.54 32 70 C21.11 69.67 10.22 69.34 -1 69 C-1.06339429 54.11819091 -0.81126836 39.25320976 -0.5 24.375 C-0.45165649 22.00000338 -0.40347831 19.62500339 -0.35546875 17.25 C-0.238881 11.49995983 -0.12026827 5.74996431 0 0 Z " fill="#FE443D" transform="translate(108,225)"/>
<path d="M0 0 C5.36997734 -0.21918275 10.49195635 0.26368026 15.80859375 1.0078125 C16.50174683 1.10263916 17.1948999 1.19746582 17.90905762 1.29516602 C19.60636845 1.52771442 21.30323153 1.76352681 23 2 C23.02570585 8.93358554 23.04301328 15.86715845 23.05493164 22.80078125 C23.05990898 25.15137186 23.06669326 27.50195946 23.07543945 29.85253906 C23.12527328 43.60667433 22.99003028 57.27797948 22 71 C13.5970683 71.0893405 5.35489327 70.95484494 -3 70 C-2.96519531 68.80761719 -2.93039063 67.61523438 -2.89453125 66.38671875 C-2.86639247 64.82032658 -2.8390924 63.25391919 -2.8125 61.6875 C-2.78736328 60.90181641 -2.76222656 60.11613281 -2.73632812 59.30664062 C-2.72666016 58.54931641 -2.71699219 57.79199219 -2.70703125 57.01171875 C-2.6913208 56.31522217 -2.67561035 55.61872559 -2.65942383 54.90112305 C-2.82212413 52.88420581 -2.82212413 52.88420581 -4.49801636 51.62997437 C-7.15187747 48.74996591 -6.40348888 44.75218845 -6.36328125 41.02734375 C-6.36377975 40.14849014 -6.36427826 39.26963654 -6.36479187 38.364151 C-6.36245218 36.50731137 -6.3527298 34.65046853 -6.33618164 32.79370117 C-6.31256105 29.94486283 -6.31562481 27.09695842 -6.32226562 24.24804688 C-6.31668984 22.4453069 -6.30958059 20.64257087 -6.30078125 18.83984375 C-6.30169266 17.98462631 -6.30260406 17.12940887 -6.30354309 16.24827576 C-6.2310314 10.2310314 -6.2310314 10.2310314 -4 8 C-2.68 8 -1.36 8 0 8 C0 5.36 0 2.72 0 0 Z " fill="#E6000A" transform="translate(85,223)"/>
<path d="M0 0 C7.3760512 1.26446592 10.9401086 3.43084937 15.3125 9.5625 C15.78961426 10.22507812 16.26672852 10.88765625 16.75830078 11.5703125 C24.88614785 23.23212459 30.049442 36.41430246 34 50 C34.44472656 51.51013672 34.44472656 51.51013672 34.8984375 53.05078125 C38.35444455 66.24177844 39.1803963 80.40089442 39 94 C33.96145894 94.83211276 29.1874338 95.1078534 24.0625 95.0625 C23.37865234 95.05798828 22.69480469 95.05347656 21.99023438 95.04882812 C20.32678396 95.0371956 18.6633795 95.01926694 17 95 C16.93268677 93.67331299 16.93268677 93.67331299 16.86401367 92.31982422 C15.22506308 60.84299229 13.05563401 29.18089626 0 0 Z " fill="#E8000A" transform="translate(172,43)"/>
<path d="M0 0 C-0.59351314 3.37115464 -1.46272015 6.33455774 -2.75 9.5 C-12.47195897 36.16493819 -14.55365511 65.83409834 -15 94 C-17.33341499 94.02734471 -19.66649949 94.04700237 -22 94.0625 C-23.9490625 94.07990234 -23.9490625 94.07990234 -25.9375 94.09765625 C-30.01839848 94.0667101 -33.96157891 93.57241013 -38 93 C-35.58286075 53.52497188 -35.58286075 53.52497188 -29.0546875 39.3046875 C-27.75645416 36.46780723 -26.74414053 33.56011259 -25.6875 30.625 C-22.15457084 21.40677252 -17.15046006 12.73200693 -11 5 C-10.34 5 -9.68 5 -9 5 C-8.67 4.01 -8.34 3.02 -8 2 C-5.01540871 0.04457812 -3.73585209 0 0 0 Z " fill="#E8000A" transform="translate(126,44)"/>
<path d="M0 0 C3.96 0 7.92 0 12 0 C14.54459336 30.68334905 15.16384458 61.23362955 15 92 C9.06 92 3.12 92 -3 92 C-3.02474561 84.56185142 -3.04288171 77.12372688 -3.05493164 69.68554688 C-3.05995589 67.15592023 -3.06677638 64.62629649 -3.07543945 62.09667969 C-3.08758853 58.45767501 -3.09324746 54.81870878 -3.09765625 51.1796875 C-3.10281754 50.05134491 -3.10797882 48.92300232 -3.11329651 47.76046753 C-3.11337204 46.69982086 -3.11344757 45.63917419 -3.11352539 44.54638672 C-3.115746 43.61817108 -3.11796661 42.68995544 -3.12025452 41.73361206 C-2.98929386 38.75662933 -2.52255853 35.93134498 -2 33 C-1.87216177 31.07748433 -1.77920296 29.1523752 -1.71875 27.2265625 C-1.68136719 26.1540625 -1.64398438 25.0815625 -1.60546875 23.9765625 C-1.57066406 22.87054688 -1.53585938 21.76453125 -1.5 20.625 C-1.28021767 13.68964633 -1.00299685 6.8705284 0 0 Z " fill="#E90007" transform="translate(144,39)"/>
<path d="M0 0 C5.94 0 11.88 0 18 0 C18 25.08 18 50.16 18 76 C12.06 76 6.12 76 0 76 C0 50.92 0 25.84 0 0 Z " fill="#E80008" transform="translate(141,144)"/>
<path d="M0 0 C11.55 0 23.1 0 35 0 C35 23.1 35 46.2 35 70 C28.73 70 22.46 70 16 70 C16 47.23 16 24.46 16 1 C10.72 1 5.44 1 0 1 C0 0.67 0 0.34 0 0 Z " fill="#E90108" transform="translate(124,225)"/>
<path d="M0 0 C2.4375 0.8125 2.4375 0.8125 5.4375 2.8125 C6.39453125 5.0546875 6.39453125 5.0546875 7.25 7.6875 C9.0878842 12.60489246 10.98928954 13.99832603 15.4375 16.8125 C19.62427379 22.50747761 24.4375 31.64892923 24.4375 38.8125 C16.6875 37.9375 16.6875 37.9375 14.4375 36.8125 C4.17934447 35.32341291 -5.58455264 35.40902556 -15.78125 37.30078125 C-19.36318602 37.95981723 -22.94542632 38.39514534 -26.5625 38.8125 C-20.59320482 19.76155792 -20.59320482 19.76155792 -13.5625 13.8125 C-12.5725 13.4825 -11.5825 13.1525 -10.5625 12.8125 C-9.40144632 10.34912374 -8.59129023 7.8373922 -7.72265625 5.2578125 C-5.99939441 1.62561751 -4.11646172 -0.30120452 0 0 Z " fill="#5B5A5A" transform="translate(150.5625,4.1875)"/>
<path d="M0 0 C12.87 0 25.74 0 39 0 C39 3.63 39 7.26 39 11 C37.18434564 12.81565436 34.68730038 12.12861899 32.27111816 12.13894653 C31.47008667 12.1369223 30.66905518 12.13489807 29.84375 12.1328125 C28.61754944 12.13424759 28.61754944 12.13424759 27.36657715 12.13571167 C25.63484622 12.13639345 23.90311276 12.13453929 22.17138672 12.13037109 C19.51133518 12.12502279 16.8514525 12.13031612 14.19140625 12.13671875 C12.51302046 12.13605797 10.83463477 12.1347768 9.15625 12.1328125 C8.35521851 12.13483673 7.55418701 12.13686096 6.72888184 12.13894653 C1.11495079 12.11495079 1.11495079 12.11495079 0 11 C0 7.37 0 3.74 0 0 Z " fill="#777776" transform="translate(130,132)"/>
<path d="M0 0 C0.55828995 0.02734726 1.1165799 0.05469452 1.69178772 0.08287048 C17.60456351 0.84947813 33.50952446 1.27726105 49.4375 1.5625 C51.74154132 1.60586216 54.04557783 1.64948083 56.34960938 1.69335938 C61.8996879 1.79851339 67.44981622 1.90056429 73 2 C73 3.65 73 5.3 73 7 C65.38425209 7.04665034 57.76851928 7.08203343 50.15266037 7.10362434 C46.61506804 7.11399477 43.07757454 7.12802821 39.54003906 7.15087891 C35.45897556 7.17707101 31.37801341 7.1865284 27.296875 7.1953125 C26.04638367 7.20563507 24.79589233 7.21595764 23.50750732 7.22659302 C15.80565515 7.22756229 8.54998294 6.5319042 1 5 C0.67 3.35 0.34 1.7 0 0 Z " fill="#D90900" transform="translate(86,218)"/>
<path d="M0 0 C7.59 0 15.18 0 23 0 C23 0.99 23 1.98 23 3 C23.66 3.33 24.32 3.66 25 4 C25 4.66 25 5.32 25 6 C20.71 6 16.42 6 12 6 C12.66 7.65 13.32 9.3 14 11 C10.37 11 6.74 11 3 11 C3 10.01 3 9.02 3 8 C-1.455 8.495 -1.455 8.495 -6 9 C-6 6.69 -6 4.38 -6 2 C-3.03 2.495 -3.03 2.495 0 3 C0 2.01 0 1.02 0 0 Z " fill="#767676" transform="translate(137,132)"/>
<path d="M0 0 C1.32 0 2.64 0 4 0 C3.67 14.19 3.34 28.38 3 43 C1.68 43 0.36 43 -1 43 C-3.11834035 40.88165965 -2.16419113 36.15396626 -2.16796875 33.22265625 C-2.17129715 32.34097275 -2.17462555 31.45928925 -2.17805481 30.55088806 C-2.18312783 28.68212406 -2.18546302 26.81335096 -2.18530273 24.94458008 C-2.18748808 22.07813656 -2.20563655 19.2120784 -2.22460938 16.34570312 C-2.22754339 14.53385549 -2.22952813 12.72200602 -2.23046875 10.91015625 C-2.23765427 10.0486647 -2.24483978 9.18717316 -2.25224304 8.29957581 C-2.2288216 2.2288216 -2.2288216 2.2288216 0 0 Z " fill="#161011" transform="translate(81,231)"/>
<path d="M0 0 C2.4375 0.375 2.4375 0.375 5 1 C6.59488768 4.18977536 6.16301154 7.64505829 6.16796875 11.1484375 C6.17129715 11.95737457 6.17462555 12.76631165 6.17805481 13.59976196 C6.18312186 15.31292146 6.1854632 17.02609083 6.18530273 18.73925781 C6.18748548 21.35758808 6.20563294 23.97549453 6.22460938 26.59375 C6.2275441 28.25781106 6.22952837 29.92187412 6.23046875 31.5859375 C6.23765427 32.36834808 6.24483978 33.15075867 6.25224304 33.95687866 C6.23621147 37.78162822 6.16616044 40.76014943 4 44 C3.01 44 2.02 44 1 44 C0.09066152 29.3206789 -0.12375296 14.70565891 0 0 Z " fill="#181212" transform="translate(215,231)"/>
<path d="M0 0 C2.375 0.9375 2.375 0.9375 5.375 2.9375 C6.67646676 6.20455647 7.45854054 9.53350772 8.375 12.9375 C2.435 12.9375 -3.505 12.9375 -9.625 12.9375 C-6.35281065 -0.1512574 -6.35281065 -0.1512574 0 0 Z " fill="#020202" transform="translate(150.625,4.0625)"/>
<path d="M0 0 C10.56 0 21.12 0 32 0 C32 1.65 32 3.3 32 5 C21.44 5 10.88 5 0 5 C0 3.35 0 1.7 0 0 Z " fill="#DA0900" transform="translate(159,220)"/>
<path d="M0 0 C0 1.65 0 3.3 0 5 C-2.87456792 5.33747548 -5.74956059 5.67010463 -8.625 6 C-9.43324219 6.09539062 -10.24148437 6.19078125 -11.07421875 6.2890625 C-15.40973739 6.78253617 -19.62737311 7.11320717 -24 7 C-24 5.02 -24 3.04 -24 1 C-15.98866917 0.40891367 -8.03770278 -0.14101233 0 0 Z " fill="#A80006" transform="translate(215,218)"/>
<path d="M0 0 C7.41017023 -0.11459026 14.64206267 0.08839714 22 1 C22 2.65 22 4.3 22 6 C6.25512528 6.18451025 6.25512528 6.18451025 -1 5 C-0.67 3.35 -0.34 1.7 0 0 Z " fill="#A70005" transform="translate(89,132)"/>
<path d="M0 0 C7.26 0.33 14.52 0.66 22 1 C22 2.98 22 4.96 22 7 C14.7725395 7.24091535 8.09705662 6.34495828 1 5 C0.67 3.35 0.34 1.7 0 0 Z " fill="#A60005" transform="translate(86,218)"/>
<path d="M0 0 C0 1.65 0 3.3 0 5 C-5.03854106 5.83211276 -9.8125662 6.1078534 -14.9375 6.0625 C-15.62134766 6.05798828 -16.30519531 6.05347656 -17.00976562 6.04882812 C-18.67321604 6.0371956 -20.3366205 6.01926694 -22 6 C-22 4.35 -22 2.7 -22 1 C-14.63512596 0.00137301 -7.42686315 -0.10331031 0 0 Z " fill="#A60005" transform="translate(211,132)"/>
<path d="M0 0 C6.27 0 12.54 0 19 0 C19 1.98 19 3.96 19 6 C12.73 5.67 6.46 5.34 0 5 C0 3.35 0 1.7 0 0 Z " fill="#DB0B02" transform="translate(111,133)"/>
<path d="M0 0 C6.27 0 12.54 0 19 0 C19 1.65 19 3.3 19 5 C12.73 5 6.46 5 0 5 C0 3.35 0 1.7 0 0 Z " fill="#DC0A01" transform="translate(170,133)"/>
<path d="M0 0 C5.94 0 11.88 0 18 0 C18 1.65 18 3.3 18 5 C12.06 5 6.12 5 0 5 C0 3.35 0 1.7 0 0 Z " fill="#A50005" transform="translate(141,220)"/>
<path d="M0 0 C3.3 0 6.6 0 10 0 C9.53898164 4.70238725 8.96823597 8.23262357 6 12 C5.01 12 4.02 12 3 12 C2.67 10.35 2.34 8.7 2 7 C1.34 7 0.68 7 0 7 C0 4.69 0 2.38 0 0 Z " fill="#2D101A" transform="translate(102,77)"/>
<path d="M0 0 C2.97 0 5.94 0 9 0 C9.28571429 8.57142857 9.28571429 8.57142857 7 12 C5.1875 11.8125 5.1875 11.8125 3 11 C0.07099943 7.33874929 -0.32215416 4.6175429 0 0 Z " fill="#2A101A" transform="translate(188,77)"/>
<path d="M0 0 C1.875 0.3125 1.875 0.3125 4 1 C6.78637633 5.1795645 5.79562512 7.14668677 5 12 C3.00045254 12.04254356 0.99958364 12.04080783 -1 12 C-2.87643761 10.12356239 -2.17984987 7.50194299 -2.23046875 5.0078125 C-2 3 -2 3 0 0 Z " fill="#421613" transform="translate(132,279)"/>
<path d="M0 0 C3 1 3 1 4.25 3.1875 C5.12860506 6.48226898 4.76557916 8.70800962 4 12 C1.69 12 -0.62 12 -3 12 C-3.08131463 10.56344146 -3.13933559 9.1255517 -3.1875 7.6875 C-3.22230469 6.88699219 -3.25710937 6.08648437 -3.29296875 5.26171875 C-2.93801608 2.52148416 -2.10633718 1.70828921 0 0 Z " fill="#351514" transform="translate(165,279)"/>
<path d="M0 0 C2.31 0 4.62 0 7 0 C7 0.99 7 1.98 7 3 C4.03 2.505 4.03 2.505 1 2 C1 4.31 1 6.62 1 9 C5.455 8.505 5.455 8.505 10 8 C10 8.99 10 9.98 10 11 C13.3 11 16.6 11 20 11 C20 11.33 20 11.66 20 12 C16.85418577 12.02888514 13.70840531 12.04675923 10.5625 12.0625 C9.21575195 12.07506836 9.21575195 12.07506836 7.84179688 12.08789062 C6.56079102 12.09272461 6.56079102 12.09272461 5.25390625 12.09765625 C4.46314697 12.10289307 3.6723877 12.10812988 2.85766602 12.11352539 C1 12 1 12 0 11 C-0.07226502 9.14712498 -0.0838122 7.29166122 -0.0625 5.4375 C-0.05347656 4.42558594 -0.04445312 3.41367188 -0.03515625 2.37109375 C-0.02355469 1.58863281 -0.01195312 0.80617187 0 0 Z " fill="#705755" transform="translate(130,132)"/>
<path d="M0 0 C4.62 0 9.24 0 14 0 C13.01 0.495 13.01 0.495 12 1 C11.34786708 3.02463255 11.34786708 3.02463255 11 5 C11 4.01 11 3.02 11 2 C10.34 2 9.68 2 9 2 C9.33 3.32 9.66 4.64 10 6 C7.03 6 4.06 6 1 6 C0.67 4.02 0.34 2.04 0 0 Z " fill="#6C6161" transform="translate(149,138)"/>
<path d="M0 0 C3.875 0.875 3.875 0.875 5 2 C5.04092937 4.33297433 5.04241723 6.66705225 5 9 C2.69 9 0.38 9 -2 9 C-2.25 3.375 -2.25 3.375 0 0 Z " fill="#2B0E1C" transform="translate(97,278)"/>
<path d="M0 0 C1.32 0.33 2.64 0.66 4 1 C4 3.64 4 6.28 4 9 C2.02 9 0.04 9 -2 9 C-2.25 3.375 -2.25 3.375 0 0 Z " fill="#24101E" transform="translate(200,278)"/>
<path d="M0 0 C0.33 0 0.66 0 1 0 C1.33 4.29 1.66 8.58 2 13 C2.66 11.35 3.32 9.7 4 8 C5.65 8 7.3 8 9 8 C9.33 8.66 9.66 9.32 10 10 C6 13 6 13 3.8125 14.25 C1.1350394 16.83513438 1.27173015 19.39957547 1 23 C0.67 23 0.34 23 0 23 C0 15.41 0 7.82 0 0 Z " fill="#F30F07" transform="translate(141,78)"/>
<path d="M0 0 C1.98 0 3.96 0 6 0 C5.67 2.31 5.34 4.62 5 7 C4.34 6.67 3.68 6.34 3 6 C3 5.01 3 4.02 3 3 C2.01 3 1.02 3 0 3 C0 2.01 0 1.02 0 0 Z " fill="#BE008B" transform="translate(198,287)"/>
<path d="M0 0 C0.66 0 1.32 0 2 0 C2 0.99 2 1.98 2 3 C2.99 3 3.98 3 5 3 C5.33 2.01 5.66 1.02 6 0 C8.475 0.99 8.475 0.99 11 2 C10.67 2.66 10.34 3.32 10 4 C7.03 4 4.06 4 1 4 C0.67 2.68 0.34 1.36 0 0 Z " fill="#6D5A58" transform="translate(158,140)"/>
<path d="M0 0 C2.31 0 4.62 0 7 0 C7 0.99 7 1.98 7 3 C4.69 3 2.38 3 0 3 C0 2.01 0 1.02 0 0 Z " fill="#9B04CF" transform="translate(162,288)"/>
<path d="M0 0 C2.97 0 5.94 0 9 0 C8.67 0.66 8.34 1.32 8 2 C5.35139573 2.59355614 2.70802678 2.74209269 0 3 C0 2.01 0 1.02 0 0 Z " fill="#5D5C5B" transform="translate(160,132)"/>
<path d="M0 0 C2.31 0 4.62 0 7 0 C7 0.99 7 1.98 7 3 C5.02 3 3.04 3 1 3 C0.67 2.01 0.34 1.02 0 0 Z " fill="#9803CE" transform="translate(130,288)"/>
<path d="M0 0 C1.98 0 3.96 0 6 0 C6 1.65 6 3.3 6 5 C3.03 4.505 3.03 4.505 0 4 C0 2.68 0 1.36 0 0 Z " fill="#9D9A9A" transform="translate(153,139)"/>
<path d="M0 0 C2.64 0 5.28 0 8 0 C6.515 1.98 6.515 1.98 5 4 C1.125 2.25 1.125 2.25 0 0 Z " fill="#9C9C9C" transform="translate(148,132)"/>
<path d="M0 0 C1.32 0.66 2.64 1.32 4 2 C4 2.66 4 3.32 4 4 C1.69 4 -0.62 4 -3 4 C-2.01 2.68 -1.02 1.36 0 0 Z " fill="#9F9F9F" transform="translate(147,139)"/>
<path d="M0 0 C1.98 0 3.96 0 6 0 C6 1.32 6 2.64 6 4 C4.02 4 2.04 4 0 4 C0 2.68 0 1.36 0 0 Z " fill="#9D9D9D" transform="translate(141,132)"/>
</svg>
