<?xml version="1.0" encoding="UTF-8"?>
<svg version="1.1" xmlns="http://www.w3.org/2000/svg" width="300" height="300">
<path d="M0 0 C2.4375 0.8125 2.4375 0.8125 5.4375 2.8125 C6.39453125 5.0546875 6.39453125 5.0546875 7.25 7.6875 C9.0878842 12.60489246 10.98928954 13.99832603 15.4375 16.8125 C19.68347897 22.51567886 21.7874581 29.29244299 23.93359375 35.9921875 C25.86526584 39.61469984 27.7901255 40.05386433 31.4375 41.8125 C33.50104123 43.82920034 35.14606846 46.08788609 36.8125 48.4375 C37.28510254 49.09556641 37.75770508 49.75363281 38.24462891 50.43164062 C46.34093072 62.08154767 51.4946979 75.25347446 55.4375 88.8125 C55.73398438 89.81925781 56.03046875 90.82601562 56.3359375 91.86328125 C61.90526944 113.12048384 61.11049542 136.32608084 62.05342102 158.15779114 C62.34569702 164.87351842 62.66855982 171.58727414 63.0078125 178.30078125 C63.10160636 180.17740666 63.19535689 182.05403424 63.2890625 183.93066406 C63.42285948 186.60767111 63.55778878 189.28458632 63.69726562 191.96130371 C64.30155445 203.58991759 64.54757427 215.16821488 64.4375 226.8125 C65.6440625 226.998125 65.6440625 226.998125 66.875 227.1875 C67.720625 227.39375 68.56625 227.6 69.4375 227.8125 C71.03238768 231.00227536 70.60051154 234.45755829 70.60546875 237.9609375 C70.60879715 238.76987457 70.61212555 239.57881165 70.61555481 240.41226196 C70.62062186 242.12542146 70.6229632 243.83859083 70.62280273 245.55175781 C70.62498548 248.17008808 70.64313294 250.78799453 70.66210938 253.40625 C70.6650441 255.07031106 70.66702837 256.73437412 70.66796875 258.3984375 C70.67515427 259.18084808 70.68233978 259.96325867 70.68974304 260.76937866 C70.67371147 264.59412822 70.60366044 267.57264943 68.4375 270.8125 C67.7775 270.8125 67.1175 270.8125 66.4375 270.8125 C66.6025 271.555 66.7675 272.2975 66.9375 273.0625 C67.63804587 278.31659401 67.51457499 283.52001749 67.4375 288.8125 C57.41832917 289.96226404 47.38449367 290.15085217 37.3125 290.375 C35.95742844 290.40626984 35.95742844 290.40626984 34.57498169 290.43817139 C10.05737416 290.99680383 -14.42055542 290.95576415 -38.9375 290.375 C-39.79248077 290.3554425 -40.64746155 290.33588501 -41.52835083 290.31573486 C-50.57338522 290.10296712 -59.56432301 289.83473505 -68.5625 288.8125 C-68.52769531 287.62011719 -68.49289063 286.42773438 -68.45703125 285.19921875 C-68.42889247 283.63282658 -68.4015924 282.06641919 -68.375 280.5 C-68.34986328 279.71431641 -68.32472656 278.92863281 -68.29882812 278.11914062 C-68.28916016 277.36181641 -68.27949219 276.60449219 -68.26953125 275.82421875 C-68.2538208 275.12772217 -68.23811035 274.43122559 -68.22192383 273.71362305 C-68.38462413 271.69670581 -68.38462413 271.69670581 -70.06051636 270.44247437 C-72.71437747 267.56246591 -71.96598888 263.56468845 -71.92578125 259.83984375 C-71.92627975 258.96099014 -71.92677826 258.08213654 -71.92729187 257.176651 C-71.92495218 255.31981137 -71.9152298 253.46296853 -71.89868164 251.60620117 C-71.87506105 248.75736283 -71.87812481 245.90945842 -71.88476562 243.06054688 C-71.87918984 241.2578069 -71.87208059 239.45507087 -71.86328125 237.65234375 C-71.86419266 236.79712631 -71.86510406 235.94190887 -71.86604309 235.06077576 C-71.7935314 229.0435314 -71.7935314 229.0435314 -69.5625 226.8125 C-68.2425 226.8125 -66.9225 226.8125 -65.5625 226.8125 C-65.57297363 226.13300293 -65.58344727 225.45350586 -65.59423828 224.75341797 C-65.81608083 207.7950998 -65.32548116 190.98501808 -64.34204102 174.05859375 C-63.75700165 163.93255588 -63.36761034 153.82758236 -63.125 143.6875 C-61.90454137 98.39004633 -61.90454137 98.39004633 -53.65234375 79.36328125 C-52.39768768 76.42675646 -51.33637584 73.44017158 -50.25 70.4375 C-46.71707084 61.21927252 -41.71296006 52.54450693 -35.5625 44.8125 C-34.9025 44.8125 -34.2425 44.8125 -33.5625 44.8125 C-33.2325 43.8225 -32.9025 42.8325 -32.5625 41.8125 C-31.61375 41.6475 -30.665 41.4825 -29.6875 41.3125 C-26.41788615 40.176644 -26.41788615 40.176644 -25.67578125 37.59375 C-25.2104494 35.67862699 -24.76357477 33.75895598 -24.33203125 31.8359375 C-22.53254002 24.7658552 -19.24321568 18.44676805 -13.5625 13.8125 C-12.5725 13.4825 -11.5825 13.1525 -10.5625 12.8125 C-9.40144632 10.34912374 -8.59129023 7.8373922 -7.72265625 5.2578125 C-5.99939441 1.62561751 -4.11646172 -0.30120452 0 0 Z " fill="#ECC90C" transform="translate(150.5625,4.1875)"/>
<path d="M0 0 C1.04671875 -0.01224609 2.0934375 -0.02449219 3.171875 -0.03710938 C9.27206259 -0.04854723 15.4768444 -0.02188065 21.25 2.1875 C23.5625 4.6875 23.5625 4.6875 25.25 8.1875 C25.56195313 8.83074219 25.87390625 9.47398438 26.1953125 10.13671875 C37.3641376 35.33253285 39.6444832 66.02547701 39.25 93.1875 C35.93751813 93.21638146 32.62506833 93.23425799 29.3125 93.25 C28.36697266 93.25837891 27.42144531 93.26675781 26.44726562 93.27539062 C25.09858398 93.28022461 25.09858398 93.28022461 23.72265625 93.28515625 C22.89000244 93.29039307 22.05734863 93.29562988 21.19946289 93.30102539 C19.25 93.1875 19.25 93.1875 18.25 92.1875 C15.52275721 92.08650512 12.82137477 92.04779471 10.09375 92.0546875 C9.27628296 92.05373077 8.45881592 92.05277405 7.61657715 92.05178833 C5.88484622 92.05110655 4.15311276 92.05296071 2.42138672 92.05712891 C-0.23866482 92.06247721 -2.8985475 92.05718388 -5.55859375 92.05078125 C-7.23697954 92.05144203 -8.91536523 92.0527232 -10.59375 92.0546875 C-11.39478149 92.05266327 -12.19581299 92.05063904 -13.02111816 92.04855347 C-16.68582301 91.71536332 -16.68582301 91.71536332 -19.75 93.1875 C-21.16570123 93.27401611 -22.585595 93.29454904 -24.00390625 93.28515625 C-24.85791016 93.28193359 -25.71191406 93.27871094 -26.59179688 93.27539062 C-27.48962891 93.26701172 -28.38746094 93.25863281 -29.3125 93.25 C-30.21419922 93.24548828 -31.11589844 93.24097656 -32.04492188 93.23632812 C-34.28001314 93.22450225 -36.51497437 93.2080222 -38.75 93.1875 C-39.25010779 80.72648095 -38.55685542 68.60067046 -36.9375 56.25 C-36.77217773 54.9724585 -36.60685547 53.69491699 -36.43652344 52.37866211 C-34.94580044 41.50915787 -33.02456907 30.67655791 -29.75 20.1875 C-29.45150146 19.21006836 -29.45150146 19.21006836 -29.14697266 18.21289062 C-28.48769019 16.10748747 -27.78054106 14.02351631 -27.0625 11.9375 C-26.84400391 11.23109375 -26.62550781 10.5246875 -26.40039062 9.796875 C-24.97083516 5.72784382 -24.2628114 4.47783741 -20.35546875 2.265625 C-13.4511107 0.20104989 -7.16863118 0.0043499 0 0 Z " fill="#FDF145" transform="translate(149.75,39.8125)"/>
<path d="M0 0 C0.97864014 0.00451172 1.95728027 0.00902344 2.96557617 0.01367188 C3.70525635 0.01947266 4.44493652 0.02527344 5.20703125 0.03125 C5.47099888 8.21249585 5.73196795 16.39383 5.98933411 24.57528591 C6.10898884 28.37616517 6.2295935 32.17700885 6.35253906 35.9777832 C7.35400627 66.97549594 7.35400627 66.97549594 7.20703125 82.03125 C-3.35296875 82.03125 -13.91296875 82.03125 -24.79296875 82.03125 C-24.79296875 57.28125 -24.79296875 32.53125 -24.79296875 7.03125 C-30.73296875 7.03125 -36.67296875 7.03125 -42.79296875 7.03125 C-42.79296875 31.78125 -42.79296875 56.53125 -42.79296875 82.03125 C-67.79296875 82.03125 -67.79296875 82.03125 -74.79296875 81.03125 C-74.95630385 63.17369754 -74.48279745 45.37420162 -73.79296875 27.53125 C-73.69620747 24.94272352 -73.59985125 22.35418186 -73.50390625 19.765625 C-73.27157494 13.52064934 -73.03383756 7.27590195 -72.79296875 1.03125 C-66.52296875 1.03125 -60.25296875 1.03125 -53.79296875 1.03125 C-53.46296875 2.35125 -53.13296875 3.67125 -52.79296875 5.03125 C-49.82296875 5.36125 -46.85296875 5.69125 -43.79296875 6.03125 C-43.79296875 4.71125 -43.79296875 3.39125 -43.79296875 2.03125 C-44.45296875 1.70125 -45.11296875 1.37125 -45.79296875 1.03125 C-43.81296875 1.03125 -41.83296875 1.03125 -39.79296875 1.03125 C-40.45296875 1.36125 -41.11296875 1.69125 -41.79296875 2.03125 C-41.79296875 3.35125 -41.79296875 4.67125 -41.79296875 6.03125 C-41.13296875 6.03125 -40.47296875 6.03125 -39.79296875 6.03125 C-39.13296875 4.71125 -38.47296875 3.39125 -37.79296875 2.03125 C-33.79296875 2.03125 -33.79296875 2.03125 -30.79296875 4.03125 C-30.79296875 3.04125 -30.79296875 2.05125 -30.79296875 1.03125 C-28.81296875 1.03125 -26.83296875 1.03125 -24.79296875 1.03125 C-24.79296875 2.68125 -24.79296875 4.33125 -24.79296875 6.03125 C-21.49296875 5.70125 -18.19296875 5.37125 -14.79296875 5.03125 C-14.46296875 3.71125 -14.13296875 2.39125 -13.79296875 1.03125 C-9.1463277 0.32987022 -4.70296129 -0.02822482 0 0 Z " fill="#FDF145" transform="translate(183.79296875,137.96875)"/>
<path d="M0 0 C4.2628337 1.95660207 6.51639783 4.81330652 9.15234375 8.6015625 C9.85447998 9.58866211 9.85447998 9.58866211 10.57080078 10.59570312 C18.60800653 22.27120667 23.77486178 35.42723521 27.71484375 48.9765625 C28.15957031 50.48669922 28.15957031 50.48669922 28.61328125 52.02734375 C34.62808351 74.98483158 33.58283476 100.30423619 34.58337402 123.88549805 C34.72010015 127.10014901 34.85838275 130.31472996 34.99707031 133.52929688 C35.57859077 147.01134738 36.15113428 160.49375588 36.71484375 173.9765625 C35.132526 174.14312288 33.54995591 174.30728701 31.96728516 174.47045898 C31.08601959 174.56213852 30.20475403 174.65381805 29.29678345 174.74827576 C25.87309568 175.05098714 22.52733354 175.07276338 19.08984375 175.0390625 C17.88070312 175.03003906 16.6715625 175.02101562 15.42578125 175.01171875 C14.53117187 175.00011719 13.6365625 174.98851562 12.71484375 174.9765625 C10.63190954 148.03137099 10.55902917 120.98442269 10.71484375 93.9765625 C1.30984375 94.4715625 1.30984375 94.4715625 -8.28515625 94.9765625 C-8.61515625 96.2965625 -8.94515625 97.6165625 -9.28515625 98.9765625 C-8.95515625 95.6765625 -8.62515625 92.3765625 -8.28515625 88.9765625 C-2.01515625 88.9765625 4.25484375 88.9765625 10.71484375 88.9765625 C8.57499655 44.13059508 8.57499655 44.13059508 -5.28515625 1.9765625 C-5.28515625 1.3165625 -5.28515625 0.6565625 -5.28515625 -0.0234375 C-3.28515625 -1.0234375 -3.28515625 -1.0234375 0 0 Z " fill="#EECD0D" transform="translate(178.28515625,44.0234375)"/>
<path d="M0 0 C2.4375 0.8125 2.4375 0.8125 5.4375 2.8125 C6.39453125 5.0546875 6.39453125 5.0546875 7.25 7.6875 C9.0878842 12.60489246 10.98928954 13.99832603 15.4375 16.8125 C19.96511792 22.9711042 24.4375 32.1063791 24.4375 39.8125 C22.83286551 39.50241116 21.22880769 39.18933713 19.625 38.875 C18.73167969 38.70097656 17.83835937 38.52695312 16.91796875 38.34765625 C14.4375 37.8125 14.4375 37.8125 11.4375 36.8125 C7.60879733 36.55209772 3.77410764 36.58098968 -0.0625 36.5625 C-1.10148437 36.541875 -2.14046875 36.52125 -3.2109375 36.5 C-10.15154681 36.46538349 -17.26280681 36.59733242 -23.5625 39.8125 C-25.58607012 42.19241762 -26.34129991 44.5696941 -27.125 47.5625 C-27.34478516 48.2534375 -27.56457031 48.944375 -27.79101562 49.65625 C-28.42987993 51.69754616 -29.00097608 53.74877962 -29.5625 55.8125 C-29.9028125 56.95460937 -30.243125 58.09671875 -30.59375 59.2734375 C-36.78206531 81.8807507 -38.85048584 105.46334613 -39.5625 128.8125 C-36.41628318 128.67427801 -33.27064434 128.52564916 -30.125 128.375 C-29.22716797 128.33568359 -28.32933594 128.29636719 -27.40429688 128.25585938 C-26.12329102 128.19301758 -26.12329102 128.19301758 -24.81640625 128.12890625 C-24.02564697 128.09224854 -23.2348877 128.05559082 -22.42016602 128.01782227 C-20.54848559 128.00686743 -20.54848559 128.00686743 -19.5625 126.8125 C-16.84695608 126.69909026 -14.15779957 126.6483198 -11.44140625 126.64453125 C-10.2187632 126.63953865 -10.2187632 126.63953865 -8.97142029 126.63444519 C-7.24389207 126.62937258 -5.51635402 126.62703697 -3.78881836 126.62719727 C-1.13964755 126.62501208 1.50910616 126.60686379 4.15820312 126.58789062 C5.8333319 126.58495656 7.50846267 126.58297185 9.18359375 126.58203125 C9.97946396 126.57484573 10.77533417 126.56766022 11.59532166 126.56025696 C17.20867773 126.58367773 17.20867773 126.58367773 19.4375 128.8125 C19.4140625 131.4140625 19.4140625 131.4140625 19.0625 134.4375 C18.95164062 135.44039062 18.84078125 136.44328125 18.7265625 137.4765625 C18.63117188 138.24742187 18.53578125 139.01828125 18.4375 139.8125 C15.1375 139.8125 11.8375 139.8125 8.4375 139.8125 C7.7775 138.4925 7.1175 137.1725 6.4375 135.8125 C4.38749129 135.00721111 4.38749129 135.00721111 2.4375 134.8125 C2.7675 135.8025 3.0975 136.7925 3.4375 137.8125 C0.33198334 137.8125 -0.91511084 137.2731285 -3.5625 135.8125 C-4.243125 136.8025 -4.243125 136.8025 -4.9375 137.8125 C-5.47375 138.4725 -6.01 139.1325 -6.5625 139.8125 C-7.2225 139.8125 -7.8825 139.8125 -8.5625 139.8125 C-8.5625 138.4925 -8.5625 137.1725 -8.5625 135.8125 C-9.2225 135.8125 -9.8825 135.8125 -10.5625 135.8125 C-10.5625 137.1325 -10.5625 138.4525 -10.5625 139.8125 C-12.04156892 139.83939216 -13.52077483 139.85884621 -15 139.875 C-15.82371094 139.88660156 -16.64742187 139.89820313 -17.49609375 139.91015625 C-19.5625 139.8125 -19.5625 139.8125 -20.5625 138.8125 C-20.60313832 137.14632885 -20.605221 135.47861905 -20.5625 133.8125 C-21.55056641 133.81773682 -22.53863281 133.82297363 -23.55664062 133.82836914 C-27.2542224 133.84659321 -30.95180028 133.8579951 -34.64941406 133.86743164 C-36.24382192 133.87243231 -37.83822525 133.87923501 -39.43261719 133.88793945 C-41.73633954 133.9001933 -44.04000078 133.9057711 -46.34375 133.91015625 C-47.39737732 133.91789818 -47.39737732 133.91789818 -48.47229004 133.92579651 C-53.24970941 133.92632708 -57.83128694 133.48275518 -62.5625 132.8125 C-60.14536075 93.33747188 -60.14536075 93.33747188 -53.6171875 79.1171875 C-52.31895416 76.28030723 -51.30664053 73.37261259 -50.25 70.4375 C-46.71707084 61.21927252 -41.71296006 52.54450693 -35.5625 44.8125 C-34.9025 44.8125 -34.2425 44.8125 -33.5625 44.8125 C-33.2325 43.8225 -32.9025 42.8325 -32.5625 41.8125 C-31.139375 41.565 -31.139375 41.565 -29.6875 41.3125 C-26.41788615 40.176644 -26.41788615 40.176644 -25.67578125 37.59375 C-25.2104494 35.67862699 -24.76357477 33.75895598 -24.33203125 31.8359375 C-22.53254002 24.7658552 -19.24321568 18.44676805 -13.5625 13.8125 C-12.5725 13.4825 -11.5825 13.1525 -10.5625 12.8125 C-9.40144632 10.34912374 -8.59129023 7.8373922 -7.72265625 5.2578125 C-5.99939441 1.62561751 -4.11646172 -0.30120452 0 0 Z " fill="#EDCA0D" transform="translate(150.5625,4.1875)"/>
<path d="M0 0 C0.02735618 1.70824133 0.04655506 3.41661405 0.0625 5.125 C0.07410156 6.07632813 0.08570313 7.02765625 0.09765625 8.0078125 C0 11 0 11 -0.47314453 13.74780273 C-3.11058794 30.02833271 -2.3121475 47.12609194 -2.5625 63.5625 C-2.60538525 66.23113226 -2.64940802 68.89974428 -2.69335938 71.56835938 C-2.79933517 78.04551694 -2.90128741 84.52272788 -3 91 C-3.71027344 91.06058594 -4.42054688 91.12117188 -5.15234375 91.18359375 C-6.07144531 91.26738281 -6.99054688 91.35117188 -7.9375 91.4375 C-8.85402344 91.51871094 -9.77054688 91.59992188 -10.71484375 91.68359375 C-12.96159732 91.76044976 -12.96159732 91.76044976 -14 93 C-15.41570123 93.08651611 -16.835595 93.10704904 -18.25390625 93.09765625 C-19.10791016 93.09443359 -19.96191406 93.09121094 -20.84179688 93.08789062 C-21.73962891 93.07951172 -22.63746094 93.07113281 -23.5625 93.0625 C-24.46419922 93.05798828 -25.36589844 93.05347656 -26.29492188 93.04882812 C-28.53001314 93.03700225 -30.76497437 93.0205222 -33 93 C-33.50010779 80.53898095 -32.80685542 68.41317046 -31.1875 56.0625 C-31.02217773 54.7849585 -30.85685547 53.50741699 -30.68652344 52.19116211 C-29.19580044 41.32165787 -27.27456907 30.48905791 -24 20 C-23.70150146 19.02256836 -23.70150146 19.02256836 -23.39697266 18.02539062 C-22.73769019 15.91998747 -22.03054106 13.83601631 -21.3125 11.75 C-21.09400391 11.04359375 -20.87550781 10.3371875 -20.65039062 9.609375 C-18.88939322 4.59694033 -18.88939322 4.59694033 -16.32202148 2.8737793 C-10.89005555 0.50443452 -5.86720176 -0.13644655 0 0 Z " fill="#FDF145" transform="translate(144,40)"/>
<path d="M0 0 C10.56 0 21.12 0 32 0 C32.63110678 9.46660167 33.17305679 18.80993022 33.31640625 28.27734375 C33.33718735 29.45470596 33.35796844 30.63206818 33.37937927 31.84510803 C33.44386254 35.54252274 33.50328002 39.23999765 33.5625 42.9375 C33.60578193 45.47070892 33.64939898 48.00391214 33.69335938 50.53710938 C33.79943721 56.69134583 33.90137568 62.84563982 34 69 C29.3188055 69.16725324 24.63744899 69.32784864 19.95581055 69.48217773 C18.36199744 69.53566794 16.76824515 69.59100255 15.17456055 69.64819336 C12.88864258 69.72990942 10.60259054 69.80506897 8.31640625 69.87890625 C7.59973282 69.90594131 6.88305939 69.93297638 6.14466858 69.96083069 C4.43052233 70.01297644 2.71489824 70.01185628 1 70 C0 69 0 69 -0.12025452 66.26023865 C-0.11803391 65.03668167 -0.11581329 63.81312469 -0.11352539 62.55249023 C-0.11367142 61.87934784 -0.11381744 61.20620544 -0.1139679 60.51266479 C-0.11326878 58.27794216 -0.10547652 56.0433019 -0.09765625 53.80859375 C-0.09579206 52.26302638 -0.09436816 50.71745843 -0.09336853 49.17189026 C-0.0895434 45.09642923 -0.07971317 41.02100363 -0.06866455 36.94555664 C-0.05665566 32.05972272 -0.05204817 27.17387698 -0.04621124 22.28803253 C-0.0365014 14.85866369 -0.01734484 7.42937263 0 0 Z " fill="#FDF045" transform="translate(159,225)"/>
<path d="M0 0 C10.56 0 21.12 0 32 0 C32 23.1 32 46.2 32 70 C21.11 69.67 10.22 69.34 -1 69 C-1.06339429 54.11819091 -0.81126836 39.25320976 -0.5 24.375 C-0.45165649 22.00000338 -0.40347831 19.62500339 -0.35546875 17.25 C-0.23918463 11.49995083 -0.11952459 5.74998632 0 0 Z " fill="#FDF145" transform="translate(108,225)"/>
<path d="M0 0 C13.86 0.33 27.72 0.66 42 1 C42 1.33 42 1.66 42 2 C35.73 2 29.46 2 23 2 C23.020625 4.82949219 23.04125 7.65898437 23.0625 10.57421875 C23.09795473 24.32331402 22.57169533 38.05404253 22.07287598 51.79211426 C21.94951144 55.21222552 21.83043504 58.63248621 21.7109375 62.05273438 C21.47779208 68.70196302 21.24056573 75.3510359 21 82 C23.31 82 25.62 82 28 82 C28 82.33 28 82.66 28 83 C24.33310028 82.85969417 20.66654588 82.71174579 17 82.5625 C15.97003906 82.52318359 14.94007812 82.48386719 13.87890625 82.44335938 C8.19758925 82.20814561 2.62953732 81.80518623 -3 81 C-3.12316662 70.32647224 -2.82226019 59.7434515 -2.2020874 49.08966064 C-1.96196894 44.95746019 -1.73668562 40.82445532 -1.51171875 36.69140625 C-1.4668634 35.87065613 -1.42200806 35.04990601 -1.37579346 34.20428467 C-0.76208391 22.80799605 -0.38448456 11.40637539 0 0 Z " fill="#EECD0E" transform="translate(88,137)"/>
<path d="M0 0 C0 2.64 0 5.28 0 8 C0.804375 8.12375 1.60875 8.2475 2.4375 8.375 C3.283125 8.58125 4.12875 8.7875 5 9 C6.59488768 12.18977536 6.16301154 15.64505829 6.16796875 19.1484375 C6.17129715 19.95737457 6.17462555 20.76631165 6.17805481 21.59976196 C6.18312186 23.31292146 6.1854632 25.02609083 6.18530273 26.73925781 C6.18748548 29.35758808 6.20563294 31.97549453 6.22460938 34.59375 C6.2275441 36.25781106 6.22952837 37.92187412 6.23046875 39.5859375 C6.23765427 40.36834808 6.24483978 41.15075867 6.25224304 41.95687866 C6.23621147 45.78162822 6.16616044 48.76014943 4 52 C3.34 52 2.68 52 2 52 C2.2475 53.11375 2.2475 53.11375 2.5 54.25 C3.20054587 59.50409401 3.07707499 64.70751749 3 70 C-5.35263176 70.95458649 -13.59784035 71.11039334 -22 71 C-22.89681224 67.13907542 -23.15064982 63.51722025 -23.20532227 59.55737305 C-23.22526749 58.27642258 -23.24521271 56.99547211 -23.26576233 55.67570496 C-23.28274278 54.28771076 -23.29962173 52.89971533 -23.31640625 51.51171875 C-23.33699424 50.08396325 -23.35799118 48.65621359 -23.37937927 47.22846985 C-23.43440953 43.48193105 -23.48390227 39.73533899 -23.53222656 35.9887085 C-23.58258121 32.16104426 -23.63819418 28.33345677 -23.69335938 24.50585938 C-23.80070776 17.00397137 -23.90220387 9.50201926 -24 2 C-21.78973386 1.66481346 -19.57862696 1.33516844 -17.3671875 1.0078125 C-16.13597168 0.8236377 -14.90475586 0.63946289 -13.63623047 0.44970703 C-9.0630821 -0.11587235 -4.59765199 -0.19068603 0 0 Z " fill="#EDCB0D" transform="translate(215,223)"/>
<path d="M0 0 C4.2628337 1.95660207 6.51639783 4.81330652 9.15234375 8.6015625 C9.85447998 9.58866211 9.85447998 9.58866211 10.57080078 10.59570312 C18.60800653 22.27120667 23.77486178 35.42723521 27.71484375 48.9765625 C28.15957031 50.48669922 28.15957031 50.48669922 28.61328125 52.02734375 C32.0692883 65.21834094 32.89524005 79.37745692 32.71484375 92.9765625 C24.02668949 94.04327623 15.32957865 94.29316964 6.58984375 94.5390625 C5.14191753 94.58236406 3.69400073 94.62598156 2.24609375 94.66992188 C-1.26422203 94.77577356 -4.77464538 94.87736489 -8.28515625 94.9765625 C-8.61515625 96.2965625 -8.94515625 97.6165625 -9.28515625 98.9765625 C-8.95515625 95.6765625 -8.62515625 92.3765625 -8.28515625 88.9765625 C-2.01515625 88.9765625 4.25484375 88.9765625 10.71484375 88.9765625 C8.57499655 44.13059508 8.57499655 44.13059508 -5.28515625 1.9765625 C-5.28515625 1.3165625 -5.28515625 0.6565625 -5.28515625 -0.0234375 C-3.28515625 -1.0234375 -3.28515625 -1.0234375 0 0 Z " fill="#EDCA0D" transform="translate(178.28515625,44.0234375)"/>
<path d="M0 0 C3.96 0 7.92 0 12 0 C14.37624831 30.36060945 15.16039865 60.55990033 15 91 C9.06 91 3.12 91 -3 91 C-3.02496264 83.19360581 -3.04298279 75.38723553 -3.05493164 67.58081055 C-3.05934841 64.93235255 -3.06671281 62.28395075 -3.07543945 59.63549805 C-3.18749347 24.72078321 -3.18749347 24.72078321 -0.9375 7.4375 C-0.84662109 6.70337891 -0.75574219 5.96925781 -0.66210938 5.21289062 C-0.44624969 3.47465209 -0.22394639 1.73721519 0 0 Z " fill="#EECE0E" transform="translate(144,40)"/>
<path d="M0 0 C5.94 0 11.88 0 18 0 C18 24.75 18 49.5 18 75 C12.06 75 6.12 75 0 75 C0 50.25 0 25.5 0 0 Z " fill="#EECD0C" transform="translate(141,145)"/>
<path d="M0 0 C6.27 0 12.54 0 19 0 C19.33 23.1 19.66 46.2 20 70 C13.4 70 6.8 70 0 70 C0 46.9 0 23.8 0 0 Z " fill="#EECD0D" transform="translate(140,225)"/>
<path d="M0 0 C2.4375 0.8125 2.4375 0.8125 5.4375 2.8125 C6.39453125 5.0546875 6.39453125 5.0546875 7.25 7.6875 C9.0878842 12.60489246 10.98928954 13.99832603 15.4375 16.8125 C19.96511792 22.9711042 24.4375 32.1063791 24.4375 39.8125 C22.83286551 39.50241116 21.22880769 39.18933713 19.625 38.875 C18.73167969 38.70097656 17.83835938 38.52695312 16.91796875 38.34765625 C14.4375 37.8125 14.4375 37.8125 11.4375 36.8125 C7.60879733 36.55209772 3.77410764 36.58098968 -0.0625 36.5625 C-1.10148437 36.541875 -2.14046875 36.52125 -3.2109375 36.5 C-9.64407949 36.4679145 -15.16221392 37.22318444 -21.30273438 39.16503906 C-23.5625 39.8125 -23.5625 39.8125 -26.5625 39.8125 C-24.29790357 30.12812827 -21.53092091 20.3130539 -13.5625 13.8125 C-12.5725 13.4825 -11.5825 13.1525 -10.5625 12.8125 C-9.40144632 10.34912374 -8.59129023 7.8373922 -7.72265625 5.2578125 C-5.99939441 1.62561751 -4.11646172 -0.30120452 0 0 Z " fill="#4C4B49" transform="translate(150.5625,4.1875)"/>
<path d="M0 0 C1.17232178 0.0707373 2.34464355 0.14147461 3.55249023 0.21435547 C22.17014287 1.22692438 40.78857856 1.15334863 59.42749023 1.13037109 C64.14377032 1.12463726 68.85999392 1.12799083 73.57627201 1.13394356 C77.26291825 1.13758143 80.94955138 1.13639649 84.63619804 1.13381577 C86.37463831 1.13315735 88.11307984 1.13393608 89.85151863 1.13629532 C98.95073318 1.14595411 107.95034461 0.99628673 117.02171326 0.22018433 C121.35041693 -0.09983614 125.66262934 -0.08994547 130 0 C130 1.65 130 3.3 130 5 C117.61037827 7.36048877 105.37667885 7.29259322 92.8125 7.265625 C90.57918251 7.26697549 88.34586532 7.26891922 86.11254883 7.27142334 C81.45293351 7.27435651 76.79339535 7.27013546 72.13378906 7.26074219 C66.19643509 7.24934885 60.25926203 7.25591805 54.32191467 7.26788712 C49.71649847 7.27515472 45.11112433 7.27279539 40.50570679 7.26763153 C38.31790139 7.26630856 36.13009202 7.26789466 33.94229126 7.27259064 C22.44734202 7.29185626 11.33101379 7.15880124 0 5 C0 3.35 0 1.7 0 0 Z " fill="#BDA320" transform="translate(85,218)"/>
<path d="M0 0 C1.22264305 -0.0049926 1.22264305 -0.0049926 2.46998596 -0.01008606 C4.19751418 -0.01515867 5.92505223 -0.01749428 7.65258789 -0.01733398 C10.3017587 -0.01951917 12.95051241 -0.03766746 15.59960938 -0.05664062 C17.27473815 -0.05957469 18.94986892 -0.0615594 20.625 -0.0625 C21.42087021 -0.06968552 22.21674042 -0.07687103 23.03672791 -0.08427429 C28.65008398 -0.06085352 28.65008398 -0.06085352 30.87890625 2.16796875 C30.85546875 4.76953125 30.85546875 4.76953125 30.50390625 7.79296875 C30.39304688 8.79585937 30.2821875 9.79875 30.16796875 10.83203125 C30.02488281 11.98832031 30.02488281 11.98832031 29.87890625 13.16796875 C26.57890625 13.16796875 23.27890625 13.16796875 19.87890625 13.16796875 C19.21890625 11.84796875 18.55890625 10.52796875 17.87890625 9.16796875 C15.82889754 8.36267986 15.82889754 8.36267986 13.87890625 8.16796875 C14.20890625 9.15796875 14.53890625 10.14796875 14.87890625 11.16796875 C11.77338959 11.16796875 10.52629541 10.62859725 7.87890625 9.16796875 C7.42515625 9.82796875 6.97140625 10.48796875 6.50390625 11.16796875 C5.96765625 11.82796875 5.43140625 12.48796875 4.87890625 13.16796875 C4.21890625 13.16796875 3.55890625 13.16796875 2.87890625 13.16796875 C2.87890625 11.84796875 2.87890625 10.52796875 2.87890625 9.16796875 C2.21890625 9.16796875 1.55890625 9.16796875 0.87890625 9.16796875 C0.87890625 10.48796875 0.87890625 11.80796875 0.87890625 13.16796875 C-0.60016267 13.19486091 -2.07936858 13.21431496 -3.55859375 13.23046875 C-4.79416016 13.24787109 -4.79416016 13.24787109 -6.0546875 13.265625 C-8.12109375 13.16796875 -8.12109375 13.16796875 -9.12109375 12.16796875 C-9.21960546 10.33680992 -9.25082004 8.50176942 -9.24609375 6.66796875 C-9.24867188 5.66765625 -9.25125 4.66734375 -9.25390625 3.63671875 C-8.96924626 -1.6546082 -4.19663168 0.00585304 0 0 Z " fill="#76746B" transform="translate(139.12109375,130.83203125)"/>
<path d="M0 0 C1.32 0 2.64 0 4 0 C4.1524147 14.3608521 3.69241678 28.65629181 3 43 C1.68 43 0.36 43 -1 43 C-3.11834035 40.88165965 -2.16419113 36.15396626 -2.16796875 33.22265625 C-2.17129715 32.34097275 -2.17462555 31.45928925 -2.17805481 30.55088806 C-2.18312783 28.68212406 -2.18546302 26.81335096 -2.18530273 24.94458008 C-2.18748808 22.07813656 -2.20563655 19.2120784 -2.22460938 16.34570312 C-2.22754339 14.53385549 -2.22952813 12.72200602 -2.23046875 10.91015625 C-2.23765427 10.0486647 -2.24483978 9.18717316 -2.25224304 8.29957581 C-2.2288216 2.2288216 -2.2288216 2.2288216 0 0 Z " fill="#090806" transform="translate(81,231)"/>
<path d="M0 0 C2.5 0.3125 2.5 0.3125 5 1 C6.59488768 4.18977536 6.16301154 7.64505829 6.16796875 11.1484375 C6.17129715 11.95737457 6.17462555 12.76631165 6.17805481 13.59976196 C6.18312186 15.31292146 6.1854632 17.02609083 6.18530273 18.73925781 C6.18748548 21.35758808 6.20563294 23.97549453 6.22460938 26.59375 C6.2275441 28.25781106 6.22952837 29.92187412 6.23046875 31.5859375 C6.23765427 32.36834808 6.24483978 33.15075867 6.25224304 33.95687866 C6.23621147 37.78162822 6.16616044 40.76014943 4 44 C3.01 44 2.02 44 1 44 C0.70928737 39.96597567 0.42478755 35.93156083 0.14550781 31.89672852 C0.05011955 30.53040373 -0.04683004 29.16418685 -0.14550781 27.7980957 C-1.46944364 9.43186354 -1.46944364 9.43186354 -1 1 C-0.67 0.67 -0.34 0.34 0 0 Z " fill="#0F0D07" transform="translate(215,231)"/>
<path d="M0 0 C0 1.98 0 3.96 0 6 C-8.68815426 7.06671373 -17.3852651 7.31660714 -26.125 7.5625 C-27.57292622 7.60580156 -29.02084302 7.64941906 -30.46875 7.69335938 C-33.97906578 7.79921106 -37.48948913 7.90080239 -41 8 C-41.33 9.32 -41.66 10.64 -42 12 C-41.67 8.7 -41.34 5.4 -41 2 C-39.85168701 1.96241577 -39.85168701 1.96241577 -38.68017578 1.92407227 C-35.16166069 1.80696546 -31.64333945 1.68476595 -28.125 1.5625 C-26.92101562 1.52318359 -25.71703125 1.48386719 -24.4765625 1.44335938 C-18.31330151 1.22563548 -12.20878448 0.9117033 -6.08154297 0.19897461 C-4.06248082 0.00597254 -2.0282657 0 0 0 Z " fill="#A37B08" transform="translate(211,131)"/>
<path d="M0 0 C20.295 0.495 20.295 0.495 41 1 C41 2.65 41 4.3 41 6 C36.30436582 6.02488717 31.60877081 6.04294796 26.91308594 6.05493164 C25.31867808 6.05993231 23.72427475 6.06673501 22.12988281 6.07543945 C19.82616046 6.0876933 17.52249922 6.0932711 15.21875 6.09765625 C14.16512268 6.10539818 14.16512268 6.10539818 13.09020996 6.11329651 C8.31279059 6.11382708 3.73121306 5.67025518 -1 5 C-0.67 3.35 -0.34 1.7 0 0 Z " fill="#A37C08" transform="translate(89,132)"/>
<path d="M0 0 C2.9667867 1.17110001 4.9708052 2.04594275 6.32421875 5.03125 C6.68966797 6.22234375 6.68966797 6.22234375 7.0625 7.4375 C7.31386719 8.2315625 7.56523437 9.025625 7.82421875 9.84375 C8.375 11.9375 8.375 11.9375 8.375 13.9375 C2.435 13.9375 -3.505 13.9375 -9.625 13.9375 C-8.2963323 5.84470581 -8.2963323 5.84470581 -5.3125 1.8125 C-2.625 -0.0625 -2.625 -0.0625 0 0 Z " fill="#010101" transform="translate(150.625,4.0625)"/>
<path d="M0 0 C3.81281945 0.13815529 7.62515717 0.28680562 11.4375 0.4375 C12.52611328 0.47681641 13.61472656 0.51613281 14.73632812 0.55664062 C16.28803711 0.61948242 16.28803711 0.61948242 17.87109375 0.68359375 C18.82943115 0.72025146 19.78776855 0.75690918 20.77514648 0.79467773 C23 1 23 1 24 2 C24.04063832 3.66617115 24.042721 5.33388095 24 7 C15.83759432 7.33853295 8.04927976 6.29901921 0 5 C0 3.35 0 1.7 0 0 Z " fill="#A47D09" transform="translate(85,218)"/>
<path d="M0 0 C12.21 0 24.42 0 37 0 C37 0.33 37 0.66 37 1 C34.36 1 31.72 1 29 1 C29 1.99 29 2.98 29 4 C29.66 4.33 30.32 4.66 31 5 C31 5.66 31 6.32 31 7 C23.08 7 15.16 7 7 7 C7 6.67 7 6.34 7 6 C12.61 6 18.22 6 24 6 C24 5.34 24 4.68 24 4 C24.99 4 25.98 4 27 4 C27 3.01 27 2.02 27 1 C25.35 2.32 23.7 3.64 22 5 C20 4 18 3 16 2 C16 2.99 16 3.98 16 5 C14.02 5 12.04 5 10 5 C10 4.01 10 3.02 10 2 C9.34 1.67 8.68 1.34 8 1 C8 2.32 8 3.64 8 5 C7.34 5 6.68 5 6 5 C6 3.68 6 2.36 6 1 C4.02 1 2.04 1 0 1 C0 0.67 0 0.34 0 0 Z " fill="#A29D88" transform="translate(131,131)"/>
<path d="M0 0 C0 1.65 0 3.3 0 5 C-8.0125322 6.03387512 -15.92905177 6.10466648 -24 6 C-24 4.35 -24 2.7 -24 1 C-15.98603754 0.3533402 -8.04212755 -0.16677223 0 0 Z " fill="#A27A08" transform="translate(215,218)"/>
<path d="M0 0 C6.27 0 12.54 0 19 0 C19 1.65 19 3.3 19 5 C9.595 5.495 9.595 5.495 0 6 C-0.33 7.32 -0.66 8.64 -1 10 C-0.67 6.7 -0.34 3.4 0 0 Z " fill="#C1A825" transform="translate(170,133)"/>
<path d="M0 0 C1.47906892 -0.02689216 2.95827483 -0.04634621 4.4375 -0.0625 C5.26121094 -0.07410156 6.08492187 -0.08570313 6.93359375 -0.09765625 C9 0 9 0 10 1 C9.91015699 2.85772162 9.75388139 4.71247985 9.5625 6.5625 C9.46066406 7.57441406 9.35882813 8.58632812 9.25390625 9.62890625 C9.17011719 10.41136719 9.08632812 11.19382813 9 12 C6.36 12 3.72 12 1 12 C0.957279 10.33388095 0.95936168 8.66617115 1 7 C1.33 6.67 1.66 6.34 2 6 C-0.97 5.505 -0.97 5.505 -4 5 C-2.68 4.34 -1.36 3.68 0 3 C0 2.01 0 1.02 0 0 Z " fill="#7C7B75" transform="translate(160,132)"/>
<path d="M0 0 C3.3 0 6.6 0 10 0 C9.28571429 8.57142857 9.28571429 8.57142857 6 12 C4.125 11.6875 4.125 11.6875 2 11 C-0.67927341 6.98108988 -0.15601248 4.75838077 0 0 Z " fill="#1A1307" transform="translate(102,77)"/>
<path d="M0 0 C6.27 0 12.54 0 19 0 C19 1.65 19 3.3 19 5 C12.73 5 6.46 5 0 5 C0 3.35 0 1.7 0 0 Z " fill="#BFA522" transform="translate(111,133)"/>
<path d="M0 0 C5.94 0 11.88 0 18 0 C18 1.65 18 3.3 18 5 C11.73 5 5.46 5 -1 5 C-0.67 3.35 -0.34 1.7 0 0 Z " fill="#A17A08" transform="translate(141,220)"/>
<path d="M0 0 C3.3 0 6.6 0 10 0 C10.28571429 8.57142857 10.28571429 8.57142857 8 12 C5.42783554 11.6452187 4.20322713 11.1957002 2.3125 9.375 C0.61074846 6.29564007 0.33411215 3.47476635 0 0 Z " fill="#1A1307" transform="translate(187,77)"/>
<path d="M0 0 C1.98 0 3.96 0 6 0 C5.01 0.495 5.01 0.495 4 1 C4 2.32 4 3.64 4 5 C4.66 5 5.32 5 6 5 C6.66 3.68 7.32 2.36 8 1 C12 1 12 1 15 3 C15 2.01 15 1.02 15 0 C16.98 0 18.96 0 21 0 C21 1.98 21 3.96 21 6 C15.06 6 9.12 6 3 6 C2.67 4.35 2.34 2.7 2 1 C1.34 0.67 0.68 0.34 0 0 Z " fill="#D2C069" transform="translate(138,139)"/>
<path d="M0 0 C3 1 3 1 4.25 2.625 C5.30061312 5.95194155 4.64998375 8.62008449 4 12 C2.02 12 0.04 12 -2 12 C-3.35384615 4.61538462 -3.35384615 4.61538462 -1.5625 1.5 C-1.046875 1.005 -0.53125 0.51 0 0 Z " fill="#1C180B" transform="translate(133,279)"/>
<path d="M0 0 C1.65 0.33 3.3 0.66 5 1 C6.125 8.75 6.125 8.75 5 11 C3.02 11 1.04 11 -1 11 C-2.23076923 4.6 -2.23076923 4.6 -1.0625 1.5625 C-0.711875 1.046875 -0.36125 0.53125 0 0 Z " fill="#131008" transform="translate(199,278)"/>
<path d="M0 0 C3 1 3 1 4 3 C4.18704404 5.69013339 4.08581391 8.29686177 4 11 C3 12 3 12 0.4375 12.0625 C-0.366875 12.041875 -1.17125 12.02125 -2 12 C-3.52491998 8.95016004 -3.23562548 6.3576631 -3 3 C-1.5 1.0625 -1.5 1.0625 0 0 Z " fill="#18150A" transform="translate(165,279)"/>
<path d="M0 0 C1.98 0 3.96 0 6 0 C6 1.32 6 2.64 6 4 C6.66 4 7.32 4 8 4 C8 2.68 8 1.36 8 0 C11 1 11 1 12 3 C12.99 3 13.98 3 15 3 C15.33 2.01 15.66 1.02 16 0 C17.32 0.99 18.64 1.98 20 3 C20.598125 2.690625 21.19625 2.38125 21.8125 2.0625 C24 1 24 1 27 0 C27 0.99 27 1.98 27 3 C26.01 3 25.02 3 24 3 C24 3.66 24 4.32 24 5 C17.73 5 11.46 5 5 5 C4.67 4.01 4.34 3.02 4 2 C2.68 2 1.36 2 0 2 C0 1.34 0 0.68 0 0 Z " fill="#5A5A5A" transform="translate(131,132)"/>
<path d="M0 0 C8.58 0 17.16 0 26 0 C25.01 0.495 25.01 0.495 24 1 C24 2.65 24 4.3 24 6 C23.34 6 22.68 6 22 6 C21.7525 5.360625 21.505 4.72125 21.25 4.0625 C20.18437567 1.81258459 20.18437567 1.81258459 17.875 1.25 C17.25625 1.1675 16.6375 1.085 16 1 C16.33 1.99 16.66 2.98 17 4 C13.89448334 4 12.64738916 3.4606285 10 2 C9.54625 2.66 9.0925 3.32 8.625 4 C8.08875 4.66 7.5525 5.32 7 6 C6.34 6 5.68 6 5 6 C5 4.68 5 3.36 5 2 C3.35 1.67 1.7 1.34 0 1 C0 0.67 0 0.34 0 0 Z " fill="#595958" transform="translate(137,138)"/>
<path d="M0 0 C3.875 0.875 3.875 0.875 5 2 C5.04092937 4.33297433 5.04241723 6.66705225 5 9 C2.69 9 0.38 9 -2 9 C-2.25 3.375 -2.25 3.375 0 0 Z " fill="#180E07" transform="translate(97,278)"/>
<path d="M0 0 C0.33 0 0.66 0 1 0 C1 5.61 1 11.22 1 17 C1.99 17 2.98 17 4 17 C4 17.66 4 18.32 4 19 C2.35 19 0.7 19 -1 19 C-1.02690104 16.20826945 -1.04679053 13.41679652 -1.0625 10.625 C-1.07087891 9.8309375 -1.07925781 9.036875 -1.08789062 8.21875 C-1.11328125 2.2265625 -1.11328125 2.2265625 0 0 Z " fill="#E2BE14" transform="translate(83,274)"/>
<path d="M0 0 C-0.99 0.5259375 -0.99 0.5259375 -2 1.0625 C-6.01964353 3.65851978 -9.45965414 6.79348328 -13 10 C-13 7 -13 7 -11 4 C-10.34 4 -9.68 4 -9 4 C-8.67 3.01 -8.34 2.02 -8 1 C-5.04059045 -1.0409721 -3.36242374 -1.20086562 0 0 Z " fill="#E3BD11" transform="translate(126,45)"/>
<path d="M0 0 C0 1.32 0 2.64 0 4 C-2.97 4 -5.94 4 -9 4 C-9 3.01 -9 2.02 -9 1 C-5.92677456 0.08941469 -3.19902639 -0.08886184 0 0 Z " fill="#58564C" transform="translate(140,140)"/>
<path d="M0 0 C0.86625 0.4640625 0.86625 0.4640625 1.75 0.9375 C3.85732874 1.93262746 5.73738455 2.48908683 8 3 C8.99 3.33 9.98 3.66 11 4 C11 4.33 11 4.66 11 5 C6.71 5 2.42 5 -2 5 C-1.34 3.35 -0.68 1.7 0 0 Z " fill="#928F7E" transform="translate(147,139)"/>
<path d="M0 0 C0.33 1.32 0.66 2.64 1 4 C2.98 4 4.96 4 7 4 C7.33 2.68 7.66 1.36 8 0 C7.67 2.31 7.34 4.62 7 7 C5.02 7 3.04 7 1 7 C0.67 4.69 0.34 2.38 0 0 Z " fill="#9A2105" transform="translate(197,282)"/>
<path d="M0 0 C2.97 0 5.94 0 9 0 C8.67 0.66 8.34 1.32 8 2 C5.35139573 2.59355614 2.70802678 2.74209269 0 3 C0 2.01 0 1.02 0 0 Z " fill="#4D4D4C" transform="translate(160,132)"/>
<path d="M0 0 C2.31 0 4.62 0 7 0 C6.67 0.99 6.34 1.98 6 3 C4.02 3 2.04 3 0 3 C0 2.01 0 1.02 0 0 Z " fill="#DA1E08" transform="translate(131,288)"/>
<path d="M0 0 C2.31 0 4.62 0 7 0 C6.67 0.99 6.34 1.98 6 3 C4.35 3 2.7 3 1 3 C0.67 2.01 0.34 1.02 0 0 Z " fill="#D71506" transform="translate(162,288)"/>
<path d="M0 0 C0.66 0 1.32 0 2 0 C2 0.99 2 1.98 2 3 C2.66 3 3.32 3 4 3 C3.67 3.99 3.34 4.98 3 6 C2.34 6 1.68 6 1 6 C1 5.34 1 4.68 1 4 C0.34 4 -0.32 4 -1 4 C-0.67 2.68 -0.34 1.36 0 0 Z " fill="#EED530" transform="translate(149,147)"/>
<path d="M0 0 C1.98 0 3.96 0 6 0 C6 1.65 6 3.3 6 5 C3.03 4.505 3.03 4.505 0 4 C0 2.68 0 1.36 0 0 Z " fill="#BDBDBB" transform="translate(153,139)"/>
<path d="M0 0 C0.66 0.33 1.32 0.66 2 1 C2.625 3.5625 2.625 3.5625 3 6 C2.34 5.67 1.68 5.34 1 5 C0.34 6.32 -0.32 7.64 -1 9 C-1.33 6.69 -1.66 4.38 -2 2 C-1.34 2 -0.68 2 0 2 C0 1.34 0 0.68 0 0 Z " fill="#C4A00F" transform="translate(198,74)"/>
<path d="M0 0 C2.97 0.495 2.97 0.495 6 1 C6 1.99 6 2.98 6 4 C4.02 4 2.04 4 0 4 C0 2.68 0 1.36 0 0 Z " fill="#5B5948" transform="translate(163,140)"/>
<path d="M0 0 C1.65 0 3.3 0 5 0 C4.01 0.495 4.01 0.495 3 1 C3 2.65 3 4.3 3 6 C2.34 6 1.68 6 1 6 C0.67 4.02 0.34 2.04 0 0 Z " fill="#605F5B" transform="translate(158,138)"/>
</svg>
