<?xml version="1.0" encoding="UTF-8"?>
<svg version="1.1" xmlns="http://www.w3.org/2000/svg" width="300" height="300">
<path d="M0 0 C2.4375 0.8125 2.4375 0.8125 5.4375 2.8125 C6.39453125 5.0546875 6.39453125 5.0546875 7.25 7.6875 C9.0878842 12.60489246 10.98928954 13.99832603 15.4375 16.8125 C19.68347897 22.51567886 21.7874581 29.29244299 23.93359375 35.9921875 C25.86526584 39.61469984 27.7901255 40.05386433 31.4375 41.8125 C33.50104123 43.82920034 35.14606846 46.08788609 36.8125 48.4375 C37.28510254 49.09556641 37.75770508 49.75363281 38.24462891 50.43164062 C46.34093072 62.08154767 51.4946979 75.25347446 55.4375 88.8125 C55.73398438 89.81925781 56.03046875 90.82601562 56.3359375 91.86328125 C61.90526944 113.12048384 61.11049542 136.32608084 62.05342102 158.15779114 C62.34569702 164.87351842 62.66855982 171.58727414 63.0078125 178.30078125 C63.10160636 180.17740666 63.19535689 182.05403424 63.2890625 183.93066406 C63.42285948 186.60767111 63.55778878 189.28458632 63.69726562 191.96130371 C64.30155445 203.58991759 64.54757427 215.16821488 64.4375 226.8125 C65.6440625 226.998125 65.6440625 226.998125 66.875 227.1875 C67.720625 227.39375 68.56625 227.6 69.4375 227.8125 C71.03238768 231.00227536 70.60051154 234.45755829 70.60546875 237.9609375 C70.60879715 238.76987457 70.61212555 239.57881165 70.61555481 240.41226196 C70.62062186 242.12542146 70.6229632 243.83859083 70.62280273 245.55175781 C70.62498548 248.17008808 70.64313294 250.78799453 70.66210938 253.40625 C70.6650441 255.07031106 70.66702837 256.73437412 70.66796875 258.3984375 C70.67515427 259.18084808 70.68233978 259.96325867 70.68974304 260.76937866 C70.67371147 264.59412822 70.60366044 267.57264943 68.4375 270.8125 C67.7775 270.8125 67.1175 270.8125 66.4375 270.8125 C66.6025 271.555 66.7675 272.2975 66.9375 273.0625 C67.63804587 278.31659401 67.51457499 283.52001749 67.4375 288.8125 C57.41832917 289.96226404 47.38449367 290.15085217 37.3125 290.375 C35.95742844 290.40626984 35.95742844 290.40626984 34.57498169 290.43817139 C10.05737416 290.99680383 -14.42055542 290.95576415 -38.9375 290.375 C-39.79248077 290.3554425 -40.64746155 290.33588501 -41.52835083 290.31573486 C-50.57338522 290.10296712 -59.56432301 289.83473505 -68.5625 288.8125 C-68.52769531 287.62011719 -68.49289063 286.42773438 -68.45703125 285.19921875 C-68.42889247 283.63282658 -68.4015924 282.06641919 -68.375 280.5 C-68.34986328 279.71431641 -68.32472656 278.92863281 -68.29882812 278.11914062 C-68.28916016 277.36181641 -68.27949219 276.60449219 -68.26953125 275.82421875 C-68.2538208 275.12772217 -68.23811035 274.43122559 -68.22192383 273.71362305 C-68.38462413 271.69670581 -68.38462413 271.69670581 -70.06051636 270.44247437 C-72.71437747 267.56246591 -71.96598888 263.56468845 -71.92578125 259.83984375 C-71.92627975 258.96099014 -71.92677826 258.08213654 -71.92729187 257.176651 C-71.92495218 255.31981137 -71.9152298 253.46296853 -71.89868164 251.60620117 C-71.87506105 248.75736283 -71.87812481 245.90945842 -71.88476562 243.06054688 C-71.87918984 241.2578069 -71.87208059 239.45507087 -71.86328125 237.65234375 C-71.86419266 236.79712631 -71.86510406 235.94190887 -71.86604309 235.06077576 C-71.7935314 229.0435314 -71.7935314 229.0435314 -69.5625 226.8125 C-68.2425 226.8125 -66.9225 226.8125 -65.5625 226.8125 C-65.57297363 226.13300293 -65.58344727 225.45350586 -65.59423828 224.75341797 C-65.81608083 207.7950998 -65.32548116 190.98501808 -64.34204102 174.05859375 C-63.75700165 163.93255588 -63.36761034 153.82758236 -63.125 143.6875 C-61.90454137 98.39004633 -61.90454137 98.39004633 -53.65234375 79.36328125 C-52.39768768 76.42675646 -51.33637584 73.44017158 -50.25 70.4375 C-46.71707084 61.21927252 -41.71296006 52.54450693 -35.5625 44.8125 C-34.9025 44.8125 -34.2425 44.8125 -33.5625 44.8125 C-33.2325 43.8225 -32.9025 42.8325 -32.5625 41.8125 C-31.61375 41.6475 -30.665 41.4825 -29.6875 41.3125 C-26.41788615 40.176644 -26.41788615 40.176644 -25.67578125 37.59375 C-25.2104494 35.67862699 -24.76357477 33.75895598 -24.33203125 31.8359375 C-22.53254002 24.7658552 -19.24321568 18.44676805 -13.5625 13.8125 C-12.5725 13.4825 -11.5825 13.1525 -10.5625 12.8125 C-9.40144632 10.34912374 -8.59129023 7.8373922 -7.72265625 5.2578125 C-5.99939441 1.62561751 -4.11646172 -0.30120452 0 0 Z " fill="#777777" transform="translate(150.5625,4.1875)"/>
<path d="M0 0 C1.15048828 0.15847412 2.30097656 0.31694824 3.48632812 0.48022461 C7.73493697 1.00978419 11.94123056 1.2146321 16.21875 1.31640625 C16.96209595 1.33718735 17.70544189 1.35796844 18.47131348 1.37937927 C20.81412748 1.44405128 23.15704024 1.50337092 25.5 1.5625 C27.10157216 1.60576384 28.70313482 1.64938044 30.3046875 1.69335938 C34.20302733 1.79964636 38.1014651 1.90113794 42 2 C42 2.33 42 2.66 42 3 C35.4 3 28.8 3 22 3 C22.00785522 5.30278931 22.00785522 5.30278931 22.01586914 7.65209961 C22.0342917 13.47647493 22.04556465 19.30084782 22.05493164 25.12524414 C22.05988836 27.62199337 22.06665571 30.11873982 22.07543945 32.61547852 C22.1330639 49.44520536 21.78072054 66.18684502 21 83 C36.84 83.495 36.84 83.495 53 84 C52.67 57.6 52.34 31.2 52 4 C51.34 3.67 50.68 3.34 50 3 C51.98 3 53.96 3 56 3 C55.34 3.33 54.68 3.66 54 4 C54 5.32 54 6.64 54 8 C54.66 8 55.32 8 56 8 C56.66 6.68 57.32 5.36 58 4 C62 4 62 4 65 6 C65 5.01 65 4.02 65 3 C66.98 3 68.96 3 71 3 C71 29.73 71 56.46 71 84 C81.56 84 92.12 84 103 84 C102.7834375 79.25109375 102.7834375 79.25109375 102.5625 74.40625 C101.50247326 50.58705338 100.68232329 26.84340227 101 3 C94.73 3 88.46 3 82 3 C82 2.67 82 2.34 82 2 C95.53 1.67 109.06 1.34 123 1 C123.67598967 5.73192771 124.17972099 10.1083792 124.38891602 14.84301758 C124.41832275 15.48812286 124.44772949 16.13322815 124.47802734 16.79788208 C124.57348151 18.91329298 124.66388894 21.02888253 124.75390625 23.14453125 C124.81954872 24.63841062 124.88538382 26.13228154 124.95140076 27.62614441 C125.08894411 30.75709762 125.2239447 33.88814761 125.35717773 37.01928711 C125.52587787 40.97860071 125.7011993 44.93758816 125.87833595 48.89653206 C127.27585737 80.25962119 127.27585737 80.25962119 127 95 C128.2065625 95.185625 128.2065625 95.185625 129.4375 95.375 C130.283125 95.58125 131.12875 95.7875 132 96 C133.59488768 99.18977536 133.16301154 102.64505829 133.16796875 106.1484375 C133.17129715 106.95737457 133.17462555 107.76631165 133.17805481 108.59976196 C133.18312186 110.31292146 133.1854632 112.02609083 133.18530273 113.73925781 C133.18748548 116.35758808 133.20563294 118.97549453 133.22460938 121.59375 C133.2275441 123.25781106 133.22952837 124.92187412 133.23046875 126.5859375 C133.23765427 127.36834808 133.24483978 128.15075867 133.25224304 128.95687866 C133.23621147 132.78162822 133.16616044 135.76014943 131 139 C130.34 139 129.68 139 129 139 C129.165 139.7425 129.33 140.485 129.5 141.25 C130.20054587 146.50409401 130.07707499 151.70751749 130 157 C119.98082917 158.14976404 109.94699367 158.33835217 99.875 158.5625 C98.97161896 158.58334656 98.06823792 158.60419312 97.13748169 158.62567139 C72.61987416 159.18430383 48.14194458 159.14326415 23.625 158.5625 C22.77001923 158.5429425 21.91503845 158.52338501 21.03414917 158.50323486 C11.98911478 158.29046712 2.99817699 158.02223505 -6 157 C-5.96519531 155.80761719 -5.93039063 154.61523438 -5.89453125 153.38671875 C-5.86639247 151.82032658 -5.8390924 150.25391919 -5.8125 148.6875 C-5.78736328 147.90181641 -5.76222656 147.11613281 -5.73632812 146.30664062 C-5.72666016 145.54931641 -5.71699219 144.79199219 -5.70703125 144.01171875 C-5.6913208 143.31522217 -5.67561035 142.61872559 -5.65942383 141.90112305 C-5.82212413 139.88420581 -5.82212413 139.88420581 -7.49801636 138.62997437 C-10.15187747 135.74996591 -9.40348888 131.75218845 -9.36328125 128.02734375 C-9.36377975 127.14849014 -9.36427826 126.26963654 -9.36479187 125.364151 C-9.36245218 123.50731137 -9.3527298 121.65046853 -9.33618164 119.79370117 C-9.31256105 116.94486283 -9.31562481 114.09695842 -9.32226562 111.24804688 C-9.31668984 109.4453069 -9.30958059 107.64257087 -9.30078125 105.83984375 C-9.30169266 104.98462631 -9.30260406 104.12940887 -9.30354309 103.24827576 C-9.2310314 97.2310314 -9.2310314 97.2310314 -7 95 C-5.68 95 -4.36 95 -3 95 C-3.01047363 94.32050293 -3.02094727 93.64100586 -3.03173828 92.94091797 C-3.26477938 75.12654856 -2.66623212 57.47140804 -1.64840698 39.69070435 C-1.60329987 38.90202972 -1.55819275 38.1133551 -1.51171875 37.30078125 C-1.44442062 36.12804153 -1.44442062 36.12804153 -1.37576294 34.93161011 C-0.71974955 23.29597223 -0.35560371 11.64818985 0 0 Z " fill="#757575" transform="translate(88,136)"/>
<path d="M0 0 C6.6 0 13.2 0 20 0 C20.33 1.32 20.66 2.64 21 4 C24.3 4.33 27.6 4.66 31 5 C31 30.08 31 55.16 31 81 C2 81 2 81 -1 80 C-1.07800451 61.97270723 -0.85652158 43.96098182 -0.5 25.9375 C-0.45160619 23.40169684 -0.40342813 20.86588954 -0.35546875 18.33007812 C-0.23945287 12.2200019 -0.12056445 6.10998809 0 0 Z " fill="#A1A1A1" transform="translate(110,139)"/>
<path d="M0 0 C0.33 0 0.66 0 1 0 C1 1.65 1 3.3 1 5 C4.465 4.505 4.465 4.505 8 4 C8.33 2.68 8.66 1.36 9 0 C15.27 0 21.54 0 28 0 C28.29172634 7.1957871 28.57612668 14.3918184 28.85449219 21.58813477 C28.94961171 24.02277948 29.0465407 26.45735435 29.14550781 28.8918457 C29.85054421 46.27674819 30.09289459 63.59968247 30 81 C19.44 81 8.88 81 -2 81 C-2 55.92 -2 30.84 -2 5 C-1.34 5 -0.68 5 0 5 C0 3.35 0 1.7 0 0 Z " fill="#A1A1A1" transform="translate(161,139)"/>
<path d="M0 0 C-0.60821921 21.3569004 -1.32238336 42.70978917 -2.0625 64.0625 C-2.08555962 64.72780479 -2.10861923 65.39310959 -2.13237762 66.07857513 C-2.42041493 74.38575761 -2.70965381 82.69289792 -3 91 C-3.71027344 91.06058594 -4.42054688 91.12117188 -5.15234375 91.18359375 C-6.07144531 91.26738281 -6.99054688 91.35117188 -7.9375 91.4375 C-8.85402344 91.51871094 -9.77054688 91.59992188 -10.71484375 91.68359375 C-12.96159732 91.76044976 -12.96159732 91.76044976 -14 93 C-15.41570123 93.08651611 -16.835595 93.10704904 -18.25390625 93.09765625 C-19.10791016 93.09443359 -19.96191406 93.09121094 -20.84179688 93.08789062 C-21.73962891 93.07951172 -22.63746094 93.07113281 -23.5625 93.0625 C-24.46419922 93.05798828 -25.36589844 93.05347656 -26.29492188 93.04882812 C-28.53001314 93.03700225 -30.76497437 93.0205222 -33 93 C-33.92045774 68.40332371 -30.9213552 43.6479636 -24 20 C-23.77054688 19.21302734 -23.54109375 18.42605469 -23.3046875 17.61523438 C-22.61991959 15.35211406 -21.8870653 13.11315153 -21.125 10.875 C-20.91697754 10.21709473 -20.70895508 9.55918945 -20.49462891 8.88134766 C-19.55867505 6.34593609 -18.65092507 4.4162904 -16.33520508 2.93530273 C-10.82466282 0.51342625 -5.94052434 -0.04074434 0 0 Z " fill="#A0A0A0" transform="translate(144,40)"/>
<path d="M0 0 C2.16879585 0.19077371 4.32435837 0.41630979 6.484375 0.69140625 C8.9426956 1.02753343 8.9426956 1.02753343 11.203125 1.08984375 C13.5727002 1.34760288 14.98558479 1.70723243 17 3 C19.43097048 6.73587835 20.67159481 10.76711567 22 15 C22.21253418 15.65548828 22.42506836 16.31097656 22.64404297 16.98632812 C27.45985965 31.91854442 30.27695365 46.85996571 31.50805664 62.48095703 C31.68852891 64.76301048 31.88331463 67.04351773 32.08007812 69.32421875 C32.74259377 77.22312323 33.20336932 85.06752054 33 93 C29.87501937 93.02895976 26.7500731 93.04678483 23.625 93.0625 C22.73554688 93.07087891 21.84609375 93.07925781 20.9296875 93.08789062 C19.65351563 93.09272461 19.65351563 93.09272461 18.3515625 93.09765625 C17.17327881 93.10551147 17.17327881 93.10551147 15.97119141 93.11352539 C14 93 14 93 12 92 C10.46331135 91.77532169 8.92031946 91.59203195 7.375 91.4375 C6.14910156 91.31181641 6.14910156 91.31181641 4.8984375 91.18359375 C4.27195313 91.12300781 3.64546875 91.06242187 3 91 C2.96574669 89.8727224 2.96574669 89.8727224 2.93080139 88.72267151 C2.71276165 81.56112792 2.4923783 74.39966175 2.26950932 67.23826694 C2.15507171 63.55853969 2.04146942 59.878791 1.92993164 56.19897461 C1.32365492 35.19502009 1.32365492 35.19502009 0.1875 14.21484375 C-0.08894021 9.47504593 -0.09224784 4.74563883 0 0 Z " fill="#A1A1A1" transform="translate(156,40)"/>
<path d="M0 0 C10.56 0 21.12 0 32 0 C33.00256712 14.68465964 33.31549184 29.3478708 33.5625 44.0625 C33.60580327 46.49024004 33.6494208 48.9179745 33.69335938 51.34570312 C33.79919121 57.23040937 33.90116228 63.11517234 34 69 C29.3188055 69.16725324 24.63744899 69.32784864 19.95581055 69.48217773 C18.36199744 69.53566794 16.76824515 69.59100255 15.17456055 69.64819336 C12.88864258 69.72990942 10.60259054 69.80506897 8.31640625 69.87890625 C7.59973282 69.90594131 6.88305939 69.93297638 6.14466858 69.96083069 C4.43052233 70.01297644 2.71489824 70.01185628 1 70 C0 69 0 69 -0.12025452 66.26023865 C-0.11803391 65.03668167 -0.11581329 63.81312469 -0.11352539 62.55249023 C-0.11367142 61.87934784 -0.11381744 61.20620544 -0.1139679 60.51266479 C-0.11326878 58.27794216 -0.10547652 56.0433019 -0.09765625 53.80859375 C-0.09579206 52.26302638 -0.09436816 50.71745843 -0.09336853 49.17189026 C-0.0895434 45.09642923 -0.07971317 41.02100363 -0.06866455 36.94555664 C-0.05665566 32.05972272 -0.05204817 27.17387698 -0.04621124 22.28803253 C-0.0365014 14.85866369 -0.01734484 7.42937263 0 0 Z " fill="#A0A0A0" transform="translate(159,225)"/>
<path d="M0 0 C15.84 0.495 15.84 0.495 32 1 C32 23.77 32 46.54 32 70 C21.11 69.67 10.22 69.34 -1 69 C-1.09039682 45.94881086 -0.80826953 23.03568169 0 0 Z " fill="#A1A1A1" transform="translate(108,225)"/>
<path d="M0 0 C1.98 0 3.96 0 6 0 C6 4.62 6 9.24 6 14 C8.475 14.495 8.475 14.495 11 15 C12.59488768 18.18977536 12.16301154 21.64505829 12.16796875 25.1484375 C12.17129715 25.95737457 12.17462555 26.76631165 12.17805481 27.59976196 C12.18312186 29.31292146 12.1854632 31.02609083 12.18530273 32.73925781 C12.18748548 35.35758808 12.20563294 37.97549453 12.22460938 40.59375 C12.2275441 42.25781106 12.22952837 43.92187412 12.23046875 45.5859375 C12.23765427 46.36834808 12.24483978 47.15075867 12.25224304 47.95687866 C12.23621147 51.78162822 12.16616044 54.76014943 10 58 C9.34 58 8.68 58 8 58 C8.2475 59.11375 8.2475 59.11375 8.5 60.25 C9.20054587 65.50409401 9.07707499 70.70751749 9 76 C0.64736824 76.95458649 -7.59784035 77.11039334 -16 77 C-17.2904038 71.99058289 -17.22590321 66.96686533 -17.31640625 61.828125 C-17.33718735 60.83230408 -17.35796844 59.83648315 -17.37937927 58.81048584 C-17.42258173 56.69905723 -17.46363114 54.58758363 -17.50268555 52.47607422 C-17.56151833 49.30294608 -17.6268125 46.13000598 -17.69335938 42.95703125 C-17.92960318 31.30325146 -18.06254971 19.65608843 -18 8 C-16.91662354 7.84660156 -15.83324707 7.69320312 -14.71704102 7.53515625 C-12.73019023 7.25383225 -10.74342794 6.9718314 -8.75756836 6.68359375 C-4.47275124 6.0954015 -0.32103792 5.91009544 4 6 C4 4.35 4 2.7 4 1 C2.68 0.67 1.36 0.34 0 0 Z " fill="#767676" transform="translate(209,217)"/>
<path d="M0 0 C1.15048828 0.15847412 2.30097656 0.31694824 3.48632812 0.48022461 C7.73493697 1.00978419 11.94123056 1.2146321 16.21875 1.31640625 C16.96209595 1.33718735 17.70544189 1.35796844 18.47131348 1.37937927 C20.81412748 1.44405128 23.15704024 1.50337092 25.5 1.5625 C27.10157216 1.60576384 28.70313482 1.64938044 30.3046875 1.69335938 C34.20302733 1.79964636 38.1014651 1.90113794 42 2 C42 2.33 42 2.66 42 3 C35.4 3 28.8 3 22 3 C22.00785522 5.30278931 22.00785522 5.30278931 22.01586914 7.65209961 C22.0342917 13.47647493 22.04556465 19.30084782 22.05493164 25.12524414 C22.05988836 27.62199337 22.06665571 30.11873982 22.07543945 32.61547852 C22.13303794 49.43762526 21.8320558 66.19739448 21 83 C22.485 83.495 22.485 83.495 24 84 C20.97893247 83.85815167 17.95820903 83.71164333 14.9375 83.5625 C14.08994141 83.52318359 13.24238281 83.48386719 12.36914062 83.44335938 C7.5185691 83.19989439 2.79689275 82.75807468 -2 82 C-2.33 82 -2.66 82 -3 82 C-3.12281005 71.34918482 -2.822686 60.77919709 -2.2020874 50.14678955 C-1.96161204 46.01770034 -1.73619361 41.88779831 -1.51171875 37.7578125 C-1.44443573 36.52331863 -1.44443573 36.52331863 -1.37579346 35.2638855 C-0.74628935 23.51600131 -0.35898511 11.75895138 0 0 Z " fill="#777777" transform="translate(88,136)"/>
<path d="M0 0 C0.7609066 4.84912899 1.19308625 9.58307684 1.38891602 14.49584961 C1.41832275 15.20888245 1.44772949 15.92191528 1.47802734 16.65655518 C1.57336301 18.98836223 1.66367502 21.32033409 1.75390625 23.65234375 C1.81942632 25.2790297 1.88526262 26.90570295 1.95140076 28.53236389 C2.12387015 32.79501406 2.2920661 37.05782234 2.45935059 41.32067871 C2.63111 45.67808286 2.80694097 50.03532254 2.98242188 54.39257812 C3.32558319 62.92823032 3.66422675 71.464054 4 80 C-1.97428519 81.34805163 -7.49748483 82.24514736 -13.625 82.125 C-14.83414063 82.10695313 -16.04328125 82.08890625 -17.2890625 82.0703125 C-18.18367188 82.04710937 -19.07828125 82.02390625 -20 82 C-21.25646703 55.32012552 -22.35354934 28.71261648 -22 2 C-28.27 2 -34.54 2 -41 2 C-41 1.67 -41 1.34 -41 1 C-36.28609117 0.85623897 -31.57214301 0.71387117 -26.8581543 0.57275391 C-25.25690596 0.52462763 -23.65566871 0.47613096 -22.05444336 0.42724609 C-19.74335552 0.3567554 -17.43223014 0.2876286 -15.12109375 0.21875 C-14.41351425 0.19687622 -13.70593475 0.17500244 -12.97691345 0.15246582 C-8.64842061 0.02505825 -4.3296567 -0.01978141 0 0 Z " fill="#777777" transform="translate(211,137)"/>
<path d="M0 0 C3.96 0 7.92 0 12 0 C14.37610353 30.35875963 15.17447309 60.56115715 15 91 C14.01 91 13.02 91 12 91 C11.34 92.32 10.68 93.64 10 95 C6 95 6 95 3 93 C3 94.32 3 95.64 3 97 C5.64 97 8.28 97 11 97 C11 96.34 11 95.68 11 95 C11.99 95 12.98 95 14 95 C14 94.01 14 93.02 14 92 C14.66 92 15.32 92 16 92 C16 92.99 16 93.98 16 95 C16.66 95 17.32 95 18 95 C18 95.99 18 96.98 18 98 C10.08 98 2.16 98 -6 98 C-6 97.67 -6 97.34 -6 97 C-3.525 96.505 -3.525 96.505 -1 96 C-1.66 95.67 -2.32 95.34 -3 95 C-2.505 94.01 -2.505 94.01 -2 93 C-2.66 93 -3.32 93 -4 93 C-4.33 93.99 -4.66 94.98 -5 96 C-5.66 96 -6.32 96 -7 96 C-7 94.68 -7 93.36 -7 92 C-8.98 92 -10.96 92 -13 92 C-13 91.67 -13 91.34 -13 91 C-9.7 91 -6.4 91 -3 91 C-3.01047363 90.13987305 -3.02094727 89.27974609 -3.03173828 88.39355469 C-3.22881738 69.37916319 -2.95354323 50.43388559 -2.0625 31.4375 C-1.99715057 30.02507019 -1.99715057 30.02507019 -1.93048096 28.58410645 C-1.48215914 19.03395477 -0.97686767 9.51345905 0 0 Z " fill="#787878" transform="translate(144,40)"/>
<path d="M0 0 C4.2628337 1.95660207 6.51639783 4.81330652 9.15234375 8.6015625 C9.62043457 9.25962891 10.08852539 9.91769531 10.57080078 10.59570312 C18.61153396 22.27633089 23.76148893 35.42651429 27.71484375 48.9765625 C28.15957031 50.43449219 28.15957031 50.43449219 28.61328125 51.921875 C31.68044904 63.30987423 31.95190577 75.25854743 32.71484375 86.9765625 C30.7372152 87.31890315 28.75762536 87.64991811 26.77734375 87.9765625 C25.67519531 88.1621875 24.57304687 88.3478125 23.4375 88.5390625 C20.53703328 88.87993582 17.88591113 89.02251247 14.98217773 89.00390625 C14.18045639 88.9999585 13.37873505 88.99601074 12.55271912 88.99194336 C11.94622025 88.98686768 11.33972137 88.98179199 10.71484375 88.9765625 C10.61461914 87.67734863 10.51439453 86.37813477 10.41113281 85.03955078 C10.02887532 80.12928996 9.62956063 75.22052945 9.22558594 70.31201172 C9.05440453 68.20430061 8.88759529 66.09622892 8.72558594 63.98779297 C7.3998959 46.79473885 4.73732499 30.65506722 -0.41015625 14.1640625 C-0.78720703 12.91786133 -0.78720703 12.91786133 -1.171875 11.64648438 C-2.38476306 7.68078494 -3.65798124 3.79654955 -5.28515625 -0.0234375 C-3.28515625 -1.0234375 -3.28515625 -1.0234375 0 0 Z " fill="#777777" transform="translate(178.28515625,44.0234375)"/>
<path d="M0 0 C1.98 0 3.96 0 6 0 C5.01 0.495 5.01 0.495 4 1 C4 2.32 4 3.64 4 5 C4.66 5 5.32 5 6 5 C6.66 3.68 7.32 2.36 8 1 C12 1 12 1 15 3 C15 2.01 15 1.02 15 0 C16.98 0 18.96 0 21 0 C21 26.73 21 53.46 21 81 C15.06 81 9.12 81 3 81 C2.67 54.6 2.34 28.2 2 1 C1.34 0.67 0.68 0.34 0 0 Z " fill="#777777" transform="translate(138,139)"/>
<path d="M0 0 C14.19 0 28.38 0 43 0 C43.33 23.1 43.66 46.2 44 70 C37.4 70 30.8 70 24 70 C24 47.23 24 24.46 24 1 C16.08 1 8.16 1 0 1 C0 0.67 0 0.34 0 0 Z " fill="#777777" transform="translate(116,225)"/>
<path d="M0 0 C2.4375 0.8125 2.4375 0.8125 5.4375 2.8125 C6.39453125 5.0546875 6.39453125 5.0546875 7.25 7.6875 C9.0878842 12.60489246 10.98928954 13.99832603 15.4375 16.8125 C19.96511792 22.9711042 24.4375 32.1063791 24.4375 39.8125 C23.7775 39.5959375 23.1175 39.379375 22.4375 39.15625 C14.68043764 36.97457621 7.34311241 36.48211451 -0.6875 36.4375 C-1.6878125 36.42396484 -2.688125 36.41042969 -3.71875 36.39648438 C-9.94211388 36.43323652 -15.33837374 37.30991824 -21.28076172 39.16943359 C-23.5625 39.8125 -23.5625 39.8125 -26.5625 39.8125 C-24.29790357 30.12812827 -21.53092091 20.3130539 -13.5625 13.8125 C-12.5725 13.4825 -11.5825 13.1525 -10.5625 12.8125 C-9.40144632 10.34912374 -8.59129023 7.8373922 -7.72265625 5.2578125 C-5.99939441 1.62561751 -4.11646172 -0.30120452 0 0 Z " fill="#5C5C5C" transform="translate(150.5625,4.1875)"/>
<path d="M0 0 C0.495 1.485 0.495 1.485 1 3 C3.475 3.495 3.475 3.495 6 4 C6.55494141 3.01966797 6.55494141 3.01966797 7.12109375 2.01953125 C9 0 9 0 11.84765625 -0.42578125 C12.90855469 -0.38839844 13.96945313 -0.35101563 15.0625 -0.3125 C16.65771484 -0.27576172 16.65771484 -0.27576172 18.28515625 -0.23828125 C21 0 21 0 23 1 C24.95249529 1.09750518 26.9083539 1.1307705 28.86328125 1.1328125 C30.66055664 1.13474609 30.66055664 1.13474609 32.49414062 1.13671875 C33.75419922 1.13285156 35.01425781 1.12898437 36.3125 1.125 C37.53001953 1.12886719 38.74753906 1.13273438 40.00195312 1.13671875 C48.04572793 1.12816609 55.99051259 0.73768278 64 0 C64 1.98 64 3.96 64 6 C58.9283855 6.83706259 54.02235861 7.13517405 48.87890625 7.09765625 C48.13414536 7.0962413 47.38938446 7.09482635 46.62205505 7.09336853 C44.26882727 7.08781989 41.9156985 7.07527733 39.5625 7.0625 C37.95638159 7.05747835 36.35026168 7.05291661 34.74414062 7.04882812 C30.82938957 7.03786735 26.91471151 7.02063884 23 7 C23.020625 7.804375 23.04125 8.60875 23.0625 9.4375 C23 12 23 12 22 13 C20.31391034 13.07205511 18.62499341 13.08386068 16.9375 13.0625 C16.01839844 13.05347656 15.09929687 13.04445312 14.15234375 13.03515625 C13.44207031 13.02355469 12.73179687 13.01195312 12 13 C11.71382813 12.35546875 11.42765625 11.7109375 11.1328125 11.046875 C10.18581338 8.80115872 10.18581338 8.80115872 7.875 8.25 C7.25625 8.1675 6.6375 8.085 6 8 C6.495 9.485 6.495 9.485 7 11 C3.89448334 11 2.64738916 10.4606285 0 9 C-0.45375 9.66 -0.9075 10.32 -1.375 11 C-1.91125 11.66 -2.4475 12.32 -3 13 C-3.66 13 -4.32 13 -5 13 C-5 11.68 -5 10.36 -5 9 C-5.66 9 -6.32 9 -7 9 C-7 10.32 -7 11.64 -7 13 C-8.47906892 13.02689216 -9.95827483 13.04634621 -11.4375 13.0625 C-12.67306641 13.07990234 -12.67306641 13.07990234 -13.93359375 13.09765625 C-16 13 -16 13 -17 12 C-17.04063832 10.33382885 -17.042721 8.66611905 -17 7 C-18.48209961 7.01571045 -18.48209961 7.01571045 -19.99414062 7.03173828 C-23.6916943 7.06818615 -27.38923239 7.09098985 -31.08691406 7.10986328 C-32.68134235 7.11986475 -34.27575257 7.13347031 -35.87011719 7.15087891 C-38.17387376 7.17538695 -40.47738595 7.18654176 -42.78125 7.1953125 C-43.48366821 7.20563507 -44.18608643 7.21595764 -44.90979004 7.22659302 C-49.9020395 7.22770188 -54.19454554 6.36154543 -59 5 C-58.67 3.68 -58.34 2.36 -58 1 C-42.16 1 -26.32 1 -10 1 C-10 2.32 -10 3.64 -10 5 C-9.34 5 -8.68 5 -8 5 C-7.67 3.68 -7.34 2.36 -7 1 C-5 2 -5 2 -4 4 C-3.01 4.33 -2.02 4.66 -1 5 C-1 5.33 -1 5.66 -1 6 C4.28 6.33 9.56 6.66 15 7 C15 6.01 15 5.02 15 4 C14.34 4 13.68 4 13 4 C13 3.01 13 2.02 13 1 C12.34 1 11.68 1 11 1 C11 1.99 11 2.98 11 4 C10.01 4 9.02 4 8 4 C8 4.66 8 5.32 8 6 C5.36 6 2.72 6 0 6 C-1.125 2.25 -1.125 2.25 0 0 Z " fill="#727272" transform="translate(147,131)"/>
<path d="M0 0 C1.32 0 2.64 0 4 0 C4.2195725 14.34540313 3.56408322 28.66838573 3 43 C1.68 43 0.36 43 -1 43 C-3.11834035 40.88165965 -2.16419113 36.15396626 -2.16796875 33.22265625 C-2.17129715 32.34097275 -2.17462555 31.45928925 -2.17805481 30.55088806 C-2.18312783 28.68212406 -2.18546302 26.81335096 -2.18530273 24.94458008 C-2.18748808 22.07813656 -2.20563655 19.2120784 -2.22460938 16.34570312 C-2.22754339 14.53385549 -2.22952813 12.72200602 -2.23046875 10.91015625 C-2.23765427 10.0486647 -2.24483978 9.18717316 -2.25224304 8.29957581 C-2.2288216 2.2288216 -2.2288216 2.2288216 0 0 Z " fill="#141414" transform="translate(81,231)"/>
<path d="M0 0 C2.4375 0.375 2.4375 0.375 5 1 C6.59488768 4.18977536 6.16301154 7.64505829 6.16796875 11.1484375 C6.17129715 11.95737457 6.17462555 12.76631165 6.17805481 13.59976196 C6.18312186 15.31292146 6.1854632 17.02609083 6.18530273 18.73925781 C6.18748548 21.35758808 6.20563294 23.97549453 6.22460938 26.59375 C6.2275441 28.25781106 6.22952837 29.92187412 6.23046875 31.5859375 C6.23765427 32.36834808 6.24483978 33.15075867 6.25224304 33.95687866 C6.23621147 37.78162822 6.16616044 40.76014943 4 44 C3.01 44 2.02 44 1 44 C-0.41498081 29.37010915 -0.09610148 14.6798704 0 0 Z " fill="#161616" transform="translate(215,231)"/>
<path d="M0 0 C2.375 0.9375 2.375 0.9375 5.375 2.9375 C6.67646676 6.20455647 7.45854054 9.53350772 8.375 12.9375 C2.435 12.9375 -3.505 12.9375 -9.625 12.9375 C-6.35281065 -0.1512574 -6.35281065 -0.1512574 0 0 Z " fill="#020202" transform="translate(150.625,4.0625)"/>
<path d="M0 0 C2.33665696 0.30917599 4.66942983 0.64786614 7 1 C10.95422648 1.28300627 14.90884522 1.50185453 18.8671875 1.71875 C22 2 22 2 23 3 C23.04063832 4.66617115 23.042721 6.33388095 23 8 C6.1070615 7.03644647 6.1070615 7.03644647 -1 6 C-1.042721 4.33388095 -1.04063832 2.66617115 -1 1 C-0.67 0.67 -0.34 0.34 0 0 Z " fill="#565656" transform="translate(86,217)"/>
<path d="M0 0 C0 1.65 0 3.3 0 5 C-7.42640842 6.60881575 -14.40501039 7.26442904 -22 7 C-22 5.02 -22 3.04 -22 1 C-14.65623924 0.42240084 -7.36901413 -0.14738028 0 0 Z " fill="#555555" transform="translate(213,218)"/>
<path d="M0 0 C0 1.98 0 3.96 0 6 C-5.03854106 6.83211276 -9.8125662 7.1078534 -14.9375 7.0625 C-15.62134766 7.05798828 -16.30519531 7.05347656 -17.00976562 7.04882812 C-18.67321604 7.0371956 -20.3366205 7.01926694 -22 7 C-22 5.35 -22 3.7 -22 2 C-19.45887768 1.66198848 -16.91723254 1.32946621 -14.375 1 C-13.66214844 0.90460938 -12.94929687 0.80921875 -12.21484375 0.7109375 C-8.11178391 0.18393899 -4.14754258 -0.10466984 0 0 Z " fill="#555555" transform="translate(211,131)"/>
<path d="M0 0 C7.42686315 -0.10331031 14.63512596 0.00137301 22 1 C22 2.65 22 4.3 22 6 C6.25512528 6.3690205 6.25512528 6.3690205 -1 4 C-0.67 2.68 -0.34 1.36 0 0 Z " fill="#555555" transform="translate(89,132)"/>
<path d="M0 0 C3.3 0 6.6 0 10 0 C9.38310257 8.51318458 9.38310257 8.51318458 7.5859375 10.796875 C6 12 6 12 3.9375 11.9375 C2 11 2 11 0.75 9.375 C-0.25295915 6.1989627 -0.12721966 3.30771122 0 0 Z " fill="#212121" transform="translate(102,77)"/>
<path d="M0 0 C3.3 0 6.6 0 10 0 C9.14285714 8.57142857 9.14285714 8.57142857 7 12 C5.1875 11.8125 5.1875 11.8125 3 11 C0.07099943 7.33874929 -0.32215416 4.6175429 0 0 Z " fill="#212121" transform="translate(188,77)"/>
<path d="M0 0 C5.94 0 11.88 0 18 0 C18 1.65 18 3.3 18 5 C12.06 5 6.12 5 0 5 C0 3.35 0 1.7 0 0 Z " fill="#545454" transform="translate(141,220)"/>
<path d="M0 0 C3 1 3 1 5 4 C5.125 7.1875 5.125 7.1875 5 10 C2.36 10 -0.28 10 -3 10 C-3.36923077 4.58461538 -3.36923077 4.58461538 -1.5 1.625 C-1.005 1.08875 -0.51 0.5525 0 0 Z " fill="#2D2D2D" transform="translate(133,279)"/>
<path d="M0 0 C8.25 0 16.5 0 25 0 C24.67 1.98 24.34 3.96 24 6 C23.34 6 22.68 6 22 6 C21.7525 5.360625 21.505 4.72125 21.25 4.0625 C20.18437567 1.81258459 20.18437567 1.81258459 17.875 1.25 C17.25625 1.1675 16.6375 1.085 16 1 C16.33 1.99 16.66 2.98 17 4 C13.89448334 4 12.64738916 3.4606285 10 2 C9.54625 2.66 9.0925 3.32 8.625 4 C8.08875 4.66 7.5525 5.32 7 6 C6.34 6 5.68 6 5 6 C5 4.68 5 3.36 5 2 C3.35 1.67 1.7 1.34 0 1 C0 0.67 0 0.34 0 0 Z " fill="#666666" transform="translate(137,138)"/>
<path d="M0 0 C0.33 0.99 0.66 1.98 1 3 C2.65 3.33 4.3 3.66 6 4 C6.36738281 3.34515625 6.73476562 2.6903125 7.11328125 2.015625 C9 0 9 0 11.91796875 -0.390625 C12.99691406 -0.34421875 14.07585937 -0.2978125 15.1875 -0.25 C16.27417969 -0.21390625 17.36085937 -0.1778125 18.48046875 -0.140625 C19.31191406 -0.09421875 20.14335937 -0.0478125 21 0 C21 0.99 21 1.98 21 3 C18.36 3.33 15.72 3.66 13 4 C13 3.01 13 2.02 13 1 C12.34 1 11.68 1 11 1 C11 1.99 11 2.98 11 4 C10.01 4 9.02 4 8 4 C8 4.66 8 5.32 8 6 C5.36 6 2.72 6 0 6 C-1.125 2.25 -1.125 2.25 0 0 Z " fill="#696969" transform="translate(147,131)"/>
<path d="M0 0 C0.33 2.64 0.66 5.28 1 8 C-1.64 8 -4.28 8 -7 8 C-6.4140625 1.84765625 -6.4140625 1.84765625 -6 0 C-3.50907189 -1.24546405 -2.58919267 -0.7767578 0 0 Z " fill="#252525" transform="translate(204,279)"/>
<path d="M0 0 C1.98 0 3.96 0 6 0 C6 1.65 6 3.3 6 5 C8.64 5 11.28 5 14 5 C14 4.34 14 3.68 14 3 C14.99 3 15.98 3 17 3 C17 2.01 17 1.02 17 0 C17.66 0 18.32 0 19 0 C19 0.99 19 1.98 19 3 C19.66 3 20.32 3 21 3 C21 3.99 21 4.98 21 6 C13.08 6 5.16 6 -3 6 C-3 5.67 -3 5.34 -3 5 C-1.35 4.67 0.3 4.34 2 4 C1.34 3.67 0.68 3.34 0 3 C0 2.01 0 1.02 0 0 Z " fill="#909090" transform="translate(141,132)"/>
<path d="M0 0 C3.875 0.875 3.875 0.875 5 2 C5.04092937 4.33297433 5.04241723 6.66705225 5 9 C2.69 9 0.38 9 -2 9 C-2.25 3.375 -2.25 3.375 0 0 Z " fill="#202020" transform="translate(97,278)"/>
<path d="M0 0 C3 1 3 1 4 3 C4.039992 4.99960012 4.04346799 7.00047242 4 9 C1.69 9 -0.62 9 -3 9 C-3.36923077 3.46153846 -3.36923077 3.46153846 -1.5 1.125 C-1.005 0.75375 -0.51 0.3825 0 0 Z " fill="#222222" transform="translate(165,279)"/>
<path d="M0 0 C2.31 0 4.62 0 7 0 C7 1.32 7 2.64 7 4 C7.66 4 8.32 4 9 4 C9.33 2.68 9.66 1.36 10 0 C12 1 12 1 13 3 C13.99 3.33 14.98 3.66 16 4 C16 4.33 16 4.66 16 5 C12.7 5 9.4 5 6 5 C5.67 4.34 5.34 3.68 5 3 C3.35 3 1.7 3 0 3 C0 2.01 0 1.02 0 0 Z " fill="#696969" transform="translate(130,132)"/>
<path d="M0 0 C0 1.32 0 2.64 0 4 C-2.97 4 -5.94 4 -9 4 C-9 3.34 -9 2.68 -9 2 C-5.62902617 0.50178941 -3.79557881 0 0 0 Z " fill="#606060" transform="translate(140,140)"/>
<path d="M0 0 C2.97 0 5.94 0 9 0 C8.67 0.66 8.34 1.32 8 2 C5.35139573 2.59355614 2.70802678 2.74209269 0 3 C0 2.01 0 1.02 0 0 Z " fill="#5E5E5E" transform="translate(160,132)"/>
<path d="M0 0 C1.32 0.66 2.64 1.32 4 2 C4 2.66 4 3.32 4 4 C1.69 4.33 -0.62 4.66 -3 5 C-1.125 1.125 -1.125 1.125 0 0 Z " fill="#A2A2A2" transform="translate(147,139)"/>
<path d="M0 0 C1.98 0 3.96 0 6 0 C6 1.65 6 3.3 6 5 C5.38125 4.814375 4.7625 4.62875 4.125 4.4375 C1.95839822 3.76313824 1.95839822 3.76313824 0 5 C0 3.35 0 1.7 0 0 Z " fill="#A1A1A1" transform="translate(153,139)"/>
<path d="M0 0 C2.31 0 4.62 0 7 0 C6.67 0.99 6.34 1.98 6 3 C4.35 3 2.7 3 1 3 C0.67 2.01 0.34 1.02 0 0 Z " fill="#686868" transform="translate(162,288)"/>
<path d="M0 0 C2.97 0.495 2.97 0.495 6 1 C6 1.99 6 2.98 6 4 C4.02 4 2.04 4 0 4 C0 2.68 0 1.36 0 0 Z " fill="#616161" transform="translate(163,140)"/>
<path d="M0 0 C2.31 0 4.62 0 7 0 C7 0.99 7 1.98 7 3 C4.69 3 2.38 3 0 3 C0 2.01 0 1.02 0 0 Z " fill="#626262" transform="translate(130,132)"/>
</svg>
