<?xml version="1.0" standalone="no"?>
<!DOCTYPE svg PUBLIC "-//W3C//DTD SVG 20010904//EN"
 "http://www.w3.org/TR/2001/REC-SVG-20010904/DTD/svg10.dtd">
<svg version="1.0" xmlns="http://www.w3.org/2000/svg"
 width="512.000000pt" height="512.000000pt" viewBox="0 0 512.000000 512.000000"
 preserveAspectRatio="xMidYMid meet">

<g transform="translate(0.000000,512.000000) scale(0.100000,-0.100000)"
fill="red" stroke="none">
<path d="M2340 5039 c-233 -29 -526 -133 -716 -254 -140 -90 -282 -208 -340
-284 -19 -24 -34 -41 -34 -36 0 10 -107 -128 -108 -139 0 -5 -4 -12 -10 -15
-36 -23 -149 -245 -201 -394 -59 -168 -75 -279 -76 -502 0 -221 11 -301 67
-475 77 -242 171 -385 619 -941 321 -400 468 -616 605 -889 144 -285 248 -592
309 -910 9 -47 18 -92 21 -100 3 -8 21 35 39 95 125 412 348 870 583 1200 143
200 216 293 487 620 171 206 252 307 322 400 59 78 187 273 213 324 41 82 95
242 122 363 20 89 23 130 23 308 0 159 -4 225 -18 295 -38 187 -117 388 -214
545 -48 77 -163 229 -163 215 0 -4 -16 12 -35 36 -88 112 -292 267 -468 356
-168 84 -316 133 -512 170 -96 18 -409 25 -515 12z m429 -789 c288 -81 497
-308 557 -604 22 -107 15 -273 -16 -371 -52 -167 -173 -332 -312 -426 -362
-246 -853 -144 -1097 227 -167 255 -160 618 18 871 118 167 306 286 513 322
81 15 252 5 337 -19z"/>
</g>
</svg>
